<svg xmlns="http://www.w3.org/2000/svg" xmlns:xlink="http://www.w3.org/1999/xlink" width="589.933" height="471.567" viewBox="0 0 589.933 471.567"><defs><style>.a{fill:url(#a);}.b{fill:url(#b);}.c{fill:url(#c);}.d{opacity:0.35;fill:url(#d);}.e{fill:#fff;}.f{fill:#fab074;}.g{fill:#5c63a1;}.h{fill:url(#g);}.i{fill:#cc464f;}.j{fill:#288797;}.k{fill:url(#h);}.l{fill:#d1e6f7;}.m{fill:#147679;}.n{fill:url(#j);}.o,.v{fill:none;stroke-linecap:round;stroke-miterlimit:10;}.o{stroke:#fff;stroke-width:6px;}.p{fill:#6dcff6;}.q{fill:url(#k);}.r{fill:url(#l);}.s{fill:#082947;}.t{fill:url(#n);}.u{fill:url(#o);}.v{stroke:#6a4741;}.w{fill:#6a4741;}.x,.z{fill:#539671;}.y{fill:#dce5fe;}.z{opacity:0.88;}.aa{fill:#167240;opacity:0.73;}.ab{fill:url(#p);}.ac{fill:#f7f7f7;}</style><linearGradient id="a" x1="1.314" y1="0.5" x2="0.314" y2="0.5" gradientUnits="objectBoundingBox"><stop offset="0" stop-color="#b7deff"/><stop offset="1" stop-color="#fff"/></linearGradient><linearGradient id="b" x1="0.989" y1="0.5" x2="-0.011" y2="0.5" xlink:href="#a"/><linearGradient id="c" x1="1.085" y1="0.5" x2="-0.004" y2="0.5" gradientUnits="objectBoundingBox"><stop offset="0" stop-color="#dfebf8"/><stop offset="1" stop-color="#eff9fe"/></linearGradient><linearGradient id="d" x1="1" y1="0.5" x2="0" y2="0.5" gradientUnits="objectBoundingBox"><stop offset="0" stop-color="#d9e3f4"/><stop offset="1" stop-color="#bed5ea"/></linearGradient><linearGradient id="g" x1="0.928" y1="1" x2="0.413" y2="0.147" gradientUnits="objectBoundingBox"><stop offset="0" stop-color="#396763"/><stop offset="0.144" stop-color="#3c7d9d"/><stop offset="0.492" stop-color="#359aaa"/><stop offset="1" stop-color="#0f3b24"/></linearGradient><radialGradient id="h" cx="0.449" cy="0.134" r="0.856" gradientTransform="matrix(1.045, 0.331, -0.367, 0.944, 190.148, 30.594)" gradientUnits="objectBoundingBox"><stop offset="0" stop-color="#006cb7"/><stop offset="1" stop-color="#002857"/></radialGradient><linearGradient id="j" x1="1.962" x2="0.592" xlink:href="#c"/><linearGradient id="k" x1="98.753" y1="0.5" x2="97.753" y2="0.5" gradientUnits="objectBoundingBox"><stop offset="0" stop-color="#a3b4dd"/><stop offset="0" stop-color="#a1ce8f" stop-opacity="0.596"/><stop offset="1" stop-color="#e4edf8"/></linearGradient><linearGradient id="l" x1="-73.182" y1="0.5" x2="-72.182" y2="0.5" gradientUnits="objectBoundingBox"><stop offset="0" stop-color="#a3b4dd"/><stop offset="1" stop-color="#e4edf8"/></linearGradient><linearGradient id="n" x1="1" y1="0.5" x2="0" y2="0.5" xlink:href="#a"/><linearGradient id="o" x1="0.849" y1="0.5" x2="-0.151" y2="0.5" xlink:href="#a"/><linearGradient id="p" x1="1" y1="0.5" x2="0" y2="0.5" xlink:href="#l"/></defs><ellipse class="a" cx="120.949" cy="3.31" rx="120.949" ry="3.31" transform="translate(340.468 464.848)"/><ellipse class="b" cx="70.307" cy="2.763" rx="70.307" ry="2.763" transform="translate(8.403 462.681)"/><rect class="c" width="301.607" height="276.972" rx="21.74" transform="translate(94.953 83.126)"/><rect class="d" width="50.795" height="49.161" rx="6.735" transform="translate(291.764 244.573)"/><rect class="e" width="50.795" height="49.161" rx="6.735" transform="translate(293.264 242.96)"/><rect class="d" width="106.688" height="103.257" rx="14.147" transform="translate(127.423 122.773)"/><rect class="e" width="106.688" height="103.257" rx="14.147" transform="translate(129.876 120.412)"/><rect class="d" width="106.688" height="103.257" rx="14.147" transform="translate(240.404 122.773)"/><rect class="e" width="106.688" height="103.257" rx="14.147" transform="translate(242.919 120.412)"/><g transform="translate(381.038 112.46)"><g transform="translate(48.142 339.081)"><path class="f" d="M898.05,698.858l.832,6.46-9.7,4.065-2.608,2.129,17.892,1.089,5.383-5.012-.158-10.337Z" transform="translate(-880.27 -697.252)"/><path class="g" d="M893.713,710.485s-7.925,3.322-8.728,4.756c-.863,1.539.827,2.9,3.169,2.97,7.452.226,22.49-.058,26.005-1.538,4-1.682.171-10.146.171-10.146a11.188,11.188,0,0,1-1.093,2.547,6.294,6.294,0,0,1-3.569,2.92,16.194,16.194,0,0,1-4.365.813,56.018,56.018,0,0,1-6.286.02,14.971,14.971,0,0,1-4.339-.535c-.473-.17-1.1-.462-1.2-1.018A1.006,1.006,0,0,1,893.713,710.485Z" transform="translate(-884.756 -698.355)"/></g><path class="h" d="M875.191,463.3s1.035,45.551,32.893,98.541l14.782,109.214,21.753-1.985s-.1-97.453-19.232-126.311c.61-21.833,6.836-56.806.749-71.1C920.791,459.1,906.249,457.736,875.191,463.3Z" transform="translate(-860.16 -329.984)"/><path class="i" d="M929.4,490.25a29.229,29.229,0,0,0-4.638-13.822c-4.3-6.253-14.892-13.171-14.892-13.171H949.9Z" transform="translate(-894.451 -316.472)"/><path class="f" d="M951.519,698.872l-.552,5.923-11.054,4.867-.8.4a1.051,1.051,0,0,0,.529,1.906l12.453.923a7.9,7.9,0,0,0,8.361-6.517h0l2.1-6.744Z" transform="translate(-931.101 -358.363)"/><path class="g" d="M948.162,710.708s-7.967,3.217-8.79,4.641c-.883,1.528.788,2.909,3.13,3.012,7.448.324,22.488.238,26.022-1.2,4.02-1.629,0-9.492,0-9.492a6.167,6.167,0,0,1-.821,1.882,6.3,6.3,0,0,1-3.607,2.872,16.157,16.157,0,0,1-4.375.756,56.036,56.036,0,0,1-6.285-.062,14.981,14.981,0,0,1-4.332-.591c-.47-.177-1.092-.477-1.185-1.034A1,1,0,0,1,948.162,710.708Z" transform="translate(-939.133 -359.41)"/><path class="j" d="M890.15,462.888a266.677,266.677,0,0,0,41.407,0,34.729,34.729,0,0,0,10.738-2.732,25.015,25.015,0,0,1,5.263,15.442c.075,4.421-2.649,12.713-5.806,20.25-4.009,9.571-5,27.046-11.571,50.835,10.39,29.336-16.028,126.839-16.028,126.839l-20.376-3.032s8-117.162,7-124.441c-2.263-16.453-6.251-46.874-8.745-65.919C891,472.2,890.15,465.686,890.15,462.888Z" transform="translate(-875.574 -329.981)"/><path class="k" d="M860.447,348.245l-1,8.5a57.692,57.692,0,0,1-8.213-.991c-24.081-7.724-15.752-80.247,22.089-68.488,18.592,5.776,23.364,21.406,23.143,36.487-.052,3.571,33.018-.55,42.656,28.641,4.4,13.313,2.968,39.853-19.834,46.573-29.794,8.779-38.6-20.576-41.434-28.485-2.691-7.515.247-9.344-.849-12.15-1.271-3.254-6.035-5.25-6.035-5.25s-14.412-11.187-2.8-28.049c0,0-21.635-1.088-18.952-25.234,0,0-9.524,16.573,5.121,30.107,3.953,3.652,7.561,5.92,7.314,9.372S860.447,348.245,860.447,348.245Z" transform="translate(-822.79 -285.975)"/></g><rect class="l" width="119.024" height="10.821" transform="translate(470.908 254.555)"/><rect class="l" width="15.404" height="64.702" transform="translate(189.61 138.091)"/><rect class="m" width="15.404" height="29.773" transform="translate(167.809 173.017)"/><rect class="l" width="15.404" height="53.8" transform="translate(151.72 149.291)"/><rect class="d" width="146.234" height="17.171" rx="2.965" transform="translate(144.513 251.406)"/><ellipse class="n" cx="32.524" cy="32.524" rx="32.524" ry="32.524" transform="translate(482.801 35.335)"/><path class="o" d="M803.736,208.507V226.89l-10.3,5.544" transform="translate(-286.747 -156.956)"/><rect class="l" width="8.496" height="221.078" transform="translate(527.58 245.094)"/><path class="p" d="M769.681,446.666H714.374l18.116-48.712a7.36,7.36,0,0,1,6.9-4.795H783.87a3.969,3.969,0,0,1,3.72,5.353Z" transform="translate(-201.187 -192.174)"/><path class="q" d="M767.254,446.666H711.947l18.116-48.712a7.361,7.361,0,0,1,6.9-4.795h44.479a3.969,3.969,0,0,1,3.721,5.353Z" transform="translate(-196.622 -192.174)"/><path class="r" d="M2.163,0H98.969a0,0,0,0,1,0,0V0a4.325,4.325,0,0,1-4.325,4.325H2.163A2.163,2.163,0,0,1,0,2.163v0A2.163,2.163,0,0,1,2.163,0Z" transform="translate(472.048 250.771)"/><path class="e" d="M744.612,426.869c-1.434-2.59,2.1-1.162,4.69-2.6s3.257-5.186,4.69-2.6a5.361,5.361,0,1,1-9.38,5.192Z" transform="translate(-194.359 -195.795)"/><g transform="translate(257.947 146.839)"><path class="l" d="M2144.108,788.569a12.928,12.928,0,0,0-2.306-25.492,15.49,15.49,0,0,0-30.261-1.675,13.293,13.293,0,0,0-15.435,12.593,7.543,7.543,0,0,0-2.209-.345,7.748,7.748,0,0,0-2.9,14.919Z" transform="translate(-2086.189 -749.954)"/><g transform="translate(8.061 30.837)"><path class="s" d="M2207.851,1033.338a2.422,2.422,0,0,1-2.415,2.415h-43.389a2.422,2.422,0,0,1-2.415-2.415h0a2.422,2.422,0,0,1,2.415-2.415h43.389a2.422,2.422,0,0,1,2.415,2.415Z" transform="translate(-2159.632 -1030.923)"/><path class="e" d="M2169.169,1042a1.537,1.537,0,1,1,0-3.073h43.389a1.537,1.537,0,1,1,0,3.073Z" transform="translate(-2166.754 -1038.045)"/><path class="m" d="M2174.65,1038.923l3.073,3.073h1.242l-3.073-3.073Zm2.88,0L2180.6,1042h1.241l-3.073-3.073Zm8.641,0,3.073,3.073h1.242l-3.073-3.073Zm-2.88,0,3.073,3.073h1.241l-3.073-3.073Zm-2.88,0,3.073,3.073h1.242l-3.073-3.073Zm-10.773.748,2.325,2.325h1.242l-2.919-2.918A1.543,1.543,0,0,0,2169.638,1039.671Zm2.132-.748,3.073,3.073h1.242l-3.073-3.073Zm41.565,0h-1.242l2.918,2.918a1.543,1.543,0,0,0,.649-.593Zm-12.763,0,3.073,3.073h1.242l-3.073-3.073Zm2.88,0,3.073,3.073h1.242l-3.073-3.073Zm5.76,0,3.073,3.073h1.242l-3.073-3.073Zm-2.88,0,3.073,3.073h1.242l-3.073-3.073Zm-17.281,0,3.073,3.073h1.241l-3.073-3.073Zm2.88,0L2195,1042h1.242l-3.073-3.073Zm5.761,0,3.073,3.073h1.242l-3.073-3.073Zm-2.88,0,3.073,3.073h1.242l-3.073-3.073Z" transform="translate(-2168.54 -1038.045)"/></g><g transform="translate(19.279 9.099)"><g transform="translate(0 6.963)"><g transform="translate(0.804 2.97)"><path class="e" d="M2269.7,974.274l-.494,1.239a.355.355,0,0,0,.317.536l1.323.166Z" transform="translate(-2269.164 -968.687)"/><path class="e" d="M2361.446,925.306l.493-1.239a.355.355,0,0,0-.317-.537l-1.323-.166Z" transform="translate(-2350.298 -923.365)"/></g><g transform="translate(2.244 1.458)"><path class="e" d="M2282.329,989.807l-.041,1.333a.355.355,0,0,0,.481.4l1.3-.3Z" transform="translate(-2282.286 -981.003)"/><path class="e" d="M2348.026,911.342l.04-1.333a.355.355,0,0,0-.481-.4l-1.3.3Z" transform="translate(-2339.261 -909.594)"/></g><g transform="translate(3.755 0.366)"><path class="e" d="M2296.059,1001.46l.418,1.266a.355.355,0,0,0,.588.208l1.12-.723Z" transform="translate(-2296.059 -990.285)"/><path class="e" d="M2331.515,901.2l-.418-1.266a.355.355,0,0,0-.587-.208l-1.121.723Z" transform="translate(-2325.731 -899.64)"/></g><g transform="translate(5.467)"><path class="e" d="M2312.627,1007.653l.826,1.047a.355.355,0,0,0,.623-.006l.805-1.062Z" transform="translate(-2312.52 -995.413)"/><path class="e" d="M2313.906,897.536l-.826-1.047a.356.356,0,0,0-.624.006l-.8,1.063Z" transform="translate(-2311.652 -896.308)"/></g><g transform="translate(3.662 0.408)"><path class="e" d="M2330.373,1001.731l1.134.7a.355.355,0,0,0,.583-.219l.394-1.274Z" transform="translate(-2326.514 -989.864)"/><path class="e" d="M2297.321,900.814l-1.134-.7a.355.355,0,0,0-.583.219l-.393,1.274Z" transform="translate(-2295.21 -900.03)"/></g><g transform="translate(2.149 1.538)"><path class="e" d="M2347.162,990.491l1.305.271a.355.355,0,0,0,.473-.405l-.066-1.332Z" transform="translate(-2339.947 -980.387)"/><path class="e" d="M2283.2,910.611l-1.305-.271a.355.355,0,0,0-.473.405l.066,1.332Z" transform="translate(-2281.422 -910.323)"/></g><g transform="translate(0.741 3.051)"><path class="e" d="M2360.962,975.294l1.32-.192a.355.355,0,0,0,.306-.543l-.517-1.229Z" transform="translate(-2350.824 -967.929)"/><path class="e" d="M2270.271,924.109l-1.32.192a.355.355,0,0,0-.306.543l.518,1.229Z" transform="translate(-2268.596 -924.109)"/></g><g transform="translate(0 4.721)"><path class="e" d="M2370.113,957.972l1.174-.632a.355.355,0,0,0,.1-.615l-.906-.977Z" transform="translate(-2358.23 -953.945)"/><path class="e" d="M2263.254,939.321l-1.174.631a.355.355,0,0,0-.1.615l.907.977Z" transform="translate(-2261.842 -939.321)"/></g><g transform="translate(0.022 4.619)"><path class="e" d="M2370.161,940.611l.888-1a.355.355,0,0,0-.115-.613l-1.187-.608Z" transform="translate(-2357.926 -938.395)"/><path class="e" d="M2263.058,956.741l-.887,1a.355.355,0,0,0,.114.613l1.186.609Z" transform="translate(-2262.041 -954.727)"/></g><path class="e" d="M2271.4,904.444a5.9,5.9,0,1,1-2.079,8.073A5.9,5.9,0,0,1,2271.4,904.444Z" transform="translate(-2267.769 -902.821)"/><path class="m" d="M2286.2,919.853a4.178,4.178,0,1,1-1.473,5.722A4.178,4.178,0,0,1,2286.2,919.853Z" transform="translate(-2281.699 -916.752)"/><path class="e" d="M2301.783,935.667a2.432,2.432,0,1,1-1.372,3.154A2.432,2.432,0,0,1,2301.783,935.667Z" transform="translate(-2296.027 -931.196)"/></g><g transform="translate(3.614 0.316)"><path class="s" d="M2295.6,848.1a2.45,2.45,0,0,1,.391-.6c.226-.254,10.019-8.6,10.235-8.783a7.637,7.637,0,0,1,12.709,7.891q-.11.3-.242.583a7.642,7.642,0,0,1-7.72,4.378c-.28,0-13.018-.007-13.291-.022a2.432,2.432,0,0,1-2.082-3.451m-.543-.252a3,3,0,0,0-.071,2.384,3.038,3.038,0,0,0,2.665,1.917c.314.016,12.526.023,13.292.023a8.241,8.241,0,0,0,8.294-4.725c.095-.2.182-.416.26-.629a8.236,8.236,0,0,0-13.682-8.534c-.3.258-2.767,2.356-5.092,4.345-5.009,4.285-5.12,4.409-5.18,4.476a3.03,3.03,0,0,0-.487.743Z" transform="translate(-2294.77 -835.738)"/></g><g transform="translate(11.867 0)"><g transform="translate(0.51 4.775)"><path class="m" d="M2376.653,876.369l-1.647.52a.46.46,0,0,0-.278.758l.917,1.463Z" transform="translate(-2374.618 -876.369)"/><path class="m" d="M2505.731,923.868l1.647-.52a.46.46,0,0,0,.278-.758l-.917-1.463Z" transform="translate(-2491.341 -916.215)"/></g><g transform="translate(0 7.119)"><path class="m" d="M2371.574,897.723l-1.37,1.052a.46.46,0,0,0,0,.807l1.363,1.061Z" transform="translate(-2369.964 -897.723)"/><path class="m" d="M2514.261,901.061l1.369-1.052a.46.46,0,0,0,0-.807l-1.363-1.061Z" transform="translate(-2498.424 -898.094)"/></g><g transform="translate(0.492 4.815)"><path class="m" d="M2375.489,920.706l-.927,1.457a.46.46,0,0,0,.273.759l1.644.531Z" transform="translate(-2374.449 -915.88)"/><path class="m" d="M2506.944,879.48l.927-1.457a.46.46,0,0,0-.273-.759l-1.644-.531Z" transform="translate(-2491.521 -876.733)"/></g><g transform="translate(1.923 2.856)"><path class="m" d="M2387.89,942.546l-.373,1.686a.46.46,0,0,0,.517.62l1.726-.063Z" transform="translate(-2387.492 -933.364)"/><path class="m" d="M2492.617,861.2l.373-1.686a.46.46,0,0,0-.517-.62l-1.726.063Z" transform="translate(-2479.414 -858.886)"/></g><g transform="translate(3.882 1.005)"><path class="m" d="M2405.338,960.61l.226,1.712a.46.46,0,0,0,.7.406l1.6-.65Z" transform="translate(-2405.338 -947.594)"/><path class="m" d="M2473.082,844.193l-.227-1.712a.46.46,0,0,0-.7-.406l-1.6.65Z" transform="translate(-2463.399 -842.015)"/></g><g transform="translate(6.027 0.009)"><path class="m" d="M2424.883,972.721l.8,1.531a.46.46,0,0,0,.794.143l1.281-1.158Z" transform="translate(-2424.883 -957.38)"/><path class="m" d="M2450.7,834.791l-.8-1.532a.46.46,0,0,0-.794-.142l-1.282,1.158Z" transform="translate(-2445.303 -832.947)"/></g><g transform="translate(6.071)"><path class="m" d="M2447.4,973.376l1.274,1.166a.46.46,0,0,0,.8-.137l.808-1.526Z" transform="translate(-2444.968 -957.511)"/><path class="m" d="M2428.16,834.2l-1.274-1.166a.46.46,0,0,0-.795.138l-.808,1.526Z" transform="translate(-2425.283 -832.862)"/></g><g transform="translate(3.918 0.978)"><path class="m" d="M2470.152,962.346l1.6.66a.46.46,0,0,0,.7-.4l.238-1.711Z" transform="translate(-2463.074 -947.82)"/><path class="m" d="M2408.192,842.494l-1.6-.66a.46.46,0,0,0-.7.4l-.237,1.711Z" transform="translate(-2405.659 -841.772)"/></g><g transform="translate(1.958 2.816)"><path class="m" d="M2490.412,945.153l1.725.074a.46.46,0,0,0,.521-.616l-.362-1.689Z" transform="translate(-2479.151 -933.658)"/><path class="m" d="M2390.075,858.594l-1.725-.074a.46.46,0,0,0-.521.617l.362,1.689Z" transform="translate(-2387.806 -858.516)"/></g><path class="m" d="M2390.292,841.658a7.636,7.636,0,1,1-9.8,4.532A7.636,7.636,0,0,1,2390.292,841.658Z" transform="translate(-2378.915 -840.273)"/><path class="s" d="M2407.652,861.886a5.4,5.4,0,1,1-6.934,3.206A5.4,5.4,0,0,1,2407.652,861.886Z" transform="translate(-2397.046 -858.404)"/><path class="e" d="M2422.372,879.324a3.551,3.551,0,1,1-4.834,1.363A3.552,3.552,0,0,1,2422.372,879.324Z" transform="translate(-2411.913 -873.821)"/></g></g></g><rect class="e" width="146.234" height="17.171" rx="2.965" transform="translate(139.38 248.088)"/><rect class="d" width="96.119" height="17.171" rx="2.965" transform="translate(184.083 273.065)"/><rect class="e" width="96.119" height="17.171" rx="2.965" transform="translate(186.342 269.748)"/><g transform="translate(306.294 125.571)"><g transform="translate(0 20.651)"><path class="f" d="M1037.1,355.174l-40.177-1.088L968.283,340.6l-4.624,6.962,29.083,17.321,45.041,6.2Z" transform="translate(-949.145 -330.325)"/><path class="f" d="M1061.676,339.217a12.854,12.854,0,0,0-5.525-5.457c-4.422-2.36-4.621-1.939-4.621-1.939s-8.362-3.776-8.853-2.686c-.338.566-.185,1.33,1.929,2.571a37.528,37.528,0,0,1,3.629,2.339,31.129,31.129,0,0,0-.893,4.829c-.113,1.642-.326,3.54,1.362,5.027,1.368,1.2,2.988,1.606,5.53,1.944,1.134.151,2.818.333,2.818.333Z" transform="translate(-1042.538 -328.938)"/></g><path class="t" d="M884.353,430.215c-1.415,8.884-.577,18.486-.7,20.425,0,0,11.839,6.1,32.513,3.364,15.319-2.028,19.612-6.1,19.612-6.1-.819-13.446,8.34-37.349,8.34-37.349l-.811-5.854q.151-1.593.3-3.234a50.489,50.489,0,0,1,3.732-15.492l6.167-.3c1.464-9.944-1.768-14.92-4.322-17.637-3.334-3.549-8.517-6.1-14.392-7.416-8.082-1.386-18.036-1.715-31.023-2.315-.348-.016-10.723-.94-11.045-.894l-3.133-.112c-1.382-.05-2.871-.085-6-.05-3.186.035-4.382-.111-8.013-.111v15.817a9.194,9.194,0,0,0,4.827,1.251c-2.8,11.468-6.964,15.792.824,27.261C881.237,401.469,887.609,412.8,884.353,430.215Z" transform="translate(-794.796 -312.412)"/><path class="u" d="M949.074,390.392s-3.524,18.995-17.874,18.5-35.923,0-35.923,0,41.588.026,44.609,27.9Z" transform="translate(-806.615 -317.015)"/><path class="f" d="M960.325,389.526,945.9,442.091c-1.656,6.035-7.345,9.546-12.88,7.952l-46.4-1.677-6.65-.961a3.783,3.783,0,0,1-2.09-1.044l-.049-.048a6.319,6.319,0,0,1-1.532-6.37l1.263-4.041a3.633,3.633,0,0,1,3.894-2.673l1.827.252a3.078,3.078,0,0,1,1.938,1.1l5.448,3.618,42.578-3.2,10.1-44.708Z" transform="translate(-801.445 -317.314)"/><path class="f" d="M944.748,353.971c-4.468,10.5-19.459,23.05-30.713,21.747-11.078-1.282-17.831-20.789-16.287-25.146.725-.007,12.012.809,14.526-1.067a7.2,7.2,0,0,0,2.195-8.213c-1.239-3.612-7.2-5.251-9.876-5.877-6.054-1.411-4.555-3.208-4.036-7.718.255-2.215.21-5.426-.412-5.876-1.131-.818-2.792-1.445-2.9-2.171a14.008,14.008,0,0,0,2.272-2.19,10.75,10.75,0,0,0,1.383-3.968c.3-1.6.436-3.125,1.007-5.382,1.7-5.512,3.542-6.916,3.542-6.916C907.8,332.44,930.4,324.087,930.4,324.087a26.637,26.637,0,0,0-5.239,8.638,17.816,17.816,0,0,0,.849,13.1,11.577,11.577,0,0,0,7.434,5.665C939.581,353.095,944.748,353.971,944.748,353.971Z" transform="translate(-804.04 -301.195)"/><path class="v" d="M941.771,312.179s2.306-2.958,3.828,1.68" transform="translate(-842.448 -301.789)"/><ellipse class="w" cx="0.812" cy="1.553" rx="0.812" ry="1.553" transform="translate(100.999 14.869) rotate(-169.653)"/><path class="w" d="M942.106,328.408c.2-.9,1.435,1.471,4.4.026a3.606,3.606,0,0,1-2.484,1.169C942.627,329.67,941.964,329.05,942.106,328.408Z" transform="translate(-843.604 -304.769)"/></g><g transform="translate(301.998 254.545)"><g transform="translate(0 0)"><g transform="translate(0 0)"><rect class="m" width="19.682" height="2.518" transform="translate(13.91 0)"/><rect class="l" width="19.682" height="2.518" transform="translate(13.91 3.761)"/><rect class="m" width="19.682" height="2.518" transform="translate(13.91 7.522)"/><rect class="l" width="19.682" height="2.518" transform="translate(13.91 11.186)"/><rect class="m" width="19.682" height="2.518" transform="translate(13.91 14.851)"/><rect class="m" width="19.682" height="2.517" transform="translate(13.91 21.509)"/><rect class="m" width="33.592" height="2.518" transform="translate(0 25.475)"/></g><rect class="m" width="12.364" height="19.324" rx="4.313"/><rect class="l" width="12.364" height="2.075" transform="translate(0 21.731)"/><g transform="translate(1.492 4.328)"><path class="e" d="M491.234,162.947h-4.487a.614.614,0,0,1-.54-.553l-.863-4.26c-.1-.476.171-.944.54-.944H492.1c.369,0,.636.468.54.944l-.863,4.26A.615.615,0,0,1,491.234,162.947Z" transform="translate(-485.324 -154.734)"/><g transform="translate(1.185)"><path class="e" d="M486.972,163.584h-5.4c-.062,0-.112-.066-.112-.149s.05-.149.112-.149h5.319l1.88-8.765a.121.121,0,0,1,.107-.108h1.176c.062,0,.112.066.112.149s-.05.149-.112.149h-1.092l-1.88,8.765A.121.121,0,0,1,486.972,163.584Z" transform="translate(-481.457 -154.413)"/></g><g transform="translate(0.817 9.473)"><path class="e" d="M494.5,166c0,.482-.292.873-.653.873s-.654-.391-.654-.873.292-.874.654-.874S494.5,165.516,494.5,166Z" transform="translate(-493.198 -165.125)"/><path class="e" d="M487.323,166c0,.482-.292.873-.653.873s-.654-.391-.654-.873.292-.874.654-.874S487.323,165.516,487.323,166Z" transform="translate(-481.265 -165.125)"/></g></g></g></g><g transform="translate(101.115 374.447) rotate(19)"><path class="x" d="M.917,43.681a.718.718,0,0,1-.537-.645C-.042,40.027-1.55,25.591,6.8,16.452,15.508,6.922,21.664,6.121,23.5.263c.112-.358.523-.349.577.016.766,5.176,2.487,23.094-8.915,30.37C3.845,37.87,2,41.081,1.75,42.933a.78.78,0,0,1-.833.749Z" transform="translate(0)"/><path class="y" d="M21.823.172A21.707,21.707,0,0,1,19.73,5.606a20.96,20.96,0,0,1-1.521,2.418,18.432,18.432,0,0,1-1.8,2.137,16.845,16.845,0,0,1-2.04,1.788,16.953,16.953,0,0,1-2.232,1.372l-.578.28-.547.258c-.182.081-.36.177-.538.272s-.358.184-.531.293a14.47,14.47,0,0,0-2.027,1.41A18.967,18.967,0,0,0,2.155,24.7,40.113,40.113,0,0,0,.31,35.99a.174.174,0,0,1-.147.179.147.147,0,0,1-.136-.156C0,35.047-.013,34.076.022,33.1s.1-1.95.2-2.927.245-1.952.434-2.921a28.318,28.318,0,0,1,.706-2.877,22.577,22.577,0,0,1,2.363-5.364A17.062,17.062,0,0,1,7.362,14.76a15.656,15.656,0,0,1,2.172-1.53c.185-.118.377-.213.567-.317s.379-.206.573-.294l1.116-.527a16.362,16.362,0,0,0,4.036-2.854,20.966,20.966,0,0,0,1.763-1.924,24.847,24.847,0,0,0,1.562-2.2A26.131,26.131,0,0,0,21.6.1l0-.01A.116.116,0,0,1,21.76.009.142.142,0,0,1,21.823.172Z" transform="translate(0.93 5.022)"/></g><g transform="translate(11.981 167.194)"><path class="z" d="M501.9,448.083a1.073,1.073,0,1,0-2.145.041c-.905,7.358-2.633,16.75-5.865,22.881-6,11.378-16.9,52.814,13.027,73.472s37.285,31.592,37.063,71.262c-.2,36.257,1.608,113.628,1.921,126.673a1.788,1.788,0,0,0,1.614,1.886h0a1.8,1.8,0,0,0,1.615-1.938c.04-16.968.238-140.308-2.329-170.2C542.731,524.807,509.593,500.547,501.9,448.083Z" transform="translate(-486.915 -447.007)"/><path class="y" d="M541.3,553.6a28.855,28.855,0,0,0-.7,3.706c-.1.63-.144,1.27-.2,1.908-.068.635-.072,1.279-.1,1.918a40.7,40.7,0,0,0,.5,7.625,40.2,40.2,0,0,0,5.1,13.876c.311.517.6,1.058.928,1.557l1.037,1.462,1.035,1.463,1.112,1.406c1.507,1.852,3.1,3.617,4.737,5.347,3.27,3.458,6.7,6.786,9.935,10.444a72.85,72.85,0,0,1,8.831,12.048,74.521,74.521,0,0,1,3.456,6.911l.74,1.808q.378.9.7,1.828l.667,1.846.6,1.877c.42,1.243.736,2.529,1.1,3.794.333,1.277.631,2.566.932,3.853.258,1.3.54,2.593.76,3.9.2,1.311.46,2.612.62,3.93a147.42,147.42,0,0,1,1.325,15.864.667.667,0,0,1-.564.734.644.644,0,0,1-.608-.658c-.649-10.468-2.061-20.939-5.248-30.633l-.6-1.809-.669-1.774q-.323-.894-.7-1.754l-.736-1.732a71.54,71.54,0,0,0-3.414-6.592q-1.9-3.141-4.055-6.047c-1.437-1.934-2.983-3.757-4.57-5.534-3.177-3.554-6.6-6.835-9.934-10.322-1.667-1.744-3.312-3.543-4.884-5.452l-1.162-1.454-1.093-1.557-1.091-1.558c-.351-.532-.654-1.111-.983-1.665a40.3,40.3,0,0,1-5.19-15l-.23-2.03c-.062-.678-.073-1.362-.111-2.042s-.034-1.362-.021-2.044.026-1.362.094-2.039.095-1.356.2-2.027c.087-.672.171-1.344.3-2.006a25.5,25.5,0,0,1,.989-3.942.591.591,0,0,1,.811-.411.8.8,0,0,1,.358.919Z" transform="translate(-525.805 -521.18)"/></g><g transform="translate(0 269.335)"><path class="aa" d="M486.7,828.85a1.34,1.34,0,0,0-2.627.268c-3.081,13.808-9.442,55.023,18.673,74.529,34.068,23.636,34.89,12.946,39.138,54.562,3.656,35.818,4.9,57.6,5.18,62.974a1.276,1.276,0,0,0,1.159,1.309h0a1.3,1.3,0,0,0,1.16-1.443c-.321-11.277-2.662-85.8-9.351-122.254C528.139,833.96,500.283,864.831,486.7,828.85Z" transform="translate(-481.212 -827.869)"/><path class="y" d="M504.118,855.645a29.392,29.392,0,0,0,1.871,6.778,38.709,38.709,0,0,0,3.136,6.066,39.728,39.728,0,0,0,8.745,9.574,54.9,54.9,0,0,0,5.163,3.615l2.726,1.752c.9.6,1.781,1.254,2.672,1.879a74.682,74.682,0,0,1,10.038,8.751,70.569,70.569,0,0,1,8.384,11.029l1.759,3.088c.307.5.547,1.059.813,1.594l.782,1.616.781,1.616.683,1.678c.446,1.123.922,2.23,1.342,3.366.743,2.321,1.605,4.587,2.168,6.98.308,1.184.635,2.362.9,3.558l.708,3.617.353,1.807.257,1.829.507,3.657c.185,1.215.234,2.453.347,3.678l.295,3.681a.468.468,0,0,1-.361.528.424.424,0,0,1-.435-.4l0-.033c-.315-2.415-.572-4.838-.929-7.236l-.616-3.578-.31-1.787-.4-1.758-.808-3.512c-.3-1.159-.665-2.291-.981-3.441-.593-2.321-1.478-4.5-2.242-6.739-.429-1.092-.913-2.153-1.366-3.23l-.693-1.608-.787-1.542-.786-1.541c-.267-.51-.507-1.04-.815-1.518l-1.755-2.932a70.649,70.649,0,0,0-8.2-10.509,76.74,76.74,0,0,0-9.767-8.419c-.87-.605-1.728-1.234-2.607-1.821l-2.667-1.7a55.214,55.214,0,0,1-5.36-3.838,38.611,38.611,0,0,1-8.94-10.507,36.044,36.044,0,0,1-2.923-6.679,33.787,33.787,0,0,1-.922-3.6,21.218,21.218,0,0,1-.437-3.753.387.387,0,0,1,.329-.426.364.364,0,0,1,.349.341Z" transform="translate(-497.95 -847.114)"/></g><g transform="translate(40.767)"><path class="x" d="M1628.029,96.8c-.365-1.2-1.67-1-1.806.28-2.141,20.12-8.008,92.264,13.633,125.037,25.286,38.293,43.68,47.143,37.772,111.044-5.845,63.229-21.614,175.35-14.835,208.792a1.479,1.479,0,0,0,.992,1.22h0c.8.188,1.512-.663,1.466-1.743-.426-9.864-1.862-52.536,3.088-91.421,5.641-44.308,30.019-154.635,18.68-240.714C1676.392,128.629,1637.167,126.822,1628.029,96.8Z" transform="translate(-1623.863 -96)"/><path class="y" d="M1680.309,202.957a85.343,85.343,0,0,1,6.1,6.4c1.956,2.233,3.834,4.564,5.657,6.956s3.569,4.87,5.291,7.374c.856,1.257,1.665,2.557,2.5,3.834s1.612,2.608,2.419,3.912a179.774,179.774,0,0,1,8.68,16.476l.991,2.13.939,2.164c.612,1.451,1.274,2.872,1.839,4.353l1.746,4.409,1.615,4.482c2.053,6.026,3.892,12.164,5.354,18.439.387,1.561.672,3.156,1.012,4.731l.491,2.37c.153.793.275,1.595.414,2.392.266,1.6.547,3.189.8,4.789l.616,4.827c.228,1.605.351,3.227.489,4.846s.309,3.233.384,4.857c.141,3.249.324,6.494.263,9.746a169.342,169.342,0,0,1-1.076,19.4.463.463,0,0,1-.489.459.512.512,0,0,1-.383-.563v-.014a186.424,186.424,0,0,0-1.352-38.33l-.7-4.72-.865-4.68c-.15-.778-.282-1.561-.446-2.335l-.522-2.313c-.361-1.538-.666-3.093-1.072-4.615-1.5-6.129-3.358-12.125-5.43-18a208.071,208.071,0,0,0-15.471-33.455c-.762-1.31-1.507-2.636-2.283-3.935s-1.558-2.593-2.363-3.868q-2.382-3.853-4.9-7.583c-3.352-4.979-6.868-9.828-10.609-14.407l-.007-.01a.4.4,0,0,1,0-.488A.251.251,0,0,1,1680.309,202.957Z" transform="translate(-1666.032 -171.1)"/><path class="x" d="M1.241,198.08a1.227,1.227,0,0,1-.675-1.166c-.391-6.329-2.222-41.337,3.825-59.935C11.054,116.48,21.777,97.4,16.649,48.6,13.744,20.953,15.629,5.876,16.581.648c.144-.791.818-.882,1.034-.136C20.309,9.835,31.552,49.1,33.293,61.252c1.981,13.824,3.256,40.72-10.339,53.032C9.571,126.4-2.549,157.144,2.2,196.525c.11.91-.388,1.716-.957,1.555Z" transform="matrix(1, 0.017, -0.017, 1, 49.268, 250.174)"/></g><path class="ab" d="M1287.429,670.343h-47.077a2.937,2.937,0,0,0-3.083,3.461l7.1,28.886a3.1,3.1,0,0,0,3.082,2.231H1279.6a3.111,3.111,0,0,0,3.067-2.17l7.828-28.886A2.929,2.929,0,0,0,1287.429,670.343Z" transform="translate(-1184.091 -240.435)"/><path class="ac" d="M1282.078,680.754c1.34-.276,3.019.365,3.316,1.7q1.484,6.662,2.967,13.325a2.46,2.46,0,0,1-1.882,2.99c-1.341.275-3.02-.365-3.317-1.7l-2.967-13.326A2.46,2.46,0,0,1,1282.078,680.754Z" transform="translate(-1219.758 -242.563)"/></svg>