<svg xmlns="http://www.w3.org/2000/svg" width="1920" height="673.005" viewBox="0 0 1920 673.005"><defs><style>.a{opacity:0.81;}.b{fill:#eafcfc;}.af,.c{opacity:0.5;}.d{fill:#9bc1f9;}.e{fill:#c5ddf9;}.f,.s{fill:#fff;}.f{mix-blend-mode:soft-light;}.af,.ah,.ak,.f{isolation:isolate;}.g{fill:#327f6b;}.h{fill:#3c8f7c;}.af,.i{fill:#13375b;}.j{fill:#355389;}.k{fill:#a9453d;}.l{fill:#f48c7f;}.m{fill:#f4f4f4;}.n{fill:#61a3c5;}.o{fill:#f7a491;}.aj,.p{fill:#f47458;}.ak,.p{opacity:0.3;}.ak,.q{fill:#b75742;}.r{fill:#001333;}.t{fill:#bae1f4;}.u{fill:#b0d4ff;}.v{fill:#f7cc7f;}.w{fill:#183658;}.x{fill:#213854;}.y{fill:#78acea;}.z{fill:#3981bc;}.aa{fill:#fe875e;}.ab{fill:#233862;}.ac{fill:#071521;}.ad{fill:#f3fffe;}.ae{fill:#dd6652;}.af,.ah,.ak{mix-blend-mode:multiply;}.ag,.ah{fill:#d3e5f4;}.ai{fill:#c45446;}.al{fill:#fae0b2;}.am{fill:#50bfa5;}.an{fill:#96d9c9;}.ao{fill:#82b378;}.ap{fill:#a8d29f;}.aq{fill:#f1a34f;}.ar{fill:#ffb973;}.as{fill:#d86713;}.at{fill:#d49678;}.au{fill:#514d57;}.av{fill:#3e3b42;}.aw{fill:#3c4e64;}.ax{fill:#3c4169;}.ay{fill:#41345c;}.az{fill:#c98e72;}.ba{fill:#de9d7d;}.bb{fill:#c0defd;}.bc{fill:#494f80;}.bd{fill:#eea886;}.be{fill:#5c63a1;}.bf{fill:#a77860;}.bg{fill:#e8734d;}</style></defs><g class="a" transform="translate(0 -104.551)"><path class="b" d="M1835.237,380.909c-120.122-41.679,70.624-185.824-114.42-232.611-120.818-30.548-88.187-38.842-188.973-82.987-323.794-141.826-1029-9.05-1127.718,27.443C197.919,235.432,376.47,228.869,118.711,380.909c-112,66.066-119.9,211.737,30.932,293.2h1732.34C2015.587,610.634,1946.832,419.63,1835.237,380.909Z" transform="translate(-35.426 103.267)"/><g class="c" transform="translate(653.649 141.984)"><rect class="d" width="318.46" height="633.415"/><rect class="e" width="302.453" height="614.263" transform="translate(7.962 9.221)"/><path class="f" d="M1547.635,1296.472h24.852l82.654-614.263h-24.852Z" transform="translate(-1357.3 -672.987)"/><path class="f" d="M1444,682.208h-51.225l-71.238,529.42v84.843h39.809Z" transform="translate(-1313.571 -672.987)"/></g><g class="c" transform="translate(389.55 141.984)"><rect class="d" width="225.283" height="633.415"/><rect class="e" width="209.276" height="614.263" transform="translate(7.962 9.221)"/><path class="f" d="M886.665,1296.472h24.852l82.654-614.263H969.319Z" transform="translate(-789.508 -672.987)"/><path class="f" d="M783.026,682.208H731.8l-71.238,529.42v84.843h39.808Z" transform="translate(-652.601 -672.987)"/></g><g transform="translate(366.635 141.056)"><path class="g" d="M609.117,669.256c-.282.511-.706,1.221-1.326,2.2l-.024.043c.025.116,7.869,37.145,1.691,39.957-5.666,2.579-6.143-24.57-3.846-35.95a62.977,62.977,0,0,0-3.311,7.96,86.173,86.173,0,0,0-3.4,17.688c1.152,2.459,8.188,17.91,4.664,21.089-2.859,2.579-4.731-7.579-5.248-14.289-.413,6.065-.592,12.476-.612,18.843,3.808,1.216,15.3,5.519,15.521,13.208.242,8.591-9.641,6.058-15.517-9.878.033,6.33.211,12.541.457,18.243,2.738,3.218,13.992,17.053,12.177,25.047-1.837,8.1-8.9-1.177-11.875-18.863.553,10.127,1.255,17.816,1.566,20.244.1.8.217,1.83.339,3.042h0c.045.443.091.913.138,1.4h0s17.493,30.722,12.484,37.8c-3.552,5.014-8.868-15.51-11.662-27.881.967,13.134,1.816,30.265,1.005,35.549l-.063-.016c.619,11.844,1.042,33.378-3.965,34.465-6.925,1.5,0-22.563,0-22.563s-8.45,4.4-9.233,0c-1.31-7.359,10.527-17.722,12.436-19.338-.022-6.541-.478-15.812-1.048-24.231-.637,18.051-4.1,23.42-5.446,24.014-1.67.736-5.107-3.681-3.929-17.635a36.306,36.306,0,0,1,8.237-20.44c-.152-1.54-.3-2.868-.433-3.919-.3-2.329-.952-9.47-1.492-18.966-1.354,14.844-4.556,26.989-7.444,19.467-2.815-7.332,4.536-21.36,7.115-25.917-.3-6.621-.509-13.98-.51-21.455-2.148,7.338-11.567,21.134-12.742,13.24-1.155-7.764,10.536-15.843,12.763-17.3.067-6.4.3-12.79.785-18.791-2.614,6.049-10.59,18.44-11.536,11.751-1.08-7.637,12.29-19.361,12.29-19.361l.019.029a79.622,79.622,0,0,1,3.1-14.873,64.2,64.2,0,0,1,3.128-7.619c-4.942,4.369-12.5,8.255-12.2,3.7.33-4.948,11.962-8.95,15.67-10.1.127-.238.212-.337.266-.335,1.329-2.131,2.728-4.142,4.154-6.034h1.621A82.371,82.371,0,0,0,609.117,669.256Z" transform="translate(-583.741 -662.468)"/><g transform="translate(23.578)"><path class="g" d="M658.15,681.379c-4.9-.895-.5-10.541,6.413-18.911H671.8C668.15,671.178,662.6,682.192,658.15,681.379Z" transform="translate(-651.113 -662.468)"/><path class="g" d="M711.027,662.468h7.418c3.8,6.182,6.677,13.8,4.092,20.623C718.886,692.731,713.965,675.425,711.027,662.468Z" transform="translate(-684.392 -662.468)"/><path class="h" d="M665.608,662.468h1.229c-.315,2.861-.657,6.036-1.014,9.471,2.969,7.634,18.132,47.921,10.906,56.564-7.99,9.558-10.836-39.373-10.836-39.373l-.421-13.781c-1.21,11.887-2.546,26.38-3.6,41.342,2.749,2.95,14.114,15.954,9.384,24.509-4.4,7.959-8.289-14.047-9.544-22.208-.675,9.9-1.217,19.952-1.509,29.549,2.9,1.758,15.15,9.7,11.791,16.626-3.253,6.712-10.012-8.184-11.9-12.631-.136,5.882-.169,11.553-.071,16.866,3.171,1.943,17.364,10.993,13.857,15.309-3.94,4.85-12.04-8.136-12.04-8.136s6.349,33.243-.554,29.677-2.292-31.67-2.511-32.383l.118-.9c-.134-4.369-.17-9.015-.124-13.852-1.281,4.279-3.756,11.406-5.248,8.337-1.754-3.61,3.6-10.977,5.32-13.193.131-6.594.4-13.47.755-20.421-2.492,8.2-7.7,20.057-10.344,14.5-2.966-6.234,8.181-22.358,11.037-26.322.664-10.214,1.481-20.328,2.324-29.68-3.5,11.953-14.925,37.243-18.614,28.612-3.842-8.988,15.954-37.144,19.951-42.684C664.54,672.36,665.107,667.022,665.608,662.468Z" transform="translate(-643.51 -662.468)"/></g><path class="g" d="M736.56,688.466c-4.2,6.412-8.544-14.618-10.465-25.625-.065,7.549-.136,17.655-.18,29.359,2.594,3.469,10.628,15.014,9.507,23.567-1.087,8.3-7.284-8.993-9.532-15.652-.015,6.114-.022,12.565-.016,19.241,3.248,3.678,11.094,13.652,7.35,20.424-3.031,5.483-5.783-5.38-7.34-13.665.016,7.6.05,15.428.106,23.324,3.926,4.1,14.84,16.761,10.856,27.283-3.535,9.338-8.442-10.383-10.811-21.589.072,8.417.172,16.864.305,25.15,2.154,4.7,10,22.685,5.706,26.562-2.322,2.1-4.142-2.314-5.339-8.033.185,7.727.408,15.158.674,22.114,2.864,2.471,14.691,13.213,13.316,20.939-.859,4.824-10.133,0-10.133,0s7.6,26.414,0,24.763c-5.388-1.17-5.046-23.914-4.391-37.053q-.169-3.625-.319-7.464c-1.123,5.5-3.029,9.484-5.186,6.119-3.793-5.918,3.23-19.963,4.641-22.655-.2-7.232-.362-14.78-.494-22.49-2.916,7.4-14.008,25.069-15.279,16.079-1.223-8.641,11.865-21.33,15.149-24.359-.109-7.674-.191-15.446-.251-23.169-2.1,5.848-9.291,24.576-14.653,23.6-6.219-1.135,4.781-18.46,14.643-24.925-.056-7.573-.091-15.089-.109-22.407-.021.193-.04.381-.064.586-.591,4.964-7.217,23.705-10.169,17.5s10.169-23.676,10.169-23.676a1.159,1.159,0,0,1,.053.156c-.01-7.069-.006-13.913.008-20.4-2.087,6.874-9.384,22.127-11.721,17.011-2.219-4.857,8.172-19.285,11.74-24.013.031-9.384.08-17.835.132-24.884-2.476,7.067-9.983,26.524-12.278,19.474-2.445-7.514,9.544-21.961,12.322-25.172.006-.693.011-1.364.017-2.018h5.958C734.9,670.967,740.042,683.153,736.56,688.466Z" transform="translate(-658.963 -662.468)"/></g><rect class="i" width="584.553" height="7.447" transform="translate(382.744 138.567)"/><g class="c" transform="translate(1277.699 141.984)"><rect class="d" width="225.284" height="633.415"/><rect class="e" width="209.275" height="614.263" transform="translate(7.962 9.221)"/><path class="f" d="M3113.064,1296.472h24.852l82.654-614.263h-24.852Z" transform="translate(-3015.907 -672.987)"/><path class="f" d="M3009.425,682.208H2958.2l-71.238,529.42v84.843h39.808Z" transform="translate(-2879 -672.987)"/></g><g class="c" transform="translate(971.508 141.984)"><rect class="d" width="263.625" height="633.415"/><rect class="e" width="247.618" height="614.263" transform="translate(7.962 9.221)"/><path class="f" d="M2452.094,1296.472h24.852L2559.6,682.208h-24.852Z" transform="translate(-2316.595 -672.987)"/><path class="f" d="M2348.455,682.208H2297.23l-71.238,529.42v84.843H2265.8Z" transform="translate(-2218.031 -672.987)"/></g><g transform="translate(1419.633 141.056)"><g transform="translate(69.019)"><path class="g" d="M3425.61,669.256c.282.511.706,1.221,1.327,2.2l.024.043c-.024.116-7.869,37.145-1.69,39.957,5.666,2.579,6.143-24.57,3.846-35.95a62.968,62.968,0,0,1,3.311,7.96,86.186,86.186,0,0,1,3.4,17.688c-1.152,2.459-8.188,17.91-4.665,21.089,2.859,2.579,4.732-7.579,5.248-14.289.413,6.065.593,12.476.613,18.843-3.808,1.216-15.3,5.519-15.521,13.208-.242,8.591,9.64,6.058,15.517-9.878-.033,6.33-.21,12.541-.457,18.243-2.737,3.218-13.991,17.053-12.177,25.047,1.838,8.1,8.9-1.177,11.875-18.863-.553,10.127-1.255,17.816-1.565,20.244-.1.8-.217,1.83-.339,3.042h0c-.045.443-.091.913-.138,1.4h0s-17.493,30.722-12.484,37.8c3.552,5.014,8.868-15.51,11.661-27.881-.967,13.134-1.816,30.265-1.005,35.549l.063-.016c-.619,11.844-1.043,33.378,3.965,34.465,6.925,1.5,0-22.563,0-22.563s8.45,4.4,9.233,0c1.31-7.359-10.528-17.722-12.437-19.338.022-6.541.479-15.812,1.049-24.231.636,18.051,4.1,23.42,5.446,24.014,1.67.736,5.107-3.681,3.929-17.635a36.306,36.306,0,0,0-8.238-20.44c.153-1.54.3-2.868.433-3.919.3-2.329.953-9.47,1.493-18.966,1.353,14.844,4.556,26.989,7.444,19.467,2.815-7.332-4.536-21.36-7.115-25.917.3-6.621.508-13.98.51-21.455,2.148,7.338,11.566,21.134,12.742,13.24,1.156-7.764-10.536-15.843-12.763-17.3-.067-6.4-.3-12.79-.784-18.791,2.614,6.049,10.589,18.44,11.535,11.751,1.081-7.637-12.289-19.361-12.289-19.361l-.02.029a79.621,79.621,0,0,0-3.1-14.873,64.34,64.34,0,0,0-3.127-7.619c4.942,4.369,12.5,8.255,12.2,3.7-.33-4.948-11.961-8.95-15.67-10.1-.127-.238-.212-.337-.265-.335-1.329-2.131-2.729-4.142-4.154-6.034h-1.622A82.121,82.121,0,0,1,3425.61,669.256Z" transform="translate(-3412.666 -662.468)"/><path class="g" d="M3403.012,682.14c3.69,2.71,2.339-10.82,1.113-19.672h-3.606C3399.853,669.866,3399.694,679.7,3403.012,682.14Z" transform="translate(-3400.132 -662.468)"/></g><g transform="translate(44.627)"><path class="g" d="M3398.714,681.379c4.9-.895.5-10.541-6.413-18.911h-7.236C3388.714,671.178,3394.261,682.192,3398.714,681.379Z" transform="translate(-3366.617 -662.468)"/><path class="g" d="M3350.8,662.468h-7.417c-3.8,6.182-6.678,13.8-4.092,20.623C3342.94,692.731,3347.861,675.425,3350.8,662.468Z" transform="translate(-3338.3 -662.468)"/><path class="h" d="M3361.451,662.468h-1.229c.316,2.861.657,6.036,1.014,9.471-2.969,7.634-18.131,47.921-10.906,56.564,7.99,9.558,10.836-39.373,10.836-39.373l.421-13.781c1.21,11.887,2.546,26.38,3.6,41.342-2.748,2.95-14.114,15.954-9.383,24.509,4.4,7.959,8.288-14.047,9.543-22.208.675,9.9,1.218,19.952,1.51,29.549-2.9,1.758-15.151,9.7-11.791,16.626,3.253,6.712,10.012-8.184,11.9-12.631.137,5.882.17,11.553.071,16.866-3.171,1.943-17.364,10.993-13.857,15.309,3.941,4.85,12.04-8.136,12.04-8.136s-6.348,33.243.554,29.677,2.292-31.67,2.511-32.383l-.118-.9c.135-4.369.17-9.015.124-13.852,1.281,4.279,3.756,11.406,5.247,8.337,1.755-3.61-3.6-10.977-5.32-13.193-.13-6.594-.4-13.47-.755-20.421,2.492,8.2,7.7,20.057,10.344,14.5,2.966-6.234-8.181-22.358-11.037-26.322-.664-10.214-1.481-20.328-2.323-29.68,3.5,11.953,14.925,37.243,18.614,28.612,3.842-8.988-15.954-37.144-19.95-42.684C3362.519,672.36,3361.952,667.022,3361.451,662.468Z" transform="translate(-3344.415 -662.468)"/></g><path class="h" d="M3246.836,672.084c2.993,10.406,8.908,27.956,14.714,27.752,7.831-.276-3.347-23.042-14.878-33.656-.021-.737-.042-1.422-.063-2.067a35.482,35.482,0,0,0-5.552,1.763c-6.572,5.965-17.7,18.44-14.286,30.785,4.029,14.551,14.671-20.074,17.856-31.094.156,5.157.356,12.748.511,21.908-4.7,9.386-24.288,49.981-17.252,60.519,7.972,11.94,15.842-42.04,15.842-42.04l1.5-12.757c.179,13.006.246,28.48-.01,44.366-3.84,3.317-16.767,15.474-12.461,25.452,3.924,9.1,9.934-11.977,12.4-21.717-.206,10.711-.566,21.532-1.143,31.839-3.921,1.751-17.355,8.417-14.377,16.425,2.842,7.642,11.139-6.137,14.077-11.428-.41,6.381-.91,12.517-1.517,18.251-4.3,1.928-19.927,9.394-16.54,14.615,3.918,6.04,14.178-7.086,14.178-7.086s-10.259,35.952-2.236,33.111c7.07-2.5,6.024-27.667,5.89-34.127.66-5.214,1.217-10.845,1.685-16.761,1.078,4.988,2.986,11.917,4.8,8.98,2.178-3.534-2.418-11.857-4.352-15.058.476-7.094.838-14.506,1.108-22.021,2.117,9.447,6.512,22,9.832,16.507,3.764-6.229-6.219-24.86-9.432-30.532.24-11.084.311-22.1.285-32.36,3.168,14.437,12.873,41.941,17.625,33.273,5-9.126-13.182-42.135-17.757-50.16C3247.159,685.934,3246.993,678.17,3246.836,672.084Z" transform="translate(-3225.175 -663.267)"/><path class="g" d="M3294.047,688.466c4.2,6.412,8.544-14.618,10.465-25.625.065,7.549.135,17.655.18,29.359-2.593,3.469-10.628,15.014-9.507,23.567,1.088,8.3,7.284-8.993,9.532-15.652.015,6.114.022,12.565.016,19.241-3.248,3.678-11.094,13.652-7.35,20.424,3.031,5.483,5.783-5.38,7.34-13.665-.016,7.6-.05,15.428-.106,23.324-3.926,4.1-14.841,16.761-10.856,27.283,3.535,9.338,8.441-10.383,10.812-21.589-.072,8.417-.172,16.864-.305,25.15-2.154,4.7-10,22.685-5.706,26.562,2.323,2.1,4.142-2.314,5.339-8.033-.185,7.727-.407,15.158-.674,22.114-2.864,2.471-14.691,13.213-13.316,20.939.859,4.824,10.133,0,10.133,0s-7.6,26.414,0,24.763c5.388-1.17,5.046-23.914,4.391-37.053q.169-3.625.319-7.464c1.123,5.5,3.029,9.484,5.186,6.119,3.793-5.918-3.23-19.963-4.641-22.655.2-7.232.362-14.78.494-22.49,2.916,7.4,14.008,25.069,15.279,16.079,1.222-8.641-11.866-21.33-15.149-24.359.11-7.674.191-15.446.251-23.169,2.105,5.848,9.292,24.576,14.653,23.6,6.219-1.135-4.781-18.46-14.643-24.925.056-7.573.091-15.089.109-22.407.02.193.039.381.064.586.591,4.964,7.217,23.705,10.168,17.5s-10.168-23.676-10.168-23.676a1.105,1.105,0,0,0-.054.156c.01-7.069.006-13.913-.008-20.4,2.087,6.874,9.384,22.127,11.721,17.011,2.219-4.857-8.173-19.285-11.74-24.013-.031-9.384-.081-17.835-.132-24.884,2.476,7.067,9.983,26.524,12.278,19.474,2.445-7.514-9.544-21.961-12.322-25.172-.005-.693-.011-1.364-.017-2.018h-5.958C3295.708,670.967,3290.564,683.153,3294.047,688.466Z" transform="translate(-3264.305 -662.468)"/></g><rect class="i" width="546.604" height="7.447" transform="translate(966.522 138.567)"/><g transform="translate(1020.045 481.395)"><path class="j" d="M2554.063,1791.234l-6.487-.034c.856-36.889,1.61-92.911.18-96.054a1.18,1.18,0,0,0,.431.423l5.264-1.79c.851.558,1.365.9,1.542,16.581.091,8.073.057,19.222-.1,33.136C2554.617,1767.181,2554.068,1791,2554.063,1791.234Z" transform="translate(-2418.936 -1503.865)"/><path class="j" d="M2539.421,1882.449h-43.76c-2.016,0-3.65,2.131-3.65,4.757h0a.754.754,0,0,0,.638.832h49.783a.754.754,0,0,0,.638-.832h0C2543.071,1884.58,2541.437,1882.449,2539.421,1882.449Z" transform="translate(-2385.292 -1595.529)"/><path class="j" d="M2549.588,1873.325h-5.361c-1.586,0-2.872,1.675-2.872,3.742h0c0,2.068,1.286,3.743,2.872,3.743h5.361c1.585,0,2.871-1.675,2.871-3.743h0C2552.459,1875,2551.173,1873.325,2549.588,1873.325Z" transform="translate(-2415.169 -1591.096)"/><path class="k" d="M2499.682,1355.61a57.4,57.4,0,0,1,3.172-21.811,13.989,13.989,0,0,1,12.65-9.392c15.815-.027,17.826,27.207,27.893,37.713,3.077,3.21,6.514,5.824,9.425,9.286,10.749,12.782,5.907,36.443-3.962,47.649-6.849,7.776-17.612,12.195-26.054,6.116-4.406-3.173-7.751-8.448-10.134-14.227-3.382-8.2-5.562-17.667-7.967-26.408C2502.144,1375.23,2500,1365.544,2499.682,1355.61Z" transform="translate(-2389.913 -1324.407)"/><path class="l" d="M2374.361,1497.494l34.414-12.506s7.25-12.694,16.578-29.723c3.05,3.933,4.745,9.979,7.817,13.875l-22.78,32.841a3.991,3.991,0,0,1-3.214,1.868l-31.625.137-10.822,1.124v-9.027Z" transform="translate(-2308.221 -1387.984)"/><path class="m" d="M2497.106,1482.319s11.811-15.784,14.851-22.642-2.07-2.394-7.288-4.2c-1.976-.684-1.476-15.778-5.212-10.871-6.129,8.049-13.835,22.124-13.835,22.124Z" transform="translate(-2381.422 -1382.331)"/><path class="n" d="M2525.437,1431.4s10.6-2.727,15.437,2.54-1.036,52.1-1.032,59.859,3.321,29.7,3.321,29.7-32.127,7.329-37.23-4.324c0,0-1.451-44.4-1.236-49.983s4.98-28.418,6.3-30.863S2525.437,1431.4,2525.437,1431.4Z" transform="translate(-2392.959 -1376.045)"/><path class="o" d="M2542.67,1390.208s.056.413.156,1.116c.481,3.372,2.333,14.558,3.583,17.633,1.511,3.716-5.175,15.569-11.61,14.122-1.916-.431,1.619-10.891,1.449-12-.325-2.121-.766-5.014-1.217-7.982-.254-1.673-.512-3.37-.754-4.965-.688-4.533-1.25-8.239-1.25-8.239Z" transform="translate(-2410.127 -1356.225)"/><path class="p" d="M2542.826,1391.324c-.1-.7-.156-1.116-.156-1.116l-9.643-.312s.562,3.706,1.25,8.239c.241,1.586.5,3.273.75,4.937a8.437,8.437,0,0,0,4.6-3,16.734,16.734,0,0,0,3.487-6.747C2543,1392.531,2542.9,1391.847,2542.826,1391.324Z" transform="translate(-2410.127 -1356.225)"/><path class="o" d="M2526.633,1335.022a7.693,7.693,0,0,1,7.394,4.11c2.848,4.792,5.919,19.613-1.158,27.672s-14.07-1.063-15.107-10.735S2516.323,1334.673,2526.633,1335.022Z" transform="translate(-2400.579 -1329.548)"/><path class="k" d="M2539.73,1331.832s6.073,14.094,10.416,14.746,4.914,8.14,4.914,8.14-1.553-17.257-5.854-20.585A12.754,12.754,0,0,0,2539.73,1331.832Z" transform="translate(-2414.186 -1327.942)"/><path class="o" d="M2563.107,1363.783c-.353,2.5.358,4.8,1.587,5.127s2.512-1.434,2.866-3.937-.357-4.8-1.587-5.126S2563.461,1361.279,2563.107,1363.783Z" transform="translate(-2428.286 -1341.606)"/><g transform="translate(0 142.902)"><path class="l" d="M2459.654,1810.06s9.752,15.239,9.816,16.565-.387,15.8-1.548,17.126-4.567,2.265-3.471,3.757c.828,1.128,7.2.887,11.417.584,1.232-.088,2.777-12.9,3.265-14.785.709-2.735,2.432-8.9,1.788-10.8a14.373,14.373,0,0,0-3.932-4.619c-2.227-1.875-10.742-17.316-10.742-17.316Z" transform="translate(-2365.699 -1698.651)"/><path class="q" d="M2482.135,1834.074s-6.549,24.03-9.112,25.19c-.68.308-3.946,1.09-4.562,2.973a10.563,10.563,0,0,0,0,2.461h13.648s1.727-10.588,2.409-15.239c0,0,2.636-11.316,2.235-12.349S2482.135,1834.074,2482.135,1834.074Z" transform="translate(-2370.982 -1714.927)"/><path class="o" d="M2259.777,1826.347s-7.964,14.613-7.263,19.235c.375,2.476,2.046,5.714,1.087,8.045s-2.054,2.911-2.054,2.911l-24.841.522c-1.354.028-.459-1.1.632-2.148,1.786-1.708,3.227-2.836,8.932-6.426.372-.234,1.726-1.354,2.215-1.742a19.656,19.656,0,0,0,3.553-4.083c1.784-2.583,9.627-23.631,9.627-23.631Z" transform="translate(-2224.233 -1707.618)"/><path class="q" d="M2235.741,1872.242c6.57,2.193,11.426.7,14.143-.722.7,2.583,1.629,5.823,1.136,7.69-.6,2.288-1.462,2.805-2.22,2.831-6,.205-21.981.485-26.557.562-.639.011-.991-.96-.581-1.6C2222.8,1879.242,2235.252,1872.632,2235.741,1872.242Z" transform="translate(-2221.487 -1733.121)"/><path class="r" d="M2363.97,1630.926s9.862,14.668,12.376,16.992S2403,1708.168,2403,1708.168l-8.6,8.182s-21.572-35.056-31.7-53.806c-8.566-15.855-5.411-14.849-10.448-24.5-2.773-5.313-2.145-12.5,1.512-16.808q.682-.8,1.486-1.679c7.457-8.1,58.566-17.215,58.566-17.215l32.69,4.173s-26.709,24.411-27.706,25.06-36.884,7.47-37.632,7.47S2363.97,1630.926,2363.97,1630.926Z" transform="translate(-2299.622 -1602.342)"/><path class="j" d="M2406.578,1609.686s5.608,21.925-2.8,32.156-58.379,9.094-74.827,9.094c0,0-6.729,24.037-7.476,27.934s-33.4,54.244-33.4,54.244l-8.972-7.471s35.14-89,37.881-92.9,41.869-19.489,51.588-23.062S2406.578,1609.686,2406.578,1609.686Z" transform="translate(-2256.374 -1605.138)"/></g><path class="o" d="M2422.643,1494.569l29.839-8.6s10.792-18.071,21.155-33.624c3.05,3.934,4.745,9.979,7.817,13.875l-22.781,32.84a3.989,3.989,0,0,1-3.213,1.869l-31.625.137-10.822,1.124v-9.027Z" transform="translate(-2337.457 -1386.563)"/><path class="m" d="M2545.388,1475.44s11.811-15.784,14.85-22.642.785-18.347-4.434-20.151-21.9,27.208-21.9,27.208Z" transform="translate(-2410.657 -1376.956)"/><g transform="translate(20.673 63.736)"><path class="r" d="M2277.1,1448.37h49.211a3.329,3.329,0,0,1,2.969,2.6l15.153,48.167h27.131a1.622,1.622,0,0,1,1.374,1.788h0a1.624,1.624,0,0,1-1.374,1.79h-77.216c-2.123,0-4.048-1.625-4.918-4.149l-15.257-44.3C2273.223,1451.5,2274.777,1448.37,2277.1,1448.37Z" transform="translate(-2273.891 -1448.37)"/><path class="s" d="M2349.093,1498.514c.332,2.164,1.78,3.611,3.234,3.231s2.362-2.439,2.03-4.6-1.781-3.61-3.235-3.231S2348.76,1496.351,2349.093,1498.514Z" transform="translate(-2319.385 -1470.466)"/></g><path class="s" d="M2534.086,1386.086l6.668-.45s-.022,3.311-2.95,3.619A3.24,3.24,0,0,1,2534.086,1386.086Z" transform="translate(-2410.768 -1354.155)"/><path class="t" d="M2475.2,1654.573l3.011-16.335c2.105-11.426,9.868-19.738,18.877-20.213l38.136-2.01,1.178-5.06-39.469,2.079c-10.713.565-19.944,10.449-22.448,24.036l-3.2,17.359C2472.371,1654.489,2473.692,1654.536,2475.2,1654.573Z" transform="translate(-2372.743 -1463.625)"/><path class="u" d="M2511.784,1588s-52.4,1.169-57.858,0-7.827,7.757-6.2,12.433,6.115,6.481,12.719,6.906,61.554,2.444,63.1.531c1.266-1.562,17.924-75.788,23.985-102.933,1.211-5.425-1.178-11.094-5.338-12.685h0c-4.14-1.583-8.486,1.478-9.738,6.859Z" transform="translate(-2358.172 -1405.749)"/></g><path class="i" d="M2487.313,1731.349h5.928l-12.773-174.485h-5.929Z" transform="translate(-1354.677 -955.95)"/><path class="i" d="M2370.122,1731.349h-5.929l12.774-174.485h5.928Z" transform="translate(-1288.296 -955.95)"/><g transform="translate(1145.853 141.056)"><path class="v" d="M2690.255,794.439v-4.672h-63.182v4.672H2557c0,11.417,7.1,20.673,15.862,20.673h169.2c8.76,0,15.861-9.256,15.861-20.673Z" transform="translate(-2548.885 -724.315)"/><path class="w" d="M2745.473,719.9v-57.43h-2.384V719.9H2545.737v-57.43h-2.385V719.9h-6.929V740.57h217.164V719.9Z" transform="translate(-2536.424 -662.468)"/></g><g transform="translate(527.088 141.056)"><path class="v" d="M1139.06,794.439v-4.672h-63.182v4.672h-70.07c0,11.417,7.1,20.673,15.861,20.673h169.2c8.76,0,15.862-9.256,15.862-20.673Z" transform="translate(-997.69 -724.315)"/><path class="w" d="M1194.277,719.9v-57.43h-2.384V719.9H994.542v-57.43h-2.385V719.9h-6.929V740.57h217.164V719.9Z" transform="translate(-985.228 -662.468)"/></g><g transform="translate(1635.202 510.417)"><path class="h" d="M3813.626,1571.792c-.423-4.877-.927-9.865-2.664-14.218-2.111-5.292-5.822-9.111-9.063-13.317a79.7,79.7,0,0,1-13.515-28.077c-2.164-8.146-3.242-16.825-6.223-24.519-1.82-4.7-4.3-8.9-6.37-13.417-4.887-10.682-7.547-23.307-14.174-32.248-1.275,10.84,1.245,22.344,6.718,30.664,1.632,2.48,3.525,4.718,4.768,7.557,2.257,5.154,2.052,11.443,2.316,17.37a94.379,94.379,0,0,0,7,31.924c4.347,10.406,10.623,19.672,12.948,31.131,1.742,8.587,1.225,18.218,4.938,25.661a7.529,7.529,0,0,1,.962,2.57,7.248,7.248,0,0,1-.073,1.614q-.124,1.037-.249,2.074c-.845,7.028-1.718,15.971,2.916,21.231,3.211,3.645,7.345,3.727,9.651-1.115,2.322-4.876,2.116-12.011,1.944-17.5C3815.165,1590.038,3814.415,1580.875,3813.626,1571.792Z" transform="translate(-3761.291 -1412.502)"/><path class="g" d="M3875.433,1534.49c-1.8-8.135-4.6-15.884-6-24.153-1.36-8.02-1.371-16.312-1.375-24.528q-.007-13.5-.015-27a132.3,132.3,0,0,0-.718-16.765c-1.529-11.892-6.271-22.887-7.074-34.9-.347-5.195.056-10.445-.382-15.628a30.456,30.456,0,0,0-1.885-8.609c-1.131-2.826-4.255-2.7-5.28.193-2.3,6.5-3.764,13.535-2.833,20.5.558,4.181,1.947,8.079,2.984,12.1,4.619,17.908,2.167,37.731,5.74,56.042,1.079,5.527,2.71,10.948,2.9,16.646.454,13.639-7.361,26.1-6.644,39.716.587,11.167,6.747,20.407,9.333,31.079,1.447,5.974,1.757,12.35,3.308,18.28,1.2,4.607,4.006,10.2,8.358,8.8,4.132-1.326,2.884-5.722,2.7-9.919C3877.92,1562.142,3878.508,1548.363,3875.433,1534.49Z" transform="translate(-3814.753 -1380.852)"/><path class="h" d="M3912.184,1549.613c-.182-4.228-.73-8.478-.276-12.67.383-3.54,1.464-6.877,2.236-10.307,1.447-6.428,1.806-13.175,2.156-19.86q.956-18.229,1.911-36.455c.99-18.889,1.986-37.832,4.7-56.431.752-5.164,1.6-10.759-.184-15.473-.375-.994-1.114-2.048-1.924-1.717-.577.235-.86,1.063-1.069,1.8-5.924,20.979-8.162,43.569-14.774,64.2-1.583,4.941-3.426,9.8-4.246,15.051-.984,6.3-.444,12.812-.316,19.242a117.079,117.079,0,0,1-2.461,27.379c-1.022,4.639-2.391,9.173-2.951,13.943-.7,5.95-.112,12.008.325,18,.841,11.518,1.125,23.1.852,34.67-.161,6.8,4.243,6.62,7.16,2.443,2.04-2.921,2.021-6.128,2.72-9.764C3908.333,1571.724,3912.74,1562.557,3912.184,1549.613Z" transform="translate(-3842.047 -1388.521)"/><path class="g" d="M3828.807,1693.219c-3.894-8.155-11.651-12.791-14.14-21.835-.633-2.3-.88-4.776-1.654-7-1.719-4.947-5.625-7.742-9.466-10.017-.534-.316-1.14.187-1.148.952h0a4.033,4.033,0,0,0,1.2,3.054,20.825,20.825,0,0,1,6.209,11.037c1.186,5.3.671,11.111,2.146,16.286,1.238,4.345,3.786,7.9,4.983,12.26,1.094,3.99.979,8.349,1.494,12.533s1.94,8.625,4.888,10.395C3833.989,1727.287,3831.323,1698.488,3828.807,1693.219Z" transform="translate(-3786.182 -1513.69)"/><path class="h" d="M3952.093,1673.277c-.166,3.942.3,8.076-.887,11.709a37.672,37.672,0,0,1-3.238,6.265c-3.927,7.239-5.35,17.494-11.384,21.568a1.683,1.683,0,0,1-1.283.4c-.618-.15-1.023-.926-1.271-1.681-1.479-4.491.181-9.551,1.163-14.27a4.5,4.5,0,0,0,.014-2.5c-.332-.834-1.09-1.2-1.606-1.853-1.031-1.306-.934-3.468-.729-5.325.512-4.64,1.23-9.24,2.152-13.77a28.705,28.705,0,0,1,2.262-7.366,29.951,29.951,0,0,1,4.765-6.146c7.512-8.423,13.267-19.494,16.488-31.721.7-2.647,1.319-5.442,2.759-7.515s4.008-3.14,5.761-1.531c1.248,1.144-3.864,11.862-4.459,13.147-1.7,3.672-1.726,6.868-2.688,10.946C3957.553,1653.625,3952.544,1662.57,3952.093,1673.277Z" transform="translate(-3865.105 -1496.439)"/><path class="g" d="M3930.06,1644.349a60.019,60.019,0,0,0,2.609-11.574c.409-4.452-.133-9,.451-13.423.75-5.681,3.291-10.677,4.549-16.2.909-3.99,1.131-8.182,1.677-12.283,1.561-11.728,5.791-23.188,4.576-34.985-.264-2.566-1.152-5.557-3.106-5.994-1.769-.4-3.379,1.711-3.839,3.977s-.116,4.655.01,6.993a35.561,35.561,0,0,1-3.968,18.515c-2.779,5.125-6.811,8.984-9.312,14.348-3.067,6.58-3.485,14.611-5.05,22.039-3.114,14.77-10.92,27.654-12.344,42.86-.566,6.051.524,13.406,4.808,15.823C3923.512,1681.433,3927.253,1653.811,3930.06,1644.349Z" transform="translate(-3849.019 -1462.953)"/><path class="v" d="M3863.535,1770.116H3835.1c-1.944,0-3.379,2.371-2.929,4.841l10.367,56.977c.323,1.772,1.535,3.023,2.929,3.023h34.162c1.4,0,2.607-1.251,2.929-3.023l10.367-56.977c.449-2.47-.985-4.841-2.929-4.841Z" transform="translate(-3804.157 -1569.974)"/></g><g transform="translate(1317.825 461.469)"><path class="x" d="M3120.229,1285.652H2977.606c-3.495,0-6.328,3.693-6.328,8.248v111.234c0,3.2,1.621,5.786,3.62,5.786h61.211v22.828h-36.265c-2.708,0-4.9,2.862-4.9,6.393h107.174c0-3.531-2.2-6.393-4.905-6.393h-36.265V1410.92h61.994c2,0,3.62-2.591,3.62-5.786V1293.9C3126.557,1289.344,3123.724,1285.652,3120.229,1285.652Z" transform="translate(-2969.349 -1285.652)"/><path class="r" d="M3142.092,1548.182h-36.265v-26.994h-24.834v26.994h-36.265c-2.708,0-4.9,2.862-4.9,6.392H3147C3147,1551.044,3144.8,1548.182,3142.092,1548.182Z" transform="translate(-3010.854 -1400.086)"/><path class="r" d="M3135.123,1389.77V1293.9c0-4.555-2.833-8.248-6.328-8.248H2986.172c-3.495,0-6.328,3.693-6.328,8.248v95.87Z" transform="translate(-2974.536 -1285.652)"/><path class="r" d="M2979.844,1488.156v15.363c0,3.2,1.621,5.786,3.62,5.786H3131.5c2,0,3.62-2.591,3.62-5.786v-15.363Z" transform="translate(-2974.536 -1384.038)"/><path class="t" d="M3137.067,1389.542V1298.09c0-2.4-1.544-4.34-3.45-4.34H2992.509c-1.906,0-3.45,1.943-3.45,4.34v91.452Z" transform="translate(-2980.115 -1289.586)"/><rect class="y" width="268.936" height="17.584" transform="translate(0 204.764)"/><rect class="r" width="2.654" height="159.35" transform="translate(236.068 154.58)"/><rect class="r" width="2.654" height="158.385" transform="translate(266.279 155.546)"/><rect class="r" width="2.654" height="159.35" transform="translate(0 154.58)"/><rect class="r" width="2.654" height="159.35" transform="translate(37.866 154.58)"/><rect class="y" width="268.936" height="5.997" transform="translate(0 154.58)"/><rect class="y" width="40.52" height="5.997" transform="translate(0 154.58)"/><rect class="z" width="40.52" height="17.584" transform="translate(0 204.764)"/><g transform="translate(68.794 96.924)"><path class="o" d="M3189.93,1534.472l27.229-8.624s9.63-16.834,18.905-31.349c2.853,3.532,4.5,9.032,7.368,12.527l-20.407,30.671a3.705,3.705,0,0,1-2.918,1.791l-28.991.907Z" transform="translate(-3170.539 -1484.042)"/><g transform="translate(0 48.612)"><path class="o" d="M3141.645,1574.106c-.285-.573.43-1.547.968-2.277.6-.808,4.2-2.837,4.812-3.082s5.864.721,7.875,1.579a5.555,5.555,0,0,0,3.335.506c.527-.141,1.32-.329,1.935-.495l1.26,6.111c-4.719-.078-9.653.38-10.1.366-1.418-.047-4.016-1.982-4.618-2.266a3.355,3.355,0,0,0-2.643.442c-.821.5-3.21,1.693-3.61,1.416S3141.645,1574.106,3141.645,1574.106Z" transform="translate(-3140.774 -1568.709)"/></g><path class="m" d="M3185,1569.148l-1.158.285v8.527s1.033.367,1.158.245S3185,1569.148,3185,1569.148Z" transform="translate(-3166.849 -1520.31)"/><path class="s" d="M3239.472,1474.178c-4.9-.962-25.69,41.016-25.69,41.016l-27.67,7.607v9.527l30.242-1.6c.042-.011.076-.025.121-.035a11.678,11.678,0,0,0,6.479-4.426c6.3-8.928,20.377-29.165,22.111-34.3C3247.306,1485.318,3244.367,1475.141,3239.472,1474.178Z" transform="translate(-3168.227 -1474.162)"/></g><g transform="translate(146.083 32.063)"><path class="o" d="M3359.754,1430.29l5.434,18.041s-7.11,11.53-12.47,11.071c-4.5-.384-2.819-8.42-2.819-8.42s.561-10.628-1.015-15.659S3359.754,1430.29,3359.754,1430.29Z" transform="translate(-3343.992 -1387.987)"/><path class="aa" d="M3359.083,1436.41a34.575,34.575,0,0,1-9.173,6.407,32.381,32.381,0,0,0-1.027-7.494c-.728-2.321,1.532-3.571,4.177-4.245a66.584,66.584,0,0,1,6.694-.788l1.045,3.467A9.316,9.316,0,0,1,3359.083,1436.41Z" transform="translate(-3343.992 -1387.987)"/><path class="o" d="M3359.711,1375.255c.357-.1.122,21.866-5.108,27.139s-14.254,5.906-16.841.751c-2.861-5.7.122-28.9,7.875-33.973S3359.711,1375.255,3359.711,1375.255Z" transform="translate(-3336.696 -1357.651)"/><path class="ab" d="M3356.927,1348.373a20.189,20.189,0,0,1,9.359,8.669c2.418.724,5.563,2.89,8.17,10.413,3.206,9.25-1.085,18.327-6.6,22.272a12.5,12.5,0,0,0-5.56,9.288l-1.594-5.277s.5-5.138,2.071-8.088-1.925-5.587-2.661-8.346c-.566-2.125-.051-6.714-.924-10.217,0,0-4.369-5.524-7.867-6.194C3345.361,1359.752,3350.181,1345.6,3356.927,1348.373Z" transform="translate(-3343.917 -1348.013)"/></g><path class="ab" d="M3363.658,1378.467a10.981,10.981,0,0,1,.418,5.391c-.573,2.705-4.752,21.015-3.533,23.13s8.841,6.249,8.841,6.249l3.431-15.01-3.547-20.943Z" transform="translate(-3204.918 -1330.171)"/><path class="ac" d="M3371.553,1376.087s5.7-11.164,6.873-16.008a3.535,3.535,0,0,1,2.714.989c.957,1.129-3.551,14.764-5.861,20.078Z" transform="translate(-3211.719 -1321.809)"/><g transform="translate(70.561 90.014)"><g transform="translate(77.822 189.647)"><path class="o" d="M3346.028,1842.652l-3.5-13.076h9.168c.477,8.393.655,14.057.655,14.057l2.33,8.6,2.367,10.217s-7.8,2.619-11.888-.325l.454-10.17Z" transform="translate(-3342.526 -1829.576)"/><path class="r" d="M3349.655,1873.017c3.6,2.088,7.471.829,9.029.162l.518,1.818,1.984,8.622s-7.9,2.553-11.987-.39Z" transform="translate(-3346.567 -1850.682)"/></g><g transform="translate(0 86.582)"><path class="o" d="M3179.365,1848.007s2.549,7.881.431,11.144-10.928,6.476-12.083,8.244a5.914,5.914,0,0,0-1.068,3.273l24.732-.915-.276-9.7-2.279-14.619Z" transform="translate(-3158.206 -1734.215)"/><path class="r" d="M3172.4,1874.571s6.357,3.332,9.426,1.35,2.976-2.528,3.864-1.792,1.214,9.83,1.214,9.83l-27.81,1.1c-1.936-.056-2.915-1.9-1.344-3.492a22.335,22.335,0,0,1,3.03-2.346C3162.955,1877.594,3172.4,1874.571,3172.4,1874.571Z" transform="translate(-3152.348 -1748.005)"/><path class="q" d="M3210.715,1629.169c-2.77-.988-60.721,13.589-65.417,30.251-.764,2.711,8.49,45.606,20.362,86.581l12.611-2.526s-1.595-41.957-12.424-70.584c6.394,2.071,40.938-7.213,47.267-14.564C3221.188,1648.948,3213.483,1630.157,3210.715,1629.169Z" transform="translate(-3145.254 -1629.121)"/></g><path class="q" d="M3281.483,1721.145s17.772,47.764,20.632,56.513a114.785,114.785,0,0,1,3.666,13.122h11.142s-4.3-54.588-11.545-69.634S3281.483,1721.145,3281.483,1721.145Z" transform="translate(-3227.742 -1584)"/><g transform="translate(19.858)"><path class="r" d="M3300.784,1460.725l43.794.426c3.346.032,5.636,3.1,5.118,6.852l-16.479,119.125c-.519,3.752-3.652,6.766-7,6.734l-43.795-.426c-3.345-.033-5.636-3.1-5.117-6.852l16.479-119.126C3294.306,1463.707,3297.438,1460.692,3300.784,1460.725Z" transform="translate(-3245.027 -1460.724)"/><path class="u" d="M3203.513,1585.612h32.3l17.16-118.93a7.226,7.226,0,0,1,6.947-5.956h43.8a5.048,5.048,0,0,1,5.166,5.956l-18.6,128.554a7.227,7.227,0,0,1-6.948,5.957h-79.827a7.791,7.791,0,1,1,0-15.58Z" transform="translate(-3195.592 -1460.725)"/></g><rect class="j" width="4.579" height="73.495" transform="translate(76.271 213.962) rotate(180)"/><path class="j" d="M3315.79,1884.436h-45.5c-2.1,0-3.8,2.215-3.8,4.947h0a.784.784,0,0,0,.664.864h51.764a.784.784,0,0,0,.663-.864h0C3319.585,1886.651,3317.886,1884.436,3315.79,1884.436Z" transform="translate(-3218.666 -1666.582)"/><path class="j" d="M3326.362,1876.867h-5.574c-1.649,0-2.985,1.742-2.985,3.892h0c0,2.149,1.336,3.892,2.985,3.892h5.574c1.649,0,2.985-1.743,2.985-3.892h0C3329.348,1878.609,3328.011,1876.867,3326.362,1876.867Z" transform="translate(-3249.734 -1662.905)"/></g><g transform="translate(8.943 4.164)"><path class="n" d="M3015.709,1293.75h-23.2c-1.905,0-3.45,1.943-3.45,4.34v91.452h26.651Z" transform="translate(-2989.058 -1293.75)"/></g><g class="c" transform="translate(11.629 12.249)"><path class="ad" d="M3005.976,1316.063c0,3.638-2.263,6.587-5.053,6.587s-5.054-2.949-5.054-6.587,2.263-6.587,5.054-6.587S3005.976,1312.425,3005.976,1316.063Z" transform="translate(-2995.868 -1309.476)"/></g><g class="c" transform="translate(11.629 32.097)"><path class="ad" d="M3005.976,1354.665c0,3.638-2.263,6.587-5.053,6.587s-5.054-2.95-5.054-6.587,2.263-6.587,5.054-6.587S3005.976,1351.027,3005.976,1354.665Z" transform="translate(-2995.868 -1348.078)"/></g><g class="c" transform="translate(11.629 51.944)"><path class="ad" d="M3005.976,1393.267c0,3.637-2.263,6.587-5.053,6.587s-5.054-2.95-5.054-6.587,2.263-6.588,5.054-6.588S3005.976,1389.629,3005.976,1393.267Z" transform="translate(-2995.868 -1386.68)"/></g><g class="c" transform="translate(11.629 71.791)"><path class="ad" d="M3005.976,1431.869c0,3.637-2.263,6.587-5.053,6.587s-5.054-2.949-5.054-6.587,2.263-6.587,5.054-6.587S3005.976,1428.231,3005.976,1431.869Z" transform="translate(-2995.868 -1425.282)"/></g><g class="c" transform="translate(22.566 20.812)"><path class="ad" d="M3033.968,1327.038h-10.03a.47.47,0,0,1,0-.907h10.03a.47.47,0,0,1,0,.907Z" transform="translate(-3023.59 -1326.131)"/></g><g class="c" transform="translate(22.566 17.767)"><path class="ad" d="M3030.963,1321.115h-7.025a.47.47,0,0,1,0-.907h7.025a.469.469,0,0,1,0,.907Z" transform="translate(-3023.59 -1320.208)"/></g><g class="c" transform="translate(22.566 40.059)"><path class="ad" d="M3033.968,1364.472h-10.03a.47.47,0,0,1,0-.907h10.03a.47.47,0,0,1,0,.907Z" transform="translate(-3023.59 -1363.565)"/></g><g class="c" transform="translate(22.566 37.014)"><path class="ad" d="M3030.963,1358.55h-7.025a.47.47,0,0,1,0-.907h7.025a.47.47,0,0,1,0,.907Z" transform="translate(-3023.59 -1357.643)"/></g><g class="c" transform="translate(22.566 59.307)"><path class="ad" d="M3033.968,1401.907h-10.03a.47.47,0,0,1,0-.908h10.03a.47.47,0,0,1,0,.908Z" transform="translate(-3023.59 -1401)"/></g><g class="c" transform="translate(22.566 56.262)"><path class="ad" d="M3030.963,1395.985h-7.025a.47.47,0,0,1,0-.907h7.025a.469.469,0,0,1,0,.907Z" transform="translate(-3023.59 -1395.078)"/></g><g class="c" transform="translate(22.566 78.554)"><path class="ad" d="M3033.968,1439.342h-10.03a.469.469,0,0,1,0-.907h10.03a.47.47,0,0,1,0,.907Z" transform="translate(-3023.59 -1438.435)"/></g><g class="c" transform="translate(22.566 75.509)"><path class="ad" d="M3030.963,1433.42h-7.025a.469.469,0,0,1,0-.907h7.025a.469.469,0,0,1,0,.907Z" transform="translate(-3023.59 -1432.513)"/></g><path class="n" d="M3169.323,1322.344h-93.593a.953.953,0,0,1-.806-1.05h0a.953.953,0,0,1,.806-1.05h93.593a.953.953,0,0,1,.806,1.05h0A.953.953,0,0,1,3169.323,1322.344Z" transform="translate(-3032.108 -1302.458)"/><path class="n" d="M3112.843,1334.2h-37.112a.953.953,0,0,1-.806-1.05h0a.952.952,0,0,1,.806-1.049h37.112a.952.952,0,0,1,.806,1.049h0A.953.953,0,0,1,3112.843,1334.2Z" transform="translate(-3032.108 -1308.217)"/><path class="n" d="M3146.682,1369.951h-70.951a.952.952,0,0,1-.806-1.049h0a.952.952,0,0,1,.806-1.05h70.951a.952.952,0,0,1,.805,1.05h0A.952.952,0,0,1,3146.682,1369.951Z" transform="translate(-3032.108 -1325.589)"/><path class="n" d="M3132.246,1407.726h-56.516a.953.953,0,0,1-.806-1.051h0a.953.953,0,0,1,.806-1.05h56.516a.953.953,0,0,1,.806,1.05h0A.953.953,0,0,1,3132.246,1407.726Z" transform="translate(-3032.108 -1343.94)"/><path class="n" d="M3151.635,1444.572h-75.9a.953.953,0,0,1-.806-1.05h0a.953.953,0,0,1,.806-1.05h75.9a.952.952,0,0,1,.805,1.05h0A.952.952,0,0,1,3151.635,1444.572Z" transform="translate(-3032.108 -1361.842)"/><path class="n" d="M3169.323,1359.464h-93.593a.953.953,0,0,1-.806-1.05h0a.953.953,0,0,1,.806-1.051h93.593a.953.953,0,0,1,.806,1.051h0A.952.952,0,0,1,3169.323,1359.464Z" transform="translate(-3032.108 -1320.493)"/><path class="n" d="M3169.323,1396.9h-93.593a.952.952,0,0,1-.806-1.05h0a.953.953,0,0,1,.806-1.05h93.593a.952.952,0,0,1,.806,1.05h0A.952.952,0,0,1,3169.323,1396.9Z" transform="translate(-3032.108 -1338.681)"/><path class="n" d="M3169.323,1434.334h-93.593a.953.953,0,0,1-.806-1.049h0a.953.953,0,0,1,.806-1.051h93.593a.953.953,0,0,1,.806,1.051h0A.952.952,0,0,1,3169.323,1434.334Z" transform="translate(-3032.108 -1356.868)"/><g transform="translate(145.291 65.182)"><path class="i" d="M3337.266,1418.662a5.858,5.858,0,0,1-2.578-.666l.138-.482c4.865,2.385,7.044-2.755,7.759-4.444.189-.445.247-.576.339-.643l.192.448-.1-.225.121.2a5.061,5.061,0,0,0-.21.465C3342.314,1414.775,3340.667,1418.661,3337.266,1418.662Z" transform="translate(-3334.688 -1412.428)"/></g><path class="i" d="M3335.925,1422.45a1.106,1.106,0,0,1-1.517.78,1.516,1.516,0,0,1-1.026-1.651,1.106,1.106,0,0,1,1.517-.781A1.518,1.518,0,0,1,3335.925,1422.45Z" transform="translate(-3188.591 -1351.275)"/><path class="ae" d="M3364.281,1393.558c.77,4.548-1.434,9.05-4.924,10.054s-6.943-1.869-7.714-6.417,1.435-9.05,4.924-10.054S3363.51,1389.01,3364.281,1393.558Z" transform="translate(-3199.571 -1334.862)"/><path class="v" d="M3362.373,1393.979c.771,4.55-1.434,9.05-4.924,10.054s-6.943-1.869-7.713-6.417,1.434-9.05,4.924-10.054S3361.6,1389.432,3362.373,1393.979Z" transform="translate(-3198.415 -1335.068)"/><path class="i" d="M3363.744,1397.7c.478,2.822-.89,5.615-3.055,6.238s-4.308-1.16-4.786-3.982.89-5.615,3.055-6.238S3363.267,1394.873,3363.744,1397.7Z" transform="translate(-3202.185 -1338.093)"/><path class="af" d="M3357.409,1399.521c-.421-2.486.591-4.948,2.319-5.924a3.134,3.134,0,0,0-.769.12c-2.165.623-3.533,3.416-3.055,6.238s2.62,4.6,4.786,3.982a3.444,3.444,0,0,0,.737-.313C3359.544,1403.684,3357.831,1402.007,3357.409,1399.521Z" transform="translate(-3202.185 -1338.097)"/></g><g transform="translate(411.187 461.469)"><g transform="translate(108.349)"><path class="x" d="M1117.918,1285.652H975.3c-3.5,0-6.328,3.693-6.328,8.248v111.234c0,3.2,1.621,5.786,3.62,5.786H1033.8v22.828H997.533c-2.709,0-4.9,2.862-4.9,6.393H1099.8c0-3.531-2.2-6.393-4.9-6.393h-36.266V1410.92h61.994c2,0,3.62-2.591,3.62-5.786V1293.9C1124.246,1289.344,1121.412,1285.652,1117.918,1285.652Z" transform="translate(-968.967 -1285.652)"/><path class="r" d="M1132.812,1389.77V1293.9c0-4.555-2.833-8.248-6.329-8.248H983.861c-3.495,0-6.328,3.693-6.328,8.248v95.87Z" transform="translate(-974.154 -1285.652)"/><path class="r" d="M977.533,1488.156v15.363c0,3.2,1.621,5.786,3.62,5.786h148.039c2,0,3.62-2.591,3.62-5.786v-15.363Z" transform="translate(-974.154 -1384.038)"/><path class="t" d="M1134.756,1389.542V1298.09c0-2.4-1.545-4.34-3.45-4.34H990.2c-1.905,0-3.45,1.943-3.45,4.34v91.452Z" transform="translate(-979.733 -1289.586)"/><path class="n" d="M1167.012,1322.344H1073.42a.953.953,0,0,1-.806-1.05h0a.953.953,0,0,1,.806-1.05h93.593a.953.953,0,0,1,.806,1.05h0A.953.953,0,0,1,1167.012,1322.344Z" transform="translate(-1031.726 -1302.458)"/><path class="n" d="M1110.532,1334.2H1073.42a.953.953,0,0,1-.806-1.05h0a.952.952,0,0,1,.806-1.049h37.112a.952.952,0,0,1,.806,1.049h0A.953.953,0,0,1,1110.532,1334.2Z" transform="translate(-1031.726 -1308.217)"/><path class="n" d="M1144.371,1369.951H1073.42a.952.952,0,0,1-.806-1.049h0a.952.952,0,0,1,.806-1.05h70.951a.952.952,0,0,1,.806,1.05h0A.952.952,0,0,1,1144.371,1369.951Z" transform="translate(-1031.726 -1325.589)"/><path class="n" d="M1129.935,1407.726H1073.42a.953.953,0,0,1-.806-1.051h0a.953.953,0,0,1,.806-1.05h56.515a.953.953,0,0,1,.806,1.05h0A.953.953,0,0,1,1129.935,1407.726Z" transform="translate(-1031.726 -1343.94)"/><path class="n" d="M1149.324,1444.572h-75.9a.953.953,0,0,1-.806-1.05h0a.953.953,0,0,1,.806-1.05h75.9a.952.952,0,0,1,.806,1.05h0A.952.952,0,0,1,1149.324,1444.572Z" transform="translate(-1031.726 -1361.842)"/><path class="n" d="M1167.012,1359.464H1073.42a.952.952,0,0,1-.806-1.05h0a.953.953,0,0,1,.806-1.051h93.593a.953.953,0,0,1,.806,1.051h0A.952.952,0,0,1,1167.012,1359.464Z" transform="translate(-1031.726 -1320.493)"/><path class="n" d="M1167.012,1396.9H1073.42a.952.952,0,0,1-.806-1.05h0a.952.952,0,0,1,.806-1.05h93.593a.952.952,0,0,1,.806,1.05h0A.952.952,0,0,1,1167.012,1396.9Z" transform="translate(-1031.726 -1338.681)"/><path class="n" d="M1167.012,1434.334H1073.42a.952.952,0,0,1-.806-1.049h0a.953.953,0,0,1,.806-1.051h93.593a.953.953,0,0,1,.806,1.051h0A.952.952,0,0,1,1167.012,1434.334Z" transform="translate(-1031.726 -1356.868)"/><path class="r" d="M1139.781,1548.182h-36.265v-26.994h-24.834v26.994h-36.265c-2.708,0-4.9,2.862-4.9,6.392h107.174C1144.686,1551.044,1142.49,1548.182,1139.781,1548.182Z" transform="translate(-1010.471 -1400.086)"/><g transform="translate(7.014 4.164)"><path class="n" d="M1013.4,1293.75H990.2c-1.905,0-3.45,1.943-3.45,4.34v91.452H1013.4Z" transform="translate(-986.747 -1293.75)"/></g><g class="c" transform="translate(9.701 12.249)"><path class="ad" d="M1003.665,1316.063c0,3.638-2.263,6.587-5.054,6.587s-5.054-2.949-5.054-6.587,2.263-6.587,5.054-6.587S1003.665,1312.425,1003.665,1316.063Z" transform="translate(-993.557 -1309.476)"/></g><g class="c" transform="translate(9.701 32.097)"><path class="ad" d="M1003.665,1354.665c0,3.638-2.263,6.587-5.054,6.587s-5.054-2.95-5.054-6.587,2.263-6.587,5.054-6.587S1003.665,1351.027,1003.665,1354.665Z" transform="translate(-993.557 -1348.078)"/></g><g class="c" transform="translate(9.701 51.944)"><path class="ad" d="M1003.665,1393.267c0,3.637-2.263,6.587-5.054,6.587s-5.054-2.95-5.054-6.587,2.263-6.588,5.054-6.588S1003.665,1389.629,1003.665,1393.267Z" transform="translate(-993.557 -1386.68)"/></g><g class="c" transform="translate(9.701 71.791)"><path class="ad" d="M1003.665,1431.869c0,3.637-2.263,6.587-5.054,6.587s-5.054-2.949-5.054-6.587,2.263-6.587,5.054-6.587S1003.665,1428.231,1003.665,1431.869Z" transform="translate(-993.557 -1425.282)"/></g><g class="c" transform="translate(20.636 20.812)"><path class="ad" d="M1031.656,1327.038h-10.03a.47.47,0,0,1,0-.907h10.03a.469.469,0,0,1,0,.907Z" transform="translate(-1021.278 -1326.131)"/></g><g class="c" transform="translate(20.636 17.767)"><path class="ad" d="M1028.651,1321.115h-7.026a.47.47,0,0,1,0-.907h7.026a.47.47,0,0,1,0,.907Z" transform="translate(-1021.278 -1320.208)"/></g><g class="c" transform="translate(20.636 40.059)"><path class="ad" d="M1031.656,1364.472h-10.03a.47.47,0,0,1,0-.907h10.03a.47.47,0,0,1,0,.907Z" transform="translate(-1021.278 -1363.565)"/></g><g class="c" transform="translate(20.636 37.014)"><path class="ad" d="M1028.651,1358.55h-7.026a.47.47,0,0,1,0-.907h7.026a.47.47,0,0,1,0,.907Z" transform="translate(-1021.278 -1357.643)"/></g><g class="c" transform="translate(20.636 59.307)"><path class="ad" d="M1031.656,1401.907h-10.03a.47.47,0,0,1,0-.908h10.03a.47.47,0,0,1,0,.908Z" transform="translate(-1021.278 -1401)"/></g><g class="c" transform="translate(20.636 56.262)"><path class="ad" d="M1028.651,1395.985h-7.026a.47.47,0,0,1,0-.907h7.026a.47.47,0,0,1,0,.907Z" transform="translate(-1021.278 -1395.078)"/></g><g class="c" transform="translate(20.636 78.554)"><path class="ad" d="M1031.656,1439.342h-10.03a.469.469,0,0,1,0-.907h10.03a.469.469,0,0,1,0,.907Z" transform="translate(-1021.278 -1438.435)"/></g><g class="c" transform="translate(20.636 75.509)"><path class="ad" d="M1028.651,1433.42h-7.026a.469.469,0,0,1,0-.907h7.026a.469.469,0,0,1,0,.907Z" transform="translate(-1021.278 -1432.513)"/></g></g><rect class="y" width="268.936" height="17.584" transform="translate(268.936 222.348) rotate(180)"/><rect class="r" width="2.654" height="159.35" transform="translate(32.868 313.93) rotate(180)"/><rect class="r" width="2.654" height="158.385" transform="translate(2.657 313.93) rotate(180)"/><rect class="r" width="2.654" height="159.35" transform="translate(268.936 313.93) rotate(180)"/><rect class="r" width="2.654" height="159.35" transform="translate(231.07 313.93) rotate(180)"/><rect class="y" width="268.936" height="5.997" transform="translate(268.936 160.577) rotate(180)"/><rect class="z" width="40.52" height="5.997" transform="translate(268.936 160.577) rotate(180)"/><rect class="z" width="40.52" height="17.584" transform="translate(268.936 222.348) rotate(180)"/><g transform="translate(7.557 129.156)"><rect class="m" width="55.725" height="25.425"/><rect class="ag" width="55.725" height="0.428" transform="translate(0 4.655)"/><rect class="ag" width="55.725" height="0.428" transform="translate(0 8.85)"/><rect class="ag" width="55.725" height="0.428" transform="translate(0 13.044)"/><rect class="ag" width="55.725" height="0.428" transform="translate(0 17.239)"/><path class="ag" d="M783.1,1554.493s26.219,2.932,29.505,6.614a26.037,26.037,0,0,0-1.249-7.041l-8.214.405Z" transform="translate(-755.631 -1545.215)"/><rect class="ag" width="55.725" height="0.428" transform="translate(0 21.412)"/><path class="ah" d="M726.734,1536.852v25.425H713.47v-25.425Z" transform="translate(-713.47 -1536.852)"/></g><g transform="translate(2.264 103.731)"><rect class="m" width="55.725" height="25.425" transform="translate(56.973 25.425) rotate(180)"/><rect class="ag" width="55.725" height="0.428" transform="translate(56.973 5.083) rotate(180)"/><rect class="ag" width="55.725" height="0.428" transform="translate(56.973 9.277) rotate(180)"/><rect class="ag" width="55.725" height="0.428" transform="translate(56.973 13.472) rotate(180)"/><rect class="ag" width="55.725" height="0.428" transform="translate(56.973 17.667) rotate(180)"/><path class="ag" d="M729.556,1505.042s-26.219,2.932-29.5,6.613a26.02,26.02,0,0,1,1.249-7.041l8.214.407Z" transform="translate(-700.051 -1495.765)"/><rect class="ag" width="55.725" height="0.428" transform="translate(56.973 21.84) rotate(180)"/><path class="ah" d="M810.85,1487.4v25.424h13.264V1487.4Z" transform="translate(-767.141 -1487.403)"/></g><g transform="translate(97.456 208.152)"><rect class="j" width="4.579" height="95.824" transform="translate(24.648)"/><path class="j" d="M945.149,1884.436h45.5c2.1,0,3.795,2.215,3.795,4.947h0a.784.784,0,0,1-.664.864H942.018a.784.784,0,0,1-.664-.864h0C941.354,1886.651,943.053,1884.436,945.149,1884.436Z" transform="translate(-941.354 -1784.72)"/><path class="j" d="M998.345,1876.867h5.574c1.649,0,2.986,1.742,2.986,3.892h0c0,2.149-1.337,3.892-2.986,3.892h-5.574c-1.649,0-2.986-1.743-2.986-3.892h0C995.359,1878.609,996.7,1876.867,998.345,1876.867Z" transform="translate(-974.054 -1781.043)"/></g><path class="ai" d="M13.427,3.348c-.523-.6-1.54-.365-2.278-.078V1.291c0-.437-.017-.868-.045-1.291H.045C.016.423,0,.854,0,1.291V5.313c0,5.682,2.508,10.331,5.575,10.331,1.66,0,3.156-1.365,4.18-3.517v0s2.631-1.2,3.457-3.018S14.3,4.352,13.427,3.348Zm-.584,3.719A3.607,3.607,0,0,1,10.69,9.4,17.73,17.73,0,0,0,11.135,6c.382-.969.985-1.536,1.427-1.387C12.957,4.748,13.2,5.374,12.843,7.067Z" transform="translate(214.36 138.654)"/></g><rect class="j" width="4.354" height="83" transform="translate(782.427 680.977)"/><g transform="translate(765.117 620.263)"><path class="o" d="M1795.069,1834.944s.952,12.955.326,17.179a19.322,19.322,0,0,1-.484,2.071c-.645,2.368,1.122,9.6,1.122,9.6l23.7.109c1.291.005.427-1.014-.623-1.949-1.719-1.531-3.1-2.539-8.576-5.727-.357-.208-1.659-1.21-2.128-1.557a18,18,0,0,1-3.426-3.669c-1.725-2.329-1.987-13.745-1.987-13.745Z" transform="translate(-1711.155 -1711.317)"/><path class="v" d="M1806.523,1872.884c-6.245,2.1-10.89.809-13.494-.449-.645,2.364-1.858,10.36-1.134,10.36,5.942,0,10.971,1.4,28,1.067.61-.012.535-2.62.138-3.2C1818.931,1879.076,1806.994,1873.233,1806.523,1872.884Z" transform="translate(-1709.279 -1729.531)"/><path class="o" d="M1863.515,1791.282s5.183,11.294,6.021,15.461a20.1,20.1,0,0,1,.25,2.135c.2,2.489,4.219,8.155,4.219,8.155l21.594-12.156c1.176-.663.052-1.143-1.215-1.451-2.074-.5-3.669-.705-9.711-.775-.394,0-1.912-.242-2.455-.315a14.006,14.006,0,0,1-4.339-1.567c-2.345-1.228-6.388-11.478-6.388-11.478Z" transform="translate(-1752.781 -1689.136)"/><path class="v" d="M1891.844,1814.374c-4.984,5.136-9.639,6.367-12.427,6.569.2,2.485,1.762,10.387,2.42,10.012,5.406-3.073,10.448-4.4,25.827-13.507.55-.326-.386-2.661-.94-2.98C1905.195,1813.589,1892.388,1814.447,1891.844,1814.374Z" transform="translate(-1762.41 -1701.174)"/><path class="j" d="M1619.845,1600.2v6.657l50.235,13.163,12.469,46.663-6.949-5.91,1.6,71.855-10.566.092s-18.308-60.287-12.3-90.607l-55.6,1.06s-25.2-12.122-12.2-48.675Z" transform="translate(-1582.814 -1594.496)"/><path class="r" d="M1676.685,1618.536s52.113.436,55.813,3.986,31.473,91.79,31.473,91.79l-12.113,5.635s-24.1-50.06-25.373-53.63-10.609-29.676-14.171-32.339S1676.685,1618.536,1676.685,1618.536Z" transform="translate(-1639.654 -1606.176)"/></g><path class="j" d="M1569.309,1881.208h43.268c1.993,0,3.608,2.105,3.608,4.7h0a.746.746,0,0,1-.631.823h-49.224a.747.747,0,0,1-.631-.823h0C1565.7,1883.314,1567.316,1881.208,1569.309,1881.208Z" transform="translate(-807.819 -1113.531)"/><path class="j" d="M1619.9,1874.011h5.3c1.568,0,2.839,1.657,2.839,3.7h0c0,2.044-1.271,3.7-2.839,3.7h-5.3c-1.568,0-2.839-1.657-2.839-3.7h0C1617.056,1875.667,1618.327,1874.011,1619.9,1874.011Z" transform="translate(-838.873 -1110.034)"/><path class="l" d="M1706.135,1497.931l-34.028-12.365s-7.169-12.552-16.393-29.389c-3.016,3.889-4.692,9.867-7.729,13.719l22.525,32.473a3.944,3.944,0,0,0,3.177,1.846l31.27.136,10.7,1.112v-8.926Z" transform="translate(-857.24 -907.032)"/><path class="m" d="M1647.288,1482.927s-11.679-15.606-14.684-22.388,2.047-2.365,7.207-4.15c1.954-.676,1.46-15.6,5.154-10.749,6.061,7.958,13.679,21.875,13.679,21.875Z" transform="translate(-847.619 -901.442)"/><path class="s" d="M1602.216,1432.579s-10.48-2.7-15.263,2.512,1.025,51.511,1.02,59.186-3.284,29.363-3.284,29.363,31.766,7.246,36.812-4.277c0,0,1.436-43.9,1.222-49.421s-4.923-28.1-6.225-30.516S1602.216,1432.579,1602.216,1432.579Z" transform="translate(-819.292 -895.228)"/><path class="o" d="M1622.951,1391.851s-.055.408-.155,1.1c-.475,3.333-2.306,14.394-3.542,17.435-1.495,3.674,5.116,15.394,11.479,13.964,1.894-.426-1.6-10.768-1.433-11.864.321-2.1.757-4.958,1.2-7.892.252-1.654.506-3.333.746-4.909.681-4.482,1.236-8.147,1.236-8.147Z" transform="translate(-840.057 -875.629)"/><path class="aj" d="M1628.117,1392.954c.1-.695.155-1.1.155-1.1l9.534-.309s-.556,3.665-1.236,8.147c-.238,1.568-.491,3.236-.742,4.881a8.348,8.348,0,0,1-4.552-2.969,16.541,16.541,0,0,1-3.448-6.671C1627.946,1394.146,1628.044,1393.471,1628.117,1392.954Z" transform="translate(-845.358 -875.629)"/><path class="o" d="M1658.395,1495.039l-29.5-8.508s-10.67-17.867-20.917-33.247c-3.016,3.891-4.692,9.868-7.729,13.72l22.525,32.472a3.948,3.948,0,0,0,3.177,1.847l31.27.135,10.7,1.111v-8.926Z" transform="translate(-828.526 -905.626)"/><path class="m" d="M1598.853,1476.126s-11.678-15.607-14.684-22.388-.776-18.141,4.383-19.925,21.656,26.9,21.656,26.9Z" transform="translate(-818.208 -896.128)"/><g transform="translate(796.103 545.64)"><path class="r" d="M1755.846,1449.359h-48.658a3.293,3.293,0,0,0-2.935,2.567l-14.982,47.625h-26.826a1.605,1.605,0,0,0-1.358,1.769h0a1.6,1.6,0,0,0,1.358,1.769h76.349c2.1,0,4-1.605,4.862-4.1l15.086-43.8C1759.683,1452.452,1758.147,1449.359,1755.846,1449.359Z" transform="translate(-1661.086 -1449.359)"/><path class="s" d="M1826.792,1498.94c-.329,2.139-1.761,3.569-3.2,3.2s-2.336-2.412-2.007-4.552,1.76-3.57,3.2-3.2S1827.121,1496.8,1826.792,1498.94Z" transform="translate(-1758.229 -1471.207)"/></g><path class="u" d="M1521.407,1587.417s51.807,1.156,57.208,0,7.739,7.67,6.126,12.293-6.046,6.409-12.576,6.829-60.862,2.416-62.394.525c-1.251-1.544-17.722-74.936-23.715-101.776-1.2-5.364,1.164-10.97,5.277-12.542h0c4.094-1.567,8.392,1.461,9.629,6.782Z" transform="translate(-759.527 -924.598)"/><path class="i" d="M1761.648,1731.349h5.928L1754.8,1556.864h-5.928Z" transform="translate(-918.139 -955.95)"/><path class="i" d="M1644.458,1731.349h-5.929l12.774-174.485h5.928Z" transform="translate(-851.759 -955.95)"/><path class="y" d="M2.6,0H367.669a2.6,2.6,0,0,1,2.6,2.6V8.26a2.6,2.6,0,0,1-2.6,2.6H2.6A2.6,2.6,0,0,1,0,8.26V2.6A2.6,2.6,0,0,1,2.6,0Z" transform="translate(1149.494 610.157) rotate(180)"/><path class="ab" d="M1604.915,1316.928c1.671,5.6-.457,11.905-4.754,14.083s-9.134-.6-10.806-6.2.457-11.9,4.754-14.083S1603.244,1311.328,1604.915,1316.928Z" transform="translate(-821.844 -836.007)"/><path class="ak" d="M1600.04,1335.559a6.617,6.617,0,0,0,6.936.531c4.3-2.178,6.425-8.484,4.754-14.083a12.578,12.578,0,0,0-.581-1.564c-.261.1-.523.2-.785.313C1604.77,1323.2,1601.145,1329.019,1600.04,1335.559Z" transform="translate(-828.632 -841.085)"/><path class="ab" d="M1633.718,1344.444c-1.559,9.768-6.089,15.517-13.433,15.06s-13.662-7.908-14.172-17.8c-.592-11.472,6.641-21.717,16.247-21.118S1635.524,1333.122,1633.718,1344.444Z" transform="translate(-832.2 -841.141)"/><path class="o" d="M1630.359,1329.537s-4.1.741-7.072,5.74-6.173,20.455,1.207,28.859,14.673-1.109,15.754-11.194S1641.111,1329.173,1630.359,1329.537Z" transform="translate(-840.589 -845.501)"/><path class="ab" d="M1628.234,1329.387s-9.638,14.421-14.168,15.1-5.125,8.49-5.125,8.49,1.619-18,6.1-21.468S1628.234,1329.387,1628.234,1329.387Z" transform="translate(-833.958 -845.306)"/><path class="o" d="M1618.414,1361.891c.368,2.61-.373,5-1.655,5.347s-2.621-1.5-2.989-4.106.372-5,1.655-5.347S1618.045,1359.281,1618.414,1361.891Z" transform="translate(-836.864 -859.208)"/><path class="s" d="M1649.114,1384.754l-6.995-.571s-.006,3.476,3.065,3.842C1648.928,1388.473,1649.114,1384.754,1649.114,1384.754Z" transform="translate(-853.967 -872.054)"/><g transform="translate(775.778 479.357)"><path class="ac" d="M1632.511,1320.486s-10.293-1.634-12.218,15.067l1.348.935S1622.108,1322.46,1632.511,1320.486Z" transform="translate(-1616.615 -1320.443)"/><g transform="translate(4.844 27.091)"><path class="i" d="M1627.624,1381.214l.056-.772c-3.752-1.07-4.04-5.853-4.038-7.293l-.2-.016-.2.014C1623.246,1374.286,1623.453,1380.023,1627.624,1381.214Z" transform="translate(-1623.247 -1373.133)"/></g><path class="i" d="M1632.874,1387.13a1.2,1.2,0,0,0,.99,1.19c.623.163,1.19-.1,1.266-.6a1.2,1.2,0,0,0-.99-1.19C1633.517,1386.37,1632.95,1386.637,1632.874,1387.13Z" transform="translate(-1624.227 -1352.529)"/><g transform="translate(0 15.111)"><ellipse class="ae" cx="3.679" cy="6.977" rx="3.679" ry="6.977" transform="translate(0.55)"/><path class="al" d="M1610.969,1356.809c0,3.854,1.647,6.977,3.678,6.977s3.679-3.123,3.679-6.977-1.647-6.976-3.679-6.976S1610.969,1352.956,1610.969,1356.809Z" transform="translate(-1610.969 -1349.833)"/><path class="i" d="M1614.351,1359.385c0,2.349,1,4.253,2.242,4.253s2.242-1.9,2.242-4.253-1-4.251-2.242-4.251S1614.351,1357.037,1614.351,1359.385Z" transform="translate(-1613.017 -1352.408)"/><path class="af" d="M1621.553,1359.385c0-2.217-.9-4.036-2.037-4.232a1.187,1.187,0,0,1,.2-.019c1.238,0,2.242,1.9,2.242,4.251s-1,4.253-2.242,4.253a1.188,1.188,0,0,1-.2-.02C1620.658,1363.421,1621.553,1361.6,1621.553,1359.385Z" transform="translate(-1616.144 -1352.408)"/></g></g><g transform="translate(1145.355 481.395)"><path class="ac" d="M2538.565,1324.451s10.293-1.634,12.218,15.068l-1.348.934S2548.968,1326.425,2538.565,1324.451Z" transform="translate(-2538.565 -1324.407)"/><g transform="translate(6.62 27.091)"><path class="i" d="M2555.4,1385.178l-.056-.772c3.752-1.07,4.04-5.853,4.039-7.293l.2-.016.2.014C2559.78,1378.251,2559.573,1383.989,2555.4,1385.178Z" transform="translate(-2555.346 -1377.098)"/></g><path class="i" d="M2553.468,1391.1a1.2,1.2,0,0,1-.99,1.19c-.623.163-1.19-.105-1.266-.6a1.2,1.2,0,0,1,.99-1.189C2552.825,1390.334,2553.392,1390.6,2553.468,1391.1Z" transform="translate(-2546.218 -1356.494)"/><g transform="translate(7.989 15.112)"><path class="ae" d="M2566.175,1360.775c0,3.853-1.647,6.976-3.678,6.976s-3.679-3.124-3.679-6.976,1.647-6.977,3.679-6.977S2566.175,1356.921,2566.175,1360.775Z" transform="translate(-2558.817 -1353.798)"/><ellipse class="al" cx="3.679" cy="6.977" rx="3.679" ry="6.977" transform="translate(0.55)"/><path class="i" d="M2568.6,1363.349c0,2.349-1,4.253-2.242,4.253s-2.242-1.9-2.242-4.253,1-4.251,2.242-4.251S2568.6,1361,2568.6,1363.349Z" transform="translate(-2562.023 -1356.373)"/><path class="af" d="M2564.522,1363.349c0-2.217.9-4.036,2.038-4.232a1.132,1.132,0,0,0-.2-.02c-1.238,0-2.242,1.9-2.242,4.251s1,4.253,2.242,4.253a1.254,1.254,0,0,0,.2-.02C2565.417,1367.386,2564.522,1365.567,2564.522,1363.349Z" transform="translate(-2562.023 -1356.373)"/></g></g><g transform="translate(1522.252 514.445)"><path class="q" d="M3543,1571.413h0a1.136,1.136,0,0,1-.961-1.252v-5.532a1.136,1.136,0,0,1,.961-1.251h0a1.136,1.136,0,0,1,.96,1.251v5.532A1.136,1.136,0,0,1,3543,1571.413Z" transform="translate(-3519.022 -1471.984)"/><g transform="translate(22.102)"><path class="am" d="M3551.681,1392.51c-1.605-2.741-3.406-4.256-5.353-4.5-3-.379-5.394,2.345-5.417,2.372l-1.2-1.757c.121-.141,3.012-3.429,6.787-2.953,2.465.31,4.69,2.131,6.612,5.413Z" transform="translate(-3539.715 -1385.624)"/></g><path class="q" d="M3522.262,1390.274l-4.79,6.243a5.406,5.406,0,0,0,0,6.242h0a2.865,2.865,0,0,0,4.79,0l4.789-6.243a5.4,5.4,0,0,0,0-6.242h0A2.864,2.864,0,0,0,3522.262,1390.274Z" transform="translate(-3503.544 -1387.255)"/><path class="aj" d="M3488.939,1401.388l17.522,22.837c4.839-6.306,4.839-16.531,0-22.837S3493.778,1395.082,3488.939,1401.388Z" transform="translate(-3486.868 -1390.985)"/><g transform="translate(31.924 3.743)"><path class="q" d="M3582.185,1443.063l-17.572-46.651,5.485-3.509,17.572,46.652Zm-15.054-45.531,15.914,42.25,2.108-1.348-15.914-42.251Z" transform="translate(-3564.613 -1392.903)"/></g><g transform="translate(37.527 50.785)"><path class="q" d="M3584.6,1536.153l-5.782-2.573L3591.7,1484.4l5.782,2.573Zm-3.394-4.1,2.222.989,11.67-44.542-2.222-.989Z" transform="translate(-3578.817 -1484.398)"/></g><path class="an" d="M3503.741,1430.127h0a.8.8,0,0,1-1.336,0l-18.439-24.032a1.506,1.506,0,0,1,0-1.741h0a.8.8,0,0,1,1.335,0l18.44,24.032A1.51,1.51,0,0,1,3503.741,1430.127Z" transform="translate(-3483.689 -1394.548)"/><path class="aj" d="M3614.51,1483.165c0,3.207-1.994,5.806-4.454,5.806s-4.455-2.6-4.455-5.806,1.994-5.806,4.455-5.806S3614.51,1479.958,3614.51,1483.165Z" transform="translate(-3557.508 -1430.193)"/><path class="am" d="M3516.578,1570.833H3545.8c3.371,0,6.1,3.561,6.1,7.953h-41.43C3510.475,1574.394,3513.207,1570.833,3516.578,1570.833Z" transform="translate(-3499.908 -1475.607)"/></g><g transform="translate(963.083 567.72)"><rect class="m" width="69.194" height="31.57" transform="translate(70.744 31.57) rotate(180)"/><rect class="ag" width="69.194" height="0.531" transform="translate(70.744 6.311) rotate(180)"/><rect class="ag" width="69.194" height="0.532" transform="translate(70.744 11.52) rotate(180)"/><rect class="ag" width="69.194" height="0.531" transform="translate(70.744 16.728) rotate(180)"/><rect class="ag" width="69.194" height="0.532" transform="translate(70.744 21.937) rotate(180)"/><path class="ag" d="M2117,1514.207s-32.557,3.64-36.637,8.212c0,0,.2-5.421,1.551-8.743l10.2.5Z" transform="translate(-2080.367 -1502.687)"/><rect class="ag" width="69.194" height="0.532" transform="translate(70.744 27.119) rotate(180)"/><path class="ah" d="M2217.947,1492.3v31.57h16.47V1492.3Z" transform="translate(-2163.673 -1492.303)"/></g><rect class="aj" width="1469.523" height="3.956" transform="translate(256.451 773.6)"/><g transform="translate(1465.741 351.688)"><path class="n" d="M3349.189,1072.135h86.243c4.556,0,8.248,4.829,8.248,10.787V1154.1c0,5.957-3.692,10.786-8.248,10.786h-58.191c-4.2,7.669-11.822,21.4-12.494,21.4-.63,0,.583-12.97,1.437-21.4h-17c-4.555,0-8.249-4.829-8.249-10.786v-71.178C3340.94,1076.964,3344.633,1072.135,3349.189,1072.135Z" transform="translate(-3340.94 -1072.135)"/><path class="s" d="M3512.3,1143.3h-41.928a.3.3,0,0,0-.254.331v4.212a.3.3,0,0,0,.254.332H3512.3a.3.3,0,0,0,.255-.332v-4.212A.3.3,0,0,0,3512.3,1143.3Z" transform="translate(-3419.156 -1106.709)"/><path class="s" d="M.856,0H34.608a.858.858,0,0,1,.858.858v3.16a.857.857,0,0,1-.857.857H.857A.857.857,0,0,1,0,4.018V.856A.856.856,0,0,1,.856,0Z" transform="translate(44.96 41.464) rotate(180)"/><path class="s" d="M.856,0h45.4a.857.857,0,0,1,.857.857V4.018a.857.857,0,0,1-.857.857H.857A.857.857,0,0,1,0,4.018V.856A.856.856,0,0,1,.856,0Z" transform="translate(56.455 25.541) rotate(180)"/><path class="s" d="M.856,0H28.111a.856.856,0,0,1,.856.856V4.018a.857.857,0,0,1-.857.857H.858A.858.858,0,0,1,0,4.017V.856A.856.856,0,0,1,.856,0Z" transform="translate(93.395 25.541) rotate(180)"/><path class="s" d="M3364.629,1208.828h84.05v-4.875h-84.05Z" transform="translate(-3355.284 -1136.178)"/><rect class="s" width="39.972" height="4.875" transform="translate(93.395 57.24) rotate(180)"/><rect class="s" width="39.972" height="4.875" transform="translate(49.467 57.24) rotate(180)"/></g><g transform="translate(902.42 517.191)"><g transform="translate(33.878 32.977)"><path class="ao" d="M2029.872,1472.145s-4.434-6.741-.273-11.023c0,0,3.039-2.4,5.517-2.2,0,0-3.511,7.674-2.375,8.437s3.439-8.918,3.439-8.918,6.916-.874,9.14.52c0,0-5.912,6.306-4.667,6.681s7.631-5.813,7.631-5.813,6.437,1.428,6.094,6.544-2.561,6.7-3.536,6.562-6.676-2.973-6.8-1.932,3.308,4.443,5.712,4.6c0,0-4.538,6.522-7.553,4.64s-3.273-4.867-5.153-5.985-3.485-1.117-2.708.025,4.178,2.25,5.253,4.729,2.04,4.149-1.081,3.538-8.192-3.587-8.414-6.994Z" transform="translate(-2022.378 -1458.167)"/><g transform="translate(0 8.301)"><path class="ao" d="M2048.4,1474.352s-17.481-.878-21.342,5.638a17.492,17.492,0,0,1-3.481,6.368l-.41,1.454s3.029-4.163,4.113-4.415C2027.276,1483.4,2025.581,1475.324,2048.4,1474.352Z" transform="translate(-2019.56 -1474.312)"/><path class="ao" d="M2018.042,1497.2a15.581,15.581,0,0,0-4.013,10.079l.681.08s1.2-6.682,3.364-9.3S2018.042,1497.2,2018.042,1497.2Z" transform="translate(-2014.029 -1485.152)"/></g></g><g transform="translate(0 14.673)"><path class="ap" d="M1954.022,1446.371s7.053-5.148,3.761-12.134c0,0-2.633-4.289-5.454-5.392,0,0,1.5,10.417,0,10.662s-1.034-11.766-1.034-11.766-7.43-4.657-10.344-4.29c0,0,4.608,10.173,3.1,9.928s-6.677-10.541-6.677-10.541-7.617-1.839-8.839,4.044.752,8.824,1.881,9.192,8.369.245,8.181,1.472-5.078,3.186-7.805,2.083c0,0,3.009,9.682,6.959,9.192s5.172-3.677,7.617-3.922,4.232.613,3.009,1.471-5.36.281-7.335,2.47-3.573,3.536.094,4.516,10.25.369,11.567-3.309Z" transform="translate(-1928.151 -1422.567)"/><g transform="translate(3.865 6.155)"><path class="ao" d="M1937.949,1434.538s19.748,8.334,22.005,17.65a24.494,24.494,0,0,0,1.881,8.947v1.839s-2.069-6.251-3.2-7.109C1958.637,1455.864,1963.057,1447.775,1937.949,1434.538Z" transform="translate(-1937.949 -1434.538)"/><path class="ao" d="M1997.049,1485.185a21.325,21.325,0,0,1,1.309,13.365l-.783-.274s.761-8.082-.833-12.146S1997.049,1485.185,1997.049,1485.185Z" transform="translate(-1973.163 -1458.589)"/></g></g><g transform="translate(30.979)"><path class="ap" d="M2012.791,1425.407s-9.3-6.787-4.958-16c0,0,3.471-5.655,7.19-7.109,0,0-1.984,13.733,0,14.056s1.363-15.51,1.363-15.51,9.793-6.139,13.636-5.655c0,0-6.074,13.409-4.091,13.087s8.8-13.895,8.8-13.895,10.041-2.423,11.652,5.332-.991,11.632-2.479,12.117-11.032.323-10.784,1.939,6.694,4.2,10.289,2.746c0,0-3.967,12.764-9.173,12.118s-6.818-4.847-10.041-5.171-5.578.808-3.967,1.939,7.066.37,9.669,3.255,4.711,4.661-.124,5.954-13.512.485-15.247-4.362Z" transform="translate(-2006.68 -1394.028)"/><g transform="translate(1.202 8.113)"><path class="ao" d="M2047.374,1409.808s-26.032,10.987-29.007,23.265a32.287,32.287,0,0,1-2.479,11.794v2.423s2.727-8.24,4.215-9.37C2020.1,1437.92,2014.276,1427.257,2047.374,1409.808Z" transform="translate(-2013.457 -1409.808)"/><path class="ao" d="M2012.157,1476.571a28.108,28.108,0,0,0-1.726,17.617l1.033-.362s-1-10.652,1.1-16.011S2012.157,1476.571,2012.157,1476.571Z" transform="translate(-2009.726 -1441.511)"/></g></g><path class="aq" d="M1993.426,1530.624c10.058,0,18.211-10.626,18.211-23.736h-36.423C1975.214,1520,1983.368,1530.624,1993.426,1530.624Z" transform="translate(-1956.648 -1448.86)"/><path class="ar" d="M2001.314,1530.442a14.035,14.035,0,0,1-2.262.182c-10.058,0-18.211-10.627-18.211-23.736h4.524C1985.365,1519,1992.324,1528.99,2001.314,1530.442Z" transform="translate(-1960.055 -1448.86)"/><path class="aq" d="M2011.5,1552.634h-36.926c0-1.617,1.006-2.928,2.247-2.928h32.432c1.241,0,2.246,1.311,2.246,2.928Z" transform="translate(-1956.262 -1469.663)"/><rect class="as" width="37.436" height="0.728" transform="translate(17.967 58.028)"/></g><g transform="translate(235.735 508.52)"><path class="h" d="M3813.626,1571.792c-.423-4.877-.927-9.865-2.664-14.218-2.111-5.292-5.822-9.111-9.063-13.317a79.7,79.7,0,0,1-13.515-28.077c-2.164-8.146-3.242-16.825-6.223-24.519-1.82-4.7-4.3-8.9-6.37-13.417-4.887-10.682-7.547-23.307-14.174-32.248-1.275,10.84,1.245,22.344,6.718,30.664,1.632,2.48,3.525,4.718,4.768,7.557,2.257,5.154,2.052,11.443,2.316,17.37a94.379,94.379,0,0,0,7,31.924c4.347,10.406,10.623,19.672,12.948,31.131,1.742,8.587,1.225,18.218,4.938,25.661a7.529,7.529,0,0,1,.962,2.57,7.248,7.248,0,0,1-.073,1.614q-.124,1.037-.249,2.074c-.845,7.028-1.718,15.971,2.916,21.231,3.211,3.645,7.345,3.727,9.651-1.115,2.322-4.876,2.116-12.011,1.944-17.5C3815.165,1590.038,3814.415,1580.875,3813.626,1571.792Z" transform="translate(-3761.291 -1412.502)"/><path class="g" d="M3875.433,1534.49c-1.8-8.135-4.6-15.884-6-24.153-1.36-8.02-1.371-16.312-1.375-24.528q-.007-13.5-.015-27a132.3,132.3,0,0,0-.718-16.765c-1.529-11.892-6.271-22.887-7.074-34.9-.347-5.195.056-10.445-.382-15.628a30.456,30.456,0,0,0-1.885-8.609c-1.131-2.826-4.255-2.7-5.28.193-2.3,6.5-3.764,13.535-2.833,20.5.558,4.181,1.947,8.079,2.984,12.1,4.619,17.908,2.167,37.731,5.74,56.042,1.079,5.527,2.71,10.948,2.9,16.646.454,13.639-7.361,26.1-6.644,39.716.587,11.167,6.747,20.407,9.333,31.079,1.447,5.974,1.757,12.35,3.308,18.28,1.2,4.607,4.006,10.2,8.358,8.8,4.132-1.326,2.884-5.722,2.7-9.919C3877.92,1562.142,3878.508,1548.363,3875.433,1534.49Z" transform="translate(-3814.753 -1380.852)"/><path class="h" d="M3912.184,1549.613c-.182-4.228-.73-8.478-.276-12.67.383-3.54,1.464-6.877,2.236-10.307,1.447-6.428,1.806-13.175,2.156-19.86q.956-18.229,1.911-36.455c.99-18.889,1.986-37.832,4.7-56.431.752-5.164,1.6-10.759-.184-15.473-.375-.994-1.114-2.048-1.924-1.717-.577.235-.86,1.063-1.069,1.8-5.924,20.979-8.162,43.569-14.774,64.2-1.583,4.941-3.426,9.8-4.246,15.051-.984,6.3-.444,12.812-.316,19.242a117.079,117.079,0,0,1-2.461,27.379c-1.022,4.639-2.391,9.173-2.951,13.943-.7,5.95-.112,12.008.325,18,.841,11.518,1.125,23.1.852,34.67-.161,6.8,4.243,6.62,7.16,2.443,2.04-2.921,2.021-6.128,2.72-9.764C3908.333,1571.724,3912.74,1562.557,3912.184,1549.613Z" transform="translate(-3842.047 -1388.521)"/><path class="g" d="M3828.807,1693.219c-3.894-8.155-11.651-12.791-14.14-21.835-.633-2.3-.88-4.776-1.654-7-1.719-4.947-5.625-7.742-9.466-10.017-.534-.316-1.14.187-1.148.952h0a4.033,4.033,0,0,0,1.2,3.054,20.825,20.825,0,0,1,6.209,11.037c1.186,5.3.671,11.111,2.146,16.286,1.238,4.345,3.786,7.9,4.983,12.26,1.094,3.99.979,8.349,1.494,12.533s1.94,8.625,4.888,10.395C3833.989,1727.287,3831.323,1698.488,3828.807,1693.219Z" transform="translate(-3786.182 -1513.69)"/><path class="h" d="M3952.093,1673.277c-.166,3.942.3,8.076-.887,11.709a37.672,37.672,0,0,1-3.238,6.265c-3.927,7.239-5.35,17.494-11.384,21.568a1.683,1.683,0,0,1-1.283.4c-.618-.15-1.023-.926-1.271-1.681-1.479-4.491.181-9.551,1.163-14.27a4.5,4.5,0,0,0,.014-2.5c-.332-.834-1.09-1.2-1.606-1.853-1.031-1.306-.934-3.468-.729-5.325.512-4.64,1.23-9.24,2.152-13.77a28.705,28.705,0,0,1,2.262-7.366,29.951,29.951,0,0,1,4.765-6.146c7.512-8.423,13.267-19.494,16.488-31.721.7-2.647,1.319-5.442,2.759-7.515s4.008-3.14,5.761-1.531c1.248,1.144-3.864,11.862-4.459,13.147-1.7,3.672-1.726,6.868-2.688,10.946C3957.553,1653.625,3952.544,1662.57,3952.093,1673.277Z" transform="translate(-3865.105 -1496.439)"/><path class="g" d="M3930.06,1644.349a60.019,60.019,0,0,0,2.609-11.574c.409-4.452-.133-9,.451-13.423.75-5.681,3.291-10.677,4.549-16.2.909-3.99,1.131-8.182,1.677-12.283,1.561-11.728,5.791-23.188,4.576-34.985-.264-2.566-1.152-5.557-3.106-5.994-1.769-.4-3.379,1.711-3.839,3.977s-.116,4.655.01,6.993a35.561,35.561,0,0,1-3.968,18.515c-2.779,5.125-6.811,8.984-9.312,14.348-3.067,6.58-3.485,14.611-5.05,22.039-3.114,14.77-10.92,27.654-12.344,42.86-.566,6.051.524,13.406,4.808,15.823C3923.512,1681.433,3927.253,1653.811,3930.06,1644.349Z" transform="translate(-3849.019 -1462.953)"/><path class="v" d="M3863.535,1770.116H3835.1c-1.944,0-3.379,2.371-2.929,4.841l10.367,56.977c.323,1.772,1.535,3.023,2.929,3.023h34.162c1.4,0,2.607-1.251,2.929-3.023l10.367-56.977c.449-2.47-.985-4.841-2.929-4.841Z" transform="translate(-3804.157 -1569.974)"/></g><g transform="translate(493.047 495.696)"><g transform="translate(93.845 39.842)"><path class="at" d="M1193.548,1246.011s1.054-11.762.675-12.892-6.076-7.575-6.118-8.506,5.97-8.9,6.476-10.9,2.236,3.09,2.912,7.675,1.846,11.862,1.93,12.858-.264,14.021-.264,14.021Z" transform="translate(-1188.105 -1213.271)"/></g><path class="au" d="M1175.108,1212.81l-11.358-16.853,6.469-9.115,10.245,17.755Z" transform="translate(-1075.488 -1156.541)"/><path class="av" d="M1178.871,1214.126l-9.83-14.586,5.6-7.889,8.867,15.366Z" transform="translate(-1079.566 -1159.614)"/><path class="at" d="M1215.426,1249.9s.426-6.332-.277-9.437a22.787,22.787,0,0,1-.323-2.7l-5.959,9.1s1.882,2.8,2.76,2.975S1215.176,1253.032,1215.426,1249.9Z" transform="translate(-1110.263 -1189.074)"/><path class="at" d="M1186.987,1246.7s-3.625-3.655-3.967-4.2a48.037,48.037,0,0,1-2.629-4.433c-.665-1.445,1.982-1.089,2.75.412a4.852,4.852,0,0,0,1.988,2.257c.532.332,3.745.63,4.381,2.113S1186.987,1246.7,1186.987,1246.7Z" transform="translate(-1088.233 -1188.687)"/><path class="at" d="M1222.239,1222.468s-.432.9-.779-.141-.319-3.422.562-2.848S1222.239,1222.468,1222.239,1222.468Z" transform="translate(-1119.81 -1177.339)"/><path class="at" d="M1216.109,1214.379s-.151,1.765-.7.971-1.1-3.747-.143-3.672S1216.109,1214.379,1216.109,1214.379Z" transform="translate(-1114.797 -1172.409)"/><path class="at" d="M1209.448,1207.256s0,2.129-.631,1.516c-.478-.461-1.163-4.292-.21-4.217S1209.448,1207.256,1209.448,1207.256Z" transform="translate(-1109.694 -1167.858)"/><g transform="translate(67.908 167.878)"><rect class="aw" width="10.863" height="10.764" transform="translate(0 0)"/></g><g transform="translate(85.939 167.878)"><rect class="aw" width="10.863" height="10.764" transform="translate(0 0)"/></g><g transform="translate(81.759 71.433)"><path class="ax" d="M1135.377,1323.831s2.949,14.381,3.646,17.57,2.723,10.474,4.7,13.674a4.029,4.029,0,0,0,3.591,1.53c1.058-.092,3.969.94,6.437-7.831s4.937-38.176,5.063-39.77.506-6.08.506-6.08l-6.977-2.147s-2.845,21.474-3.255,24.44c-.311,2.249-2.49,11.5-2.616,11.795s-2.721-23.224-2.721-23.224Z" transform="translate(-1135.377 -1300.777)"/></g><g transform="translate(105.821 250.865)"><path class="ay" d="M1248.541,1804.3s4.944,13.2,7.032,15.356c2.834,2.927,1.058,5.886-.288,5.889s-8.218.776-9.733-1.93-2.266-10.819-3.674-12.94-2.863-10.554.686-12.6C1245.7,1796.258,1248.541,1804.3,1248.541,1804.3Z" transform="translate(-1240.351 -1797.804)"/></g><g transform="translate(107.796 251.131)"><g transform="translate(0 0)"><path class="az" d="M1253.04,1798.963s5.663,15.46,6.638,17.743-1.838,2.281-3.581,1.2-6.129-12.173-6.759-14.191a11.507,11.507,0,0,1-.134-5.17Z" transform="translate(-1248.965 -1798.54)"/></g></g><g transform="translate(106.133 259.872)"><g transform="translate(0 0)"><path class="ay" d="M1241.713,1822.753l1.307,15.848.693.048-.215-11.4Z" transform="translate(-1241.713 -1822.753)"/></g></g><g transform="translate(56.771 250.914)"><g transform="translate(0 0)"><path class="ay" d="M1034.575,1804.386s4.945,13.2,7.032,15.356c2.834,2.927,1.058,5.886-.288,5.889s-8.219.777-9.733-1.93-2.266-10.819-3.675-12.94-2.911-10.773.686-12.6C1031.752,1796.549,1034.575,1804.386,1034.575,1804.386Z" transform="translate(-1026.366 -1797.939)"/></g></g><g transform="translate(58.764 251.131)"><g transform="translate(0 0)"><path class="ba" d="M1039.435,1799s5.366,15.427,6.341,17.71-1.838,2.281-3.581,1.2-6.129-12.173-6.759-14.191a11.507,11.507,0,0,1-.134-5.17Z" transform="translate(-1035.064 -1798.54)"/></g></g><g transform="translate(57.102 259.872)"><g transform="translate(0 0)"><path class="ay" d="M1027.812,1822.753l1.307,15.848.692.048-.215-11.4Z" transform="translate(-1027.812 -1822.753)"/></g></g><g transform="translate(43.042 126.23)"><g transform="translate(0)"><path class="az" d="M966.476,1463.559l44.744,32.108s4.994,2.558,5.554,11.291c1.747,27.261,14.694,70.507,14.694,70.507,4.155,3.2,3.836.423,3.836.423-2.618-13.235-5.8-67.784-6.943-89.716-.24-4.645-.389-7.826-.422-8.843a5.218,5.218,0,0,0-1.331-2.656c-6.139-7.841-31.4-24.074-31.4-24.074C976.237,1451.843,966.476,1463.559,966.476,1463.559Z" transform="translate(-966.476 -1452.565)"/></g></g><g transform="translate(34.429 121.388)"><g transform="translate(0 0)"><path class="ba" d="M929.08,1468.775c1.386,19.048,18.649,16.866,18.649,16.866h20.924s-5.5,19.261-7.618,35.506c-2.252,17.242-7.561,47.747-7.561,47.747s.347,1.036,4.133.456c0,0,16.424-51.556,22.711-64.516,1.352-2.789,5.229-17.929,5.9-26.958.225-3.04.086-5.386-.634-6.339a59.378,59.378,0,0,0-4.619-4.972c-6.554-6.509-17.936-16.529-24.277-18.774-8.493-3.006-21.926-8.641-21.926-8.641S927.7,1449.728,929.08,1468.775Z" transform="translate(-928.901 -1439.151)"/></g></g><g transform="translate(55.136 164.044)"><path class="bb" d="M1026.11,1571.908h5.9a9.623,9.623,0,0,0,0-11.076c-3.921-6.175-12.772-2.353-12.772-2.353Z" transform="translate(-1019.237 -1557.31)"/></g><g transform="translate(0.048 49.831)"><path class="bb" d="M840.115,1369.86H802.941s-10.529-2.143-12.571-19.8c-3.7-32.035-11.459-109.122-11.459-109.122h43.455l19.156,116.319S849.059,1368.964,840.115,1369.86Z" transform="translate(-778.911 -1240.94)"/></g><g transform="translate(4.809 38.958)"><path class="aw" d="M860.888,1339.74H823.714s-10.529-2.143-12.571-19.8c-3.7-32.035-11.459-109.123-11.459-109.123h43.455l19.156,116.319S869.831,1338.845,860.888,1339.74Z" transform="translate(-799.684 -1210.82)"/></g><g transform="translate(37.414 122.531)"><path class="bc" d="M976.507,1487.666H957.766s-14.274,1.5-15.658-17.551,5.443-27.8,5.443-27.8,6.365,2.682,14.327,5.711a40.041,40.041,0,0,1,14.4-1.978s23.781,7.543,32.58,26.016C1008.86,1472.067,994.9,1460.976,976.507,1487.666Z" transform="translate(-941.922 -1442.318)"/></g><g transform="translate(0 38.958)"><path class="bb" d="M778.751,1221.693s-.864-10.874,4.762-10.874,12.9,68.375,9.608,92.537S778.751,1221.693,778.751,1221.693Z" transform="translate(-778.703 -1210.82)"/></g><g transform="translate(43.037 42.004)"><path class="bc" d="M1010.094,1230.34a90.869,90.869,0,0,1,3.75,19.431c.3,5.336,2.278,11.562-.591,16.879s-6.54,4.652-7.257,7.176a33.036,33.036,0,0,1-3.713,8.173c-1.1,1.4-2.405,14.237-2.785,15.583s2.056,8.372-15.885,8.671-17.155-6.467-17.155-6.467,4.813-8.24,10.372-23.764c1.714-4.789,5.861-37.05,7.949-41.535S998.292,1205.24,1010.094,1230.34Z" transform="translate(-966.454 -1219.259)"/></g><g transform="translate(76.136 41.512)"><path class="bd" d="M1110.85,1219.542s3.865,26.217,8.17,28.274c4.428,2.117.523-23.641.523-23.641S1115.111,1214.013,1110.85,1219.542Z" transform="translate(-1110.85 -1217.895)"/></g><g transform="translate(94.945 134.779)"><g transform="translate(0 0)"><path class="bd" d="M1196.454,1476.937s2.629,2.316,4.5,3.74c1.448,1.1,4.558,5.435,5.045,7.53s.707,13.062,1.061,14.122-.751,1.305-1.462-.269c0,0-1.879,2.534-3.482-1.058s-1.936-8.1-2.831-9.805-6.38-11.1-6.38-11.1S1195.14,1474.29,1196.454,1476.937Z" transform="translate(-1192.904 -1476.246)"/></g><g transform="translate(11.339 10.746)"><path class="bd" d="M1243.683,1506.017s1.27,2.846,1.543,3.779,1.433,4.541,1.718,5.4-1.083.82-3.547-4.363S1243.683,1506.017,1243.683,1506.017Z" transform="translate(-1242.371 -1506.012)"/></g></g><g transform="translate(88.998 129.653)"><path class="be" d="M1178.066,1467.576l-2.82,8.093-8.285-5.145,3.714-8.479Z" transform="translate(-1166.961 -1462.045)"/></g><g transform="translate(61.363 54.998)"><path class="be" d="M1056.713,1267.953s.949-14.255-5.063-12.56-5.245,13.656-5.186,16.048.755,30.6,1.515,35.783,1.772,15.35,4.62,18.24,29.7,17.476,29.892,17.576,2.651-7.6,2.651-7.6-18.3-13.76-20.455-15.057-7.152-5.083-7.468-7.575S1056.658,1270.145,1056.713,1267.953Z" transform="translate(-1046.402 -1255.253)"/></g><g transform="translate(80.379 29.722)"><path class="bd" d="M1129.409,1205.672c.633,6.544,5.4,9.2,5.445,6.007a8.845,8.845,0,0,1,.766-2.041v0c.13-.282.242-.526.3-.669a8.531,8.531,0,0,1,1.021-1.727,21.247,21.247,0,0,1,3.815-3.76l-6.286-18.24s-.7,1.707-1.583,4.206C1131.255,1194.075,1129,1201.418,1129.409,1205.672Z" transform="translate(-1129.36 -1185.237)"/></g><g transform="translate(84.554 42.135)"><path class="bf" d="M1149.656,1231.6c.13-.282.242-.526.3-.669a8.536,8.536,0,0,1,1.021-1.727,26.8,26.8,0,0,1-3.354-9.587S1147.04,1223.962,1149.656,1231.6Z" transform="translate(-1147.571 -1219.621)"/></g><g transform="translate(83.695 9.488)"><path class="bd" d="M1144.04,1153.63c.129,2.132.3,4.261.479,6.315q.082.955.221,1.892a24.7,24.7,0,0,0,3.353,9.585h0v0c2.278,3.508,5.384,5.152,8.652,3.095,5.968-3.756,7.11-36.334,7.11-36.334-2.855-11.978-13.4-10.255-17.182-4.847C1143.691,1137.607,1143.554,1145.639,1144.04,1153.63Z" transform="translate(-1143.827 -1129.19)"/></g><g transform="translate(96.952 3.482)"><path class="bg" d="M1203.792,1130.621s3.16,10.445,3.183,14.846a45.937,45.937,0,0,0,2.276-12.073c.045-5.5.867-14.559-4.878-20S1203.792,1130.621,1203.792,1130.621Z" transform="translate(-1201.66 -1112.553)"/></g><g transform="translate(58.73 0)"><path class="bg" d="M1076.218,1125.411s-2.155,8.773-6.871,7.92-7.876,1.792-8.142,4.933-2.636,20.2-6.8,20.633-8.086-8.705-10.219-6.24-3.635,13.946-6.927,11.718-3.646-12.4,2.388-18.253,10.62-6.92,11.966-13.017,4.571-22.615,8.754-26.715c3.1-3.039,6.879-5.654,13.689-.76s5.856,15.762,5.856,15.762Z" transform="translate(-1034.914 -1102.907)"/></g></g></g></svg>