<svg xmlns="http://www.w3.org/2000/svg" width="118.666" height="118.666" viewBox="0 0 118.666 118.666"><defs><style>.a{fill:#5fabff;stroke:#636363;stroke-miterlimit:10;stroke-width:5px;}.b{fill:#fff;}.c{fill:#636363;}.d{fill:#10afd8;}.e,.g{fill:none;}.e{stroke:#10afd8;}.f{stroke:none;}</style></defs><g transform="translate(-10)"><g transform="translate(10)"><line class="a" x1="82.559" transform="translate(17.833 55.833)"/><line class="a" y2="82.559" transform="translate(59.833 14.833)"/><circle class="b" cx="14.121" cy="14.121" r="14.121" transform="translate(45.333 42.333)"/><circle class="c" cx="2.584" cy="2.584" r="2.584" transform="translate(57.333 53.333)"/><path class="d" d="M18.864,179.715h-16A2.863,2.863,0,0,1,0,176.858v-16A2.863,2.863,0,0,1,2.863,158h16a2.863,2.863,0,0,1,2.85,2.857v16A2.863,2.863,0,0,1,18.864,179.715Z" transform="translate(0 -112.667)"/><path class="d" d="M335.831,179.7h-16a2.863,2.863,0,0,1-2.86-2.863v-16a2.863,2.863,0,0,1,2.86-2.863h16a2.863,2.863,0,0,1,2.863,2.863v16A2.863,2.863,0,0,1,335.831,179.7Z" transform="translate(-220.028 -112.647)"/><path class="d" d="M180.207,319.83v16a2.863,2.863,0,0,1-2.863,2.863h-16a2.863,2.863,0,0,1-2.863-2.863v-16a2.863,2.863,0,0,1,2.863-2.86h16A2.863,2.863,0,0,1,180.207,319.83Z" transform="translate(-110.01 -220.028)"/><path class="d" d="M180.207,2.863v16a2.863,2.863,0,0,1-2.863,2.85h-16a2.863,2.863,0,0,1-2.863-2.86V2.863A2.863,2.863,0,0,1,161.343,0h16A2.863,2.863,0,0,1,180.207,2.863Z" transform="translate(-110.01)"/><g class="e" transform="translate(48.333 45.333)"><circle class="f" cx="11" cy="11" r="11"/><circle class="g" cx="11" cy="11" r="10.5"/></g></g></g></svg>