<svg xmlns="http://www.w3.org/2000/svg" width="44.749" height="37.724" viewBox="0 0 44.749 37.724"><defs><style>.a{fill:none;stroke:#707070;stroke-width:0.5px;}</style></defs><g transform="translate(-321.125 -1142.202)"><g transform="translate(321.375 1142.452)"><g transform="translate(0)"><path class="a" d="M160.058,38.637a5.762,5.762,0,0,0-1.394-1.051,8,8,0,0,0-10.337-4.138,3.776,3.776,0,0,0-2.133-.648,3.845,3.845,0,0,0-3.593,2.5,5.948,5.948,0,0,0-3.734,3.314,5.056,5.056,0,0,0,.863,10.037H159.1a5.053,5.053,0,0,0,.962-10.015Zm-.962,9.527H139.73a4.568,4.568,0,0,1-.518-9.107,5.462,5.462,0,0,1,3.77-3.357,3.343,3.343,0,0,1,5.281-1.694,7.513,7.513,0,0,1,10.022,3.933,5.318,5.318,0,0,1,1.529,1.15,4.566,4.566,0,0,1-.719,9.075Z" transform="translate(-134.675 -32.801)"/></g></g><g transform="translate(356.757 1148.303)"><g transform="translate(0)"><g transform="translate(2.375 5.799)"><path class="a" d="M267.834,38.449v-.413h-2.647v.413a1.424,1.424,0,0,1-.622,1.161h3.888A1.426,1.426,0,0,1,267.834,38.449Z" transform="translate(-264.447 -38.036)"/><path class="a" d="M268.116,42.644H264.9a1.591,1.591,0,0,1-.339.354h3.888A1.585,1.585,0,0,1,268.116,42.644Z" transform="translate(-264.447 -41.423)"/></g><rect class="a" width="8.867" height="5.799" rx="0.504"/></g><path class="a" d="M259.2,18.57h-3.039a.147.147,0,0,0-.147.147v3.039l1.278-1.278.681-.681Z" transform="translate(-256.015 -18.57)"/><path class="a" d="M260.85,18.57h-.862l-3.973,3.973V23.4Z" transform="translate(-256.015 -18.57)"/></g><g transform="translate(356.757 1160.303)"><g transform="translate(0)"><g transform="translate(2.375 5.799)"><path class="a" d="M267.834,38.449v-.413h-2.647v.413a1.424,1.424,0,0,1-.622,1.161h3.888A1.426,1.426,0,0,1,267.834,38.449Z" transform="translate(-264.447 -38.036)"/><path class="a" d="M268.116,42.644H264.9a1.591,1.591,0,0,1-.339.354h3.888A1.585,1.585,0,0,1,268.116,42.644Z" transform="translate(-264.447 -41.423)"/></g><rect class="a" width="8.867" height="5.799" rx="0.504"/></g><path class="a" d="M259.2,18.57h-3.039a.147.147,0,0,0-.147.147v3.039l1.278-1.278.681-.681Z" transform="translate(-256.015 -18.57)"/><path class="a" d="M260.85,18.57h-.862l-3.973,3.973V23.4Z" transform="translate(-256.015 -18.57)"/></g><g transform="translate(356.757 1172.303)"><g transform="translate(0)"><g transform="translate(2.375 5.799)"><path class="a" d="M267.834,38.449v-.413h-2.647v.413a1.424,1.424,0,0,1-.622,1.161h3.888A1.426,1.426,0,0,1,267.834,38.449Z" transform="translate(-264.447 -38.036)"/><path class="a" d="M268.116,42.644H264.9a1.591,1.591,0,0,1-.339.354h3.888A1.585,1.585,0,0,1,268.116,42.644Z" transform="translate(-264.447 -41.423)"/></g><rect class="a" width="8.867" height="5.799" rx="0.504"/></g><path class="a" d="M259.2,18.57h-3.039a.147.147,0,0,0-.147.147v3.039l1.278-1.278.681-.681Z" transform="translate(-256.015 -18.57)"/><path class="a" d="M260.85,18.57h-.862l-3.973,3.973V23.4Z" transform="translate(-256.015 -18.57)"/></g><path class="a" d="M68.375,85.35v5.49h18.6" transform="translate(269.833 1072.849)"/><path class="a" d="M80.8,70.061H77.346v24.55H80.8" transform="translate(276 1081)"/><g transform="translate(-218.169 1113.605)"><path class="a" d="M554.465,50.27a.917.917,0,0,0-.908.861l-.013,0V50.27a.921.921,0,1,0-1.841,0v-.921a.921.921,0,1,0-1.841,0V45.666a.921.921,0,1,0-1.841,0v6.19a.284.284,0,0,1-.21.245.276.276,0,0,1-.3-.1c-.678-.883-.635-1.757-1.611-1.757a.638.638,0,0,0-.559.949l2.884,6.209a.461.461,0,0,0,.4.237H554a1.381,1.381,0,0,0,1.381-1.381V51.19A.923.923,0,0,0,554.465,50.27Z" transform="translate(0)"/><rect class="a" width="7.58" height="3.177" rx="1" transform="translate(547.806 57.636)"/></g></g></svg>