<?xml version="1.0" encoding="UTF-8" standalone="no"?>
<!-- Created with Inkscape (http://www.inkscape.org/) -->
<svg xmlns:inkscape="http://www.inkscape.org/namespaces/inkscape" xmlns:rdf="http://www.w3.org/1999/02/22-rdf-syntax-ns#" xmlns="http://www.w3.org/2000/svg" xmlns:xlink="http://www.w3.org/1999/xlink" xmlns:ns1="http://sozi.baierouge.fr" xmlns:cc="http://creativecommons.org/ns#" xmlns:dc="http://purl.org/dc/elements/1.1/" xmlns:sodipodi="http://sodipodi.sourceforge.net/DTD/sodipodi-0.dtd" id="svg2" sodipodi:docname="man.svg" viewBox="0 0 744.09 1052.4" version="1.1" inkscape:version="0.48.3.1 r9886">
  <title id="title3008">bearded man</title>
  <sodipodi:namedview id="base" bordercolor="#666666" inkscape:pageshadow="2" inkscape:window-y="-8" pagecolor="#ffffff" inkscape:window-height="706" inkscape:window-maximized="1" inkscape:zoom="0.24748737" inkscape:window-x="-8" showgrid="false" borderopacity="1.0" inkscape:current-layer="layer1" inkscape:cx="-1018.3752" inkscape:cy="726.38326" inkscape:window-width="1366" inkscape:pageopacity="0.0" inkscape:document-units="px"/>
  <g id="layer1" inkscape:label="Layer 1" inkscape:groupmode="layer">
    <g id="g3838" transform="matrix(1.8745 0 0 1.8745 1042.6 -386.62)">
      <path id="path2998" d="m-457.43 416.79 2.1429-21.429c2.9981-21.358 5.9241-36.967 19.571-53 25.963 26.072 93.571 16.159 114.29-9.2857l45-47.857-45.714 60 15 17.857c15.525 33.345-15.125 21.857 40 58.571 0.61037 0.15259-3.6876 12.074-20.714 14.286-6.3003 0.81821 21.429 20 21.429 20 14.524-14.88 29.048-33.014 43.571-37.143l6.4286 17.857c65.726-126.5-39.458-153.31-50.269-164.86-135.46-75.576-229.04 93.697-190.73 145.01z" sodipodi:nodetypes="ccccccccsccccc" style="stroke-width:0;fill:#000000" inkscape:connector-curvature="0"/>
      <path id="path3000" d="m-455.84 421.73-1.8544 8.6506c18.321 5.229 34.448 15.178 44.005 25.383-0.0292-22.874-20.869-27.243-42.15-34.033z" sodipodi:nodetypes="cccc" style="stroke-width:0;fill:#000000" inkscape:connector-curvature="0"/>
      <path id="path3002" d="m-374.46 452.82c-13.456 1.9305-25.211-3.4207-22.301-4.0332 26.543-26.646 58.231-21.573 83.189-4.993-20.478-3.8357-59.594-9.7101-68.745 8.3114z" sodipodi:nodetypes="ccccc" style="stroke-width:0;fill:#000000" inkscape:connector-curvature="0"/>
      <path id="path3004" d="m-415 460.93-5.7143 27.143-9.3037 14.477c4.7784 6.748 6.8356 10.164 12.875 11.237l16.263-2.4821c10.5 1.8708 19.89-0.69991 27.699-9.5964-11.31 11.399-17.879 7.4556-28.604 10.65h-0.35713l-14.286 4.2857c-3.5514 0.63431-11.949-3.3244-16.393-9.8341 0.43392-7.0221 8.6114-18.535 9.6978-26.959 0.72067-5.588 6.0365-13.826 8.1235-18.921z" sodipodi:nodetypes="ccccccccccsc" style="stroke-width:0;fill:#000000" inkscape:connector-curvature="0"/>
      <path id="path3006" d="m-258.23 492.3c-2.211 2.5214-4.9214 6.2356-6.5799 9.1475-5.5824 9.8008-43.259 55.33-73.394 69.826l-6.974 1.1372c0.69262-12.854 9.781-34.612-4.468-48.981-11.304 2.277-21.436-2.7978-34.638-10.009l-28.933 5.0089-26.42-3.2098c-6.8798 15.771-2.1878 20.214-0.70536 30.339-3.7634-5.4601-6.1108-3.486-17.147-47.129 0 0 5.9972 37.003 12.853 54.286 6.6471 16.758 19.125 34.93 26.429 45.714 5.8435 8.629 7.958 5.8017 21.95 6.8347 4.4106 0.32564 8.9639 5.9434 17.331 5.3215 91.769-6.8207 121.58-117.36 120.7-118.29zm-169.62 37.563s20.576 5.8238 30.595 7.3162c13.998 2.085 45.463-3.7403 45.463-3.7403 5.7409 6.5725-2.8826 14.838-7.8572 24.982-7.9528 12.582-8.0256 10.025-23.58 9.3036 0 0 5.5465-18.907-0.70089-15.009-14.048 8.5553-34.518-3.3136-42.143-7.8482 0 0 8.5438 12.202 7.8616 16.406-0.37755 2.3266-10.714 2.1429-10.714 2.1429s-4.0626-8.6289-5.7232-15.705c-1.8025-7.6809 6.7991-17.848 6.7991-17.848z" sodipodi:nodetypes="csccccccccssssccscccccscsc" style="stroke-width:0;fill:#000000" inkscape:connector-curvature="0"/>
      <path id="path3011" d="m-457.85 446.37c0.91785-1.9395 11.208-3.982 19.993-3.9548 10.6-0.081 14.494 8.6867 21.429 11.05h-8.5714s-4.8311 4.7359-8.3622 4.5291c-3.71-0.23-6.64-5.75-6.64-5.75z" sodipodi:nodetypes="ccccscc" style="stroke-width:0;fill:#000000" inkscape:connector-curvature="0"/>
      <path id="path3013" d="m-378.57 456.83c-1.097 0.87757 11.332 11.032 19.273 10.146 6.4734-0.72232 15.285-4.6161 15.285-4.6161l22.586 0.38173-43.901-13.952z" sodipodi:nodetypes="cscccc" style="stroke-width:0;fill:#000000" inkscape:connector-curvature="0"/>
      <path id="path3015" d="m-409.99 616.05 2.1806 81.929 51.4-61.992-29.282-19.314z" sodipodi:nodetypes="ccccc" style="stroke-width:0;fill:#000000" inkscape:connector-curvature="0"/>
      <path id="path3017" d="m-331.7 634.36c3.3667 0.67334 61.2 72.103 61.274 68.008 0.0691-3.8236 36.975-158.91 18.517-164.3z" sodipodi:nodetypes="cscc" style="stroke-width:0;fill:#000000" inkscape:connector-curvature="0"/>
      <path id="path3019" d="m-355.71 642.36c2.8572 0.71429 21.429 7.1429 21.429 7.1429l5.7143-4.2857 10.714 9.2857-10 3.5714 8.5714 91.429s-47.143 4.2857-45.714 0.71429c1.4286-3.5714 10.182-39.964 7.8571-60-1.3199-11.377-12.143-32.143-12.143-32.143z" sodipodi:nodetypes="ccccccsscc" style="stroke-width:0;fill:#000000" inkscape:connector-curvature="0"/>
      <path id="path3021" d="m-412.14 751.65-3.5714-73.571 3.5714-55.714 0.87273-13.276-34.286-40.678c-5.6767 1.2872-59.446 25.327-85.873 28.24l1.4286 155z" sodipodi:nodetypes="cccccccc" style="stroke-width:0;fill:#000000" inkscape:connector-curvature="0"/>
      <path id="path3023" d="m-274.29 749.51 92.857-0.71429-2.8571-176.43-55-10.714c-6.9723 64.184-16.672 127.46-35 187.86z" sodipodi:nodetypes="ccccc" style="stroke-width:0;fill:#000000" inkscape:connector-curvature="0"/>
      <path id="path3800" sodipodi:nodetypes="cscsccsccsccccccsccssccc" style="fill-rule:evenodd;fill:#000000" inkscape:connector-curvature="0" d="m-389.92 490.46c0.002-0.0992 0.29973-0.19424 0.87401-0.25444s1.4268-0.0847 2.524 0.009c1.0971 0.0932 2.4407 0.30502 3.9562 0.75571s3.2046 1.1412 4.9256 2.2166c1.4599 0.92226 2.916 2.0897 4.3164 3.485s2.7446 3.0187 4.0077 4.79c2.1551 3.0071 4.1205 6.4465 6.245 9.9339 1.7292 2.8192 3.5383 5.701 5.8606 8.1296 0.13966 0.14606 0.28078 0.28998 0.42343 0.43167 1.0498 1.1146 5.4125 5.8609 3.4361 5.1864-1.8343-0.59201-3.864-1.4368-5.5572-3.0652-0.15965-0.16061-0.31725-0.32309-0.47288-0.48736-2.5878-2.7313-4.5008-5.7954-6.1971-8.6928-2.1144-3.5869-3.9458-7.0013-5.902-9.9398-1.152-1.7214-2.3374-3.2945-3.5595-4.6516-1.222-1.3571-2.4805-2.4988-3.7491-3.4181h-0.00001c-1.4691-1.0777-2.955-1.837-4.3119-2.3947-1.357-0.55773-2.5865-0.91453-3.6043-1.1702-1.0178-0.25571-1.8258-0.41119-2.3753-0.53794-0.54953-0.12674-0.84201-0.22597-0.83969-0.32518z"/>
      <path id="path3834" style="fill-rule:evenodd;fill:#000000" d="m-426.75 527.14c0.42518-0.32288 1.196-0.15023 2.2602 0.40748 1.0642 0.55772 2.4237 1.503 4.0556 2.6763 1.6319 1.1734 3.5358 2.5765 5.7084 3.9673s4.6126 2.7677 7.351 3.8036c3.1104 1.2376 6.7116 2.0049 10.542 2.1239 1.2849 0.0399 2.5565 0.007 3.8008-0.091 2.6217-0.19071 5.1874-0.66944 7.6596-1.2399 2.4722-0.57043 4.8494-1.2311 7.0702-1.8408 2.1521-0.60022 4.1706-1.1788 6.0008-1.6367 1.8302-0.45793 3.4705-0.79626 4.8541-0.98033 2.7672-0.36814 4.4823-0.12229 4.7662 0.67158 0.28396 0.79387-0.84994 2.0265-3.0137 3.6555-1.0819 0.81451-2.4254 1.733-4.0255 2.7317-1.6001 0.99874-3.4572 2.0795-5.6011 3.1632-2.1828 1.1164-4.6657 2.2323-7.4544 3.1879-2.7888 0.95561-5.885 1.7495-9.2635 2.1621-1.6646 0.19475-3.377 0.27114-5.1123 0.2148-5.1726-0.16795-10.077-1.5254-14.173-3.6452-3.4219-1.8345-6.1805-4.016-8.3701-6.1757s-3.8144-4.2972-4.9829-6.1665-1.8834-3.4726-2.2155-4.6713c-0.33208-1.1986-0.28216-1.9951 0.14302-2.318z" sodipodi:nodetypes="cc" inkscape:connector-curvature="0" inkscape:path-effect="#path-effect3836" inkscape:original-d="m -426.74765,527.1358 c 23.3679,30.77143 46.51345,14.14077 64.06861,7.86146"/>
    </g>
    <path id="path3861" sodipodi:rx="2.2728431" sodipodi:ry="2.2728431" style="stroke-width:0;fill:#ffffff" sodipodi:type="arc" d="m-430.83 453.09a2.2728 2.2728 0 1 1 -4.5457 0 2.2728 2.2728 0 1 1 4.5457 0z" transform="matrix(2.9159 0 0 1.0414 1484.8 -14.744)" sodipodi:cy="453.08917" sodipodi:cx="-433.10291"/>
    <path id="path3863" sodipodi:rx="2.2728431" sodipodi:ry="2.2728431" style="stroke-width:0;fill:#ffffff" sodipodi:type="arc" d="m-430.83 453.09a2.2728 2.2728 0 1 1 -4.5457 0 2.2728 2.2728 0 1 1 4.5457 0z" transform="matrix(3.7491 0 0 1.458 1996.8 -186.48)" sodipodi:cy="453.08917" sodipodi:cx="-433.10291"/>
  </g>
  <metadata>
    <rdf:RDF>
      <cc:Work>
        <dc:format>image/svg+xml</dc:format>
        <dc:type rdf:resource="http://purl.org/dc/dcmitype/StillImage"/>
        <cc:license rdf:resource="http://creativecommons.org/licenses/publicdomain/"/>
        <dc:publisher>
          <cc:Agent rdf:about="http://openclipart.org/">
            <dc:title>Openclipart</dc:title>
          </cc:Agent>
        </dc:publisher>
      </cc:Work>
      <cc:License rdf:about="http://creativecommons.org/licenses/publicdomain/">
        <cc:permits rdf:resource="http://creativecommons.org/ns#Reproduction"/>
        <cc:permits rdf:resource="http://creativecommons.org/ns#Distribution"/>
        <cc:permits rdf:resource="http://creativecommons.org/ns#DerivativeWorks"/>
      </cc:License>
    </rdf:RDF>
  </metadata>
</svg>
