<svg xmlns="http://www.w3.org/2000/svg" width="21.613" height="27.935" viewBox="0 0 21.613 27.935"><defs><style>.a{fill:#545557;stroke:#f6f7fb;stroke-width:0.5px;}</style></defs><g transform="translate(0.25 0.25)"><path class="a" d="M12.292,4.77h1.394A3.465,3.465,0,0,0,17.072,7.6h.6a3.464,3.464,0,0,0,3.443-3.5V3.5A3.464,3.464,0,0,0,17.67,0h-.6a3.412,3.412,0,0,0-3.386,2.8H12.292a2.742,2.742,0,0,0-2.7,2.746V12.72H7.483v-.578a3.464,3.464,0,0,0-3.443-3.5h-.6A3.464,3.464,0,0,0,0,12.142v3.122a3.464,3.464,0,0,0,3.443,3.5h.6a3.464,3.464,0,0,0,3.443-3.5v-.578H9.589v7.169a2.742,2.742,0,0,0,2.7,2.746h1.394a3.465,3.465,0,0,0,3.386,2.833h.6a3.464,3.464,0,0,0,3.443-3.5v-.607a3.464,3.464,0,0,0-3.443-3.5h-.6a3.465,3.465,0,0,0-3.386,2.833H12.292a.771.771,0,0,1-.768-.781v-7.2h2.163a3.465,3.465,0,0,0,3.386,2.833h.6a3.464,3.464,0,0,0,3.443-3.5v-.607a3.464,3.464,0,0,0-3.443-3.5h-.6a3.412,3.412,0,0,0-3.386,2.8H11.524V5.551A.771.771,0,0,1,12.292,4.77Zm3.244-1.3a1.542,1.542,0,0,1,1.537-1.561h.6a1.542,1.542,0,0,1,1.537,1.561v.607A1.542,1.542,0,0,1,17.67,5.638h-.6a1.542,1.542,0,0,1-1.537-1.561ZM5.577,15.264A1.542,1.542,0,0,1,4.04,16.825h-.6a1.542,1.542,0,0,1-1.537-1.561V12.142a1.542,1.542,0,0,1,1.537-1.561h.6a1.542,1.542,0,0,1,1.537,1.561Zm9.959,8.065a1.542,1.542,0,0,1,1.537-1.561h.6a1.542,1.542,0,0,1,1.537,1.561v.607A1.542,1.542,0,0,1,17.67,25.5h-.6a1.542,1.542,0,0,1-1.537-1.561Zm0-9.915a1.542,1.542,0,0,1,1.537-1.561h.6a1.542,1.542,0,0,1,1.537,1.561v.578a1.542,1.542,0,0,1-1.537,1.561h-.6a1.542,1.542,0,0,1-1.537-1.561Z"/></g></svg>