<svg xmlns="http://www.w3.org/2000/svg" width="20.297" height="20.297" viewBox="0 0 20.297 20.297"><defs><style>.a{fill:#545557;}</style></defs><g transform="translate(0 0)"><path class="a" d="M7.875,18.87,18.87,7.875,16.421,5.426,5.426,16.421Zm3.739-2.228L8.253,20l-.179.118L2.733,22.257a.534.534,0,0,1-.694-.694l2.136-5.341.118-.179,3.361-3.361-5.5-5.5a.534.534,0,0,1,0-.755L6.429,2.156a.534.534,0,0,1,.755,0l5.5,5.5,5.184-5.184a1.6,1.6,0,0,1,2.266,0l1.694,1.694a1.6,1.6,0,0,1,0,2.266l-5.184,5.184,5.5,5.5a.534.534,0,0,1,0,.755l-4.273,4.273a.534.534,0,0,1-.755,0Zm.755-.755,5.12,5.12,3.517-3.517-1.381-1.381-.69.691a.534.534,0,0,1-.755-.755l.691-.69-1.381-1.381L15.73,15.73a.534.534,0,0,1-.755-.755l1.759-1.759-.847-.847-3.517,3.517Zm-3.96-3.96,3.517-3.517-.847-.847-.691.691A.534.534,0,1,1,9.634,7.5l.691-.691L8.943,5.426,7.185,7.185a.534.534,0,1,1-.755-.755L8.188,4.671,6.807,3.289,3.29,6.807l5.12,5.12Zm-1.485,7.5L4.866,17.371,3.493,20.8,6.925,19.43ZM17.176,4.671,19.625,7.12l1.446-1.446a.533.533,0,0,0,0-.755L19.376,3.224a.533.533,0,0,0-.755,0L17.176,4.671Z" transform="translate(-1.999 -2)"/></g></svg>