<svg xmlns="http://www.w3.org/2000/svg" width="16.194" height="21.58" viewBox="0 0 16.194 21.58"><defs><style>.a{fill:#545557;}</style></defs><path class="a" d="M24.232,2.469H20.678l-.208-.744a.342.342,0,0,0-.33-.25h-5.4a.342.342,0,0,0-.33.25l-.208.744H10.65A1.308,1.308,0,0,0,9.344,3.775V21.749a1.308,1.308,0,0,0,1.306,1.306H24.232a1.308,1.308,0,0,0,1.306-1.306V3.775A1.308,1.308,0,0,0,24.232,2.469ZM13.388,5.88a.342.342,0,0,0,.273.136h7.56a.342.342,0,0,0,.33-.435l-.23-.821h1.926v16H11.635v-16h1.926l-.23.821A.343.343,0,0,0,13.388,5.88ZM15,2.16h4.88l.889,3.171H14.112Zm9.852,19.589a.622.622,0,0,1-.622.622H10.65a.622.622,0,0,1-.622-.622V3.775a.622.622,0,0,1,.622-.622h3.361l-.258.922H11.293a.342.342,0,0,0-.342.342V21.106a.342.342,0,0,0,.342.342h12.3a.342.342,0,0,0,.342-.342V4.417a.342.342,0,0,0-.342-.342H21.128l-.258-.922h3.362a.622.622,0,0,1,.622.622Z" transform="translate(-9.344 -1.475)"/><path class="a" d="M19.888,20.312c0,.194.1.352.232.352h5.617c.128,0,.232-.158.232-.352s-.1-.352-.232-.352H20.12C19.992,19.96,19.888,20.118,19.888,20.312Z" transform="translate(-14.832 -13.237)"/><path class="a" d="M19.888,20.312c0,.194.1.352.232.352h5.617c.128,0,.232-.158.232-.352s-.1-.352-.232-.352H20.12C19.992,19.96,19.888,20.118,19.888,20.312Z" transform="translate(-13.393 -10.359)"/><path class="a" d="M19.888,20.312c0,.194.1.352.232.352h5.617c.128,0,.232-.158.232-.352s-.1-.352-.232-.352H20.12C19.992,19.96,19.888,20.118,19.888,20.312Z" transform="translate(-14.352 -7.482)"/><path class="a" d="M19.888,20.312c0,.194.1.352.232.352h5.617c.128,0,.232-.158.232-.352s-.1-.352-.232-.352H20.12C19.992,19.96,19.888,20.118,19.888,20.312Z" transform="translate(-13.393 -5.084)"/><path class="a" d="M20.736,27.513a.311.311,0,0,0,.44,0l1.607-1.607a.311.311,0,1,0-.44-.44l-1.387,1.387-.537-.537a.311.311,0,1,0-.44.44Z" transform="translate(-16.648 -16.656)"/><path class="a" d="M20.784,43.634a.328.328,0,0,0,.465,0l1.7-1.7a.329.329,0,1,0-.465-.465l-1.466,1.466-.567-.567a.329.329,0,0,0-.465.465Z" transform="translate(-16.648 -27.462)"/></svg>