<svg xmlns="http://www.w3.org/2000/svg" width="22.481" height="22.481" viewBox="0 0 22.481 22.481"><defs><style>.a{fill:#545557;}</style></defs><path class="a" d="M33.534,18.735V13.351a.351.351,0,0,0-.593-.255,15.668,15.668,0,0,1-9.02,4.26.854.854,0,0,0-.826-.645H17.21a.856.856,0,0,0-.855.855v.306h-.219a3.136,3.136,0,1,0,0,6.272h.219v.306a.856.856,0,0,0,.855.855h.728l1.839,9.889a.351.351,0,0,0,.345.287h3.845a.334.334,0,0,0,.1-.014,1.285,1.285,0,0,0-.153-2.558L22.5,25.3h.6a.854.854,0,0,0,.825-.644,16.818,16.818,0,0,1,9.028,4.266.351.351,0,0,0,.585-.262V23.281a2.3,2.3,0,0,0,0-4.546ZM16.355,23.442h-.219a2.434,2.434,0,1,1,0-4.867h.219v4.867Zm6.919,9.882a.351.351,0,0,0,.345.287h.286a.582.582,0,0,1,.037,1.161.3.3,0,0,0-.042.006H20.414L18.653,25.3h3.13Zm-.027-15.58V24.45a.152.152,0,0,1-.152.152H17.21a.152.152,0,0,1-.152-.152V17.566a.152.152,0,0,1,.152-.152H23.1a.152.152,0,0,1,.152.152v.178ZM32.831,27.9a17.33,17.33,0,0,0-8.881-3.947v-5.89a16.3,16.3,0,0,0,8.881-3.92Zm.745-5.339V19.455a1.6,1.6,0,0,1,0,3.107Z" transform="translate(-13 -13)"/><path class="a" d="M43.262,53.308a.5.5,0,0,0-.4.581l.6,3.294a.5.5,0,0,0,.491.41.481.481,0,0,0,.09-.008.5.5,0,0,0,.4-.581l-.6-3.294A.5.5,0,0,0,43.262,53.308Z" transform="translate(-32.098 -40.07)"/><path class="a" d="M27.847,34.8h-.328a.5.5,0,0,0,0,1h.328a.5.5,0,1,0,0-1Z" transform="translate(-20.686 -27.245)"/></svg>