<svg xmlns="http://www.w3.org/2000/svg" width="25.719" height="27.253" viewBox="0 0 25.719 27.253"><defs><style>.a{fill:#545557;stroke:#f6f7fb;stroke-width:0.25px;}</style></defs><g transform="translate(0.125 0.125)"><path class="a" d="M-908.3,982.4a6.713,6.713,0,0,0-6.7-6.7,6.713,6.713,0,0,0-6.7,6.7,5.909,5.909,0,0,0,.207,1.594,6.259,6.259,0,0,0,.944,2.125c.089.177.207.354.325.561.148.236.266.472.413.679a4.506,4.506,0,0,1,.944,2.686v2.775a1.4,1.4,0,0,0,1.18,1.387,2.645,2.645,0,0,0,2.685,2.45,2.626,2.626,0,0,0,2.685-2.45,1.421,1.421,0,0,0,1.18-1.387v-2.775a4.438,4.438,0,0,1,.944-2.686c.118-.207.266-.443.413-.679.118-.207.236-.384.324-.561a6.257,6.257,0,0,0,.944-2.125A5.914,5.914,0,0,0-908.3,982.4Zm-3.983,8.354h-5.37v-.679a1.556,1.556,0,0,0-.03-.384h5.4c0,.118-.03.236-.03.384v.679Zm-.266,2.332h-4.9a.233.233,0,0,1-.236-.236v-.915h5.37v.915C-912.288,992.968-912.406,993.087-912.553,993.087Zm-2.449,2.42c-.325,0-1.151,0-1.475-1.24h2.98A1.413,1.413,0,0,1-915,995.507Zm5.341-11.748a5.492,5.492,0,0,1-.8,1.771c-.118.177-.207.354-.325.561-.147.236-.265.472-.383.649a8.8,8.8,0,0,0-.885,1.742h-5.842a7.466,7.466,0,0,0-.885-1.742c-.118-.207-.266-.413-.384-.649-.118-.207-.236-.413-.324-.561a5.628,5.628,0,0,1-.8-1.8,5.141,5.141,0,0,1-.177-1.328,5.529,5.529,0,0,1,5.518-5.52,5.529,5.529,0,0,1,5.518,5.52A11.925,11.925,0,0,1-909.662,983.759Z" transform="translate(927.722 -969.655)"/><path class="a" d="M-865.06,996.4h-2.45a.592.592,0,0,0-.59.59.592.592,0,0,0,.59.59h2.45a.592.592,0,0,0,.59-.59A.592.592,0,0,0-865.06,996.4Z" transform="translate(889.938 -984.241)"/><path class="a" d="M-877.21,970.222a.583.583,0,0,0,.413-.177l1.742-1.742a.571.571,0,0,0,0-.827.571.571,0,0,0-.827,0l-1.741,1.742a.571.571,0,0,0,0,.827A.583.583,0,0,0-877.21,970.222Z" transform="translate(896.775 -963.728)"/><path class="a" d="M-900.41,958.831a.592.592,0,0,0,.59-.59v-2.45a.592.592,0,0,0-.59-.59.592.592,0,0,0-.59.59v2.45A.592.592,0,0,0-900.41,958.831Z" transform="translate(913.129 -955.2)"/><path class="a" d="M-928.181,970.045a.582.582,0,0,0,.413.177.582.582,0,0,0,.413-.177.57.57,0,0,0,0-.826l-1.741-1.742a.571.571,0,0,0-.827,0,.571.571,0,0,0,0,.826Z" transform="translate(933.642 -963.728)"/><path class="a" d="M-939.06,996.4h-2.45a.592.592,0,0,0-.59.59.592.592,0,0,0,.59.59h2.45a.592.592,0,0,0,.59-.59A.592.592,0,0,0-939.06,996.4Z" transform="translate(942.1 -984.241)"/><path class="a" d="M-928.181,1019.777l-1.742,1.742a.571.571,0,0,0,0,.826.583.583,0,0,0,.413.177.583.583,0,0,0,.413-.177l1.741-1.742a.57.57,0,0,0,0-.826A.57.57,0,0,0-928.181,1019.777Z" transform="translate(933.642 -1000.595)"/><path class="a" d="M-876.8,1019.777a.571.571,0,0,0-.827,0,.57.57,0,0,0,0,.826l1.742,1.742a.583.583,0,0,0,.413.177.583.583,0,0,0,.413-.177.571.571,0,0,0,0-.826Z" transform="translate(896.775 -1000.595)"/></g></svg>