<svg xmlns="http://www.w3.org/2000/svg" width="19.27" height="19.27" viewBox="0 0 19.27 19.27"><defs><style>.a{fill:#545557;}</style></defs><path class="a" d="M18.668,0H5.42a.6.6,0,0,0-.6.6V4.817H.6a.6.6,0,0,0-.6.6V18.668a.6.6,0,0,0,.6.6H13.85a.6.6,0,0,0,.6-.6V14.452h4.215a.6.6,0,0,0,.6-.6V.6A.6.6,0,0,0,18.668,0Zm-5.42,18.065H1.2V6.022H4.817V13.85a.6.6,0,0,0,.6.6h7.828Zm4.817-4.817H6.022V1.2H18.065Z" transform="translate(0)"/><path class="a" d="M16.508,13.6a.682.682,0,0,0,.485-.2l6.142-6.142-.969-.969-5.658,5.665L14.262,9.709l-.962.962,2.73,2.73A.682.682,0,0,0,16.508,13.6Z" transform="translate(-6.792 -2.756)"/></svg>