<svg xmlns="http://www.w3.org/2000/svg" width="18.545" height="11.05" viewBox="0 0 18.545 11.05"><defs><style>.a{fill:#545557;}</style></defs><path class="a" d="M73.1,60.8H71.078c-.057,0-.113,0-.169,0a.58.58,0,0,0-.375,1,.57.57,0,0,0,.426.155c.039,0,.078,0,.118,0H73.1A2.146,2.146,0,0,1,75.247,64.1v.238H76.4V64.1A3.3,3.3,0,0,0,73.1,60.8Z" transform="translate(-57.859 -53.29)"/><path class="a" d="M14.117,40.857a2.751,2.751,0,1,0-2.751-2.751A2.754,2.754,0,0,0,14.117,40.857Zm0-4.344a1.593,1.593,0,1,1-1.593,1.593A1.595,1.595,0,0,1,14.117,36.513Z" transform="translate(-9.803 -33.754)"/><path class="a" d="M6.158,64.1A2.146,2.146,0,0,1,8.3,61.959h2.026q.091,0,.18.008a.6.6,0,0,0,.456-.154.566.566,0,0,0,.184-.42.579.579,0,0,0-.515-.576c-.1-.01-.2-.015-.306-.015H8.3A3.3,3.3,0,0,0,5,64.1v.238H6.158V64.1Z" transform="translate(-5 -53.29)"/><path class="a" d="M30.87,59.833h1.158V58.408a2.426,2.426,0,0,1,2.423-2.423h2.234a2.426,2.426,0,0,1,2.423,2.423v1.425h1.158V58.408a3.588,3.588,0,0,0-3.58-3.58H34.451a3.591,3.591,0,0,0-3.58,3.58v1.425Z" transform="translate(-26.295 -48.783)"/><path class="a" d="M68.981,40.857a2.751,2.751,0,1,0-2.751-2.751A2.754,2.754,0,0,0,68.981,40.857Zm0-4.344a1.593,1.593,0,1,1-1.593,1.593A1.595,1.595,0,0,1,68.981,36.513Z" transform="translate(-54.75 -33.754)"/><path class="a" d="M39.369,31.709a3.46,3.46,0,1,0-3.46-3.46A3.464,3.464,0,0,0,39.369,31.709Zm0-5.763a2.3,2.3,0,1,1-2.3,2.3A2.305,2.305,0,0,1,39.369,25.946Z" transform="translate(-30.097 -24.789)"/></svg>