<svg xmlns="http://www.w3.org/2000/svg" xmlns:xlink="http://www.w3.org/1999/xlink" width="462.133" height="373.166" viewBox="0 0 462.133 373.166"><defs><style>.a{fill:#ebebeb;}.b{fill:#e0e0e0;}.c{fill:#f5f5f5;}.d{fill:#e6e6e6;}.e,.f{fill:#f0f0f0;}.f{stroke:#e0e0e0;stroke-width:2px;}.ae,.f,.w,.x{stroke-linecap:round;stroke-linejoin:round;}.g,.l{opacity:0.3;}.h,.i{fill:#369463;}.i,.k,.r,.z{opacity:0.2;}.ab,.ac,.ad,.af,.i,.k,.l,.m,.p,.q,.r,.s,.y,.z{isolation:isolate;}.j{fill:#263238;}.ab,.ac,.ad,.af,.k,.l,.m,.t{fill:#fff;}.m{opacity:0.6;}.n{fill:#e4897b;}.o{fill:#407bff;}.p{fill:#b3caff;}.q{fill:#93a7d8;}.af,.s{opacity:0.1;}.u{fill:#a7b8df;}.v{fill:#de5753;}.ae,.w,.x{fill:none;}.w,.x{stroke:#263238;}.w{stroke-width:0.725px;}.x{stroke-width:0.5px;}.ac,.y{opacity:0.4;}.aa{fill:#b0b5c2;}.ab{opacity:0.7;}.ad{opacity:0.5;}.ae{stroke:#407bff;stroke-width:0.75px;stroke-dasharray:6;}.ag,.ai{fill:#539671;}.ah{fill:#dce5fe;}.ai{opacity:0.88;}.aj{fill:#167240;opacity:0.73;}.ak{fill:url(#a);}.al{fill:#f7f7f7;}</style><linearGradient id="a" y1="0.5" x2="1" y2="0.5" gradientUnits="objectBoundingBox"><stop offset="0" stop-color="#a3b4dd"/><stop offset="1" stop-color="#e4edf8"/></linearGradient></defs><g transform="translate(0 13.061)"><rect class="a" width="444.636" height="0.222" transform="translate(0 319.943)"/><rect class="a" width="29.455" height="0.222" transform="translate(370.63 334.257)"/><rect class="a" width="7.731" height="0.222" transform="translate(286.814 336.67)"/><rect class="a" width="17.067" height="0.222" transform="translate(352.673 325.999)"/><rect class="a" width="38.411" height="0.222" transform="translate(46.65 327.493)"/><rect class="a" width="5.632" height="0.222" transform="translate(92.978 327.493)"/><rect class="a" width="83.303" height="0.222" transform="translate(116.914 331.248)"/><path class="a" d="M215,306.481H43.283a5.082,5.082,0,0,1-5.076-5.076V60.028a5.081,5.081,0,0,1,5.076-5.075H215a5.081,5.081,0,0,1,5.075,5.075V301.4A5.082,5.082,0,0,1,215,306.481ZM43.283,55.175a4.858,4.858,0,0,0-4.854,4.853V301.4a4.859,4.859,0,0,0,4.854,4.854H215a4.858,4.858,0,0,0,4.853-4.854V60.028A4.858,4.858,0,0,0,215,55.175Z" transform="translate(-4.231 -54.953)"/><path class="a" d="M431.3,306.481H259.58A5.081,5.081,0,0,1,254.5,301.4V60.028a5.081,5.081,0,0,1,5.075-5.075H431.3a5.082,5.082,0,0,1,5.077,5.075V301.4A5.082,5.082,0,0,1,431.3,306.481ZM259.58,55.175a4.858,4.858,0,0,0-4.853,4.853V301.4a4.858,4.858,0,0,0,4.853,4.854H431.3a4.859,4.859,0,0,0,4.855-4.854V60.028a4.859,4.859,0,0,0-4.855-4.853Z" transform="translate(-28.181 -54.953)"/></g><g transform="translate(46.094 13.486)"><g transform="translate(134.551 83.663)"><rect class="b" width="215.453" height="207.68"/><rect class="c" width="211.996" height="200.286" transform="translate(3.457 3.771)"/><g transform="translate(3.457 46.802)"><path class="d" d="M208.591,278.554V218.312h6.259v-7.957l14.083-6.588v-8.144h2.347v22.689h2.347v60.242h3.129V247.26H243.8V230.83h2.347v47.724h5.477V260.56h3.912v-4.694h8.606v-16.43h4.694V228.483h5.477v-16.43h2.347v16.43h5.477v10.953h4.694v16.43h8.606v4.694h3.912v17.995h4.694V255.866h8.606V205.794h2.347v-5.477H333.77v5.477h3.912v35.989h15.647v3.912h5.477v2.347h-5.477v14.083h16.43V215.182h3.13v-9.388h7.824V169.805h2.347v35.989h5.477v9.388h30.487V327.061h-212V278.554Z" transform="translate(-207.026 -169.805)"/><g transform="translate(4.025 38.181)"><rect class="e" width="2.217" height="2.217" transform="translate(189.463 9.649)"/><rect class="e" width="2.217" height="2.217" transform="translate(189.463 13.365)"/><rect class="e" width="2.217" height="2.217" transform="translate(189.463 28.23)"/><rect class="e" width="2.217" height="2.217" transform="translate(189.463 31.947)"/><rect class="e" width="2.217" height="2.217" transform="translate(189.463 35.663)"/><rect class="e" width="2.217" height="2.217" transform="translate(189.463 46.812)"/><rect class="e" width="2.217" height="2.217" transform="translate(189.463 50.528)"/><rect class="e" width="2.217" height="2.217" transform="translate(185.943 24.514)"/><rect class="e" width="2.217" height="2.217" transform="translate(185.943 28.23)"/><rect class="e" width="2.217" height="2.217" transform="translate(185.943 31.947)"/><rect class="e" width="2.217" height="2.217" transform="translate(185.943 35.663)"/><rect class="e" width="2.217" height="2.217" transform="translate(185.943 39.379)"/><rect class="e" width="2.217" height="2.217" transform="translate(185.943 46.812)"/><rect class="e" width="2.217" height="2.217" transform="translate(185.943 50.528)"/><rect class="e" width="2.217" height="2.217" transform="translate(182.422 9.649)"/><rect class="e" width="2.217" height="2.217" transform="translate(182.422 13.365)"/><rect class="e" width="2.217" height="2.217" transform="translate(182.422 17.082)"/><rect class="e" width="2.217" height="2.217" transform="translate(182.422 20.798)"/><rect class="e" width="2.217" height="2.217" transform="translate(182.422 24.514)"/><rect class="e" width="2.217" height="2.217" transform="translate(182.422 28.23)"/><rect class="e" width="2.217" height="2.217" transform="translate(182.422 31.947)"/><rect class="e" width="2.217" height="2.217" transform="translate(182.422 35.663)"/><rect class="e" width="2.217" height="2.217" transform="translate(182.422 39.379)"/><rect class="e" width="2.217" height="2.217" transform="translate(182.422 43.095)"/><rect class="e" width="2.217" height="2.217" transform="translate(182.422 50.528)"/><rect class="e" width="2.217" height="2.217" transform="translate(178.901 9.649)"/><rect class="e" width="2.217" height="2.217" transform="translate(178.901 13.365)"/><rect class="e" width="2.217" height="2.217" transform="translate(178.901 17.082)"/><rect class="e" width="2.217" height="2.217" transform="translate(178.901 20.798)"/><rect class="e" width="2.217" height="2.217" transform="translate(178.901 24.514)"/><rect class="e" width="2.217" height="2.217" transform="translate(178.901 28.23)"/><rect class="e" width="2.217" height="2.217" transform="translate(178.901 31.947)"/><rect class="e" width="2.217" height="2.217" transform="translate(178.901 65.393)"/><rect class="e" width="2.217" height="2.217" transform="translate(175.381 9.649)"/><rect class="e" width="2.217" height="2.217" transform="translate(175.381 13.365)"/><rect class="e" width="2.217" height="2.217" transform="translate(175.381 17.082)"/><rect class="e" width="2.217" height="2.217" transform="translate(175.381 20.798)"/><rect class="e" width="2.217" height="2.217" transform="translate(175.381 24.514)"/><rect class="e" width="2.217" height="2.217" transform="translate(175.381 28.23)"/><rect class="e" width="2.217" height="2.217" transform="translate(175.381 31.947)"/><rect class="e" width="2.217" height="2.217" transform="translate(175.381 35.663)"/><rect class="e" width="2.217" height="2.217" transform="translate(175.381 57.96)"/><rect class="e" width="2.217" height="2.217" transform="translate(175.381 61.677)"/><rect class="e" width="2.217" height="2.217" transform="translate(175.381 65.393)"/><rect class="e" width="2.217" height="2.217" transform="translate(175.381 69.109)"/><rect class="e" width="2.217" height="2.217" transform="translate(175.381 83.974)"/><rect class="e" width="2.217" height="2.217" transform="translate(171.86 9.649)"/><rect class="e" width="2.217" height="2.217" transform="translate(171.86 13.365)"/><rect class="e" width="2.217" height="2.217" transform="translate(171.86 17.082)"/><rect class="e" width="2.217" height="2.217" transform="translate(171.86 20.798)"/><rect class="e" width="2.217" height="2.217" transform="translate(171.86 24.514)"/><rect class="e" width="2.217" height="2.217" transform="translate(171.86 28.23)"/><rect class="e" width="2.217" height="2.217" transform="translate(171.86 31.947)"/><rect class="e" width="2.217" height="2.217" transform="translate(171.86 35.663)"/><rect class="e" width="2.217" height="2.217" transform="translate(171.86 39.379)"/><rect class="e" width="2.217" height="2.217" transform="translate(171.86 43.095)"/><rect class="e" width="2.217" height="2.217" transform="translate(171.86 54.244)"/><rect class="e" width="2.217" height="2.217" transform="translate(171.86 57.96)"/><rect class="e" width="2.217" height="2.217" transform="translate(171.86 61.677)"/><rect class="e" width="2.217" height="2.217" transform="translate(171.86 65.393)"/><rect class="e" width="2.217" height="2.217" transform="translate(171.86 69.109)"/><rect class="e" width="2.217" height="2.217" transform="translate(171.86 83.974)"/><rect class="e" width="2.217" height="2.217" transform="translate(168.34 9.649)"/><rect class="e" width="2.217" height="2.217" transform="translate(168.34 13.365)"/><rect class="e" width="2.217" height="2.217" transform="translate(168.34 17.082)"/><rect class="e" width="2.217" height="2.217" transform="translate(168.34 20.798)"/><rect class="e" width="2.217" height="2.217" transform="translate(168.34 24.514)"/><rect class="e" width="2.217" height="2.217" transform="translate(168.34 28.23)"/><rect class="e" width="2.217" height="2.217" transform="translate(168.34 31.947)"/><rect class="e" width="2.217" height="2.217" transform="translate(168.34 35.663)"/><rect class="e" width="2.217" height="2.217" transform="translate(168.34 39.379)"/><rect class="e" width="2.217" height="2.217" transform="translate(168.34 43.095)"/><rect class="e" width="2.217" height="2.217" transform="translate(168.34 46.812)"/><rect class="e" width="2.217" height="2.217" transform="translate(168.34 50.528)"/><rect class="e" width="2.217" height="2.217" transform="translate(168.34 54.244)"/><rect class="e" width="2.217" height="2.217" transform="translate(168.34 57.96)"/><rect class="e" width="2.217" height="2.217" transform="translate(168.34 61.677)"/><rect class="e" width="2.217" height="2.217" transform="translate(168.34 65.393)"/><rect class="e" width="2.217" height="2.217" transform="translate(168.34 69.109)"/><rect class="e" width="2.217" height="2.217" transform="translate(168.34 72.825)"/><rect class="e" width="2.217" height="2.217" transform="translate(164.819 9.649)"/><rect class="e" width="2.217" height="2.217" transform="translate(164.819 13.365)"/><rect class="e" width="2.217" height="2.217" transform="translate(164.819 17.082)"/><rect class="e" width="2.217" height="2.217" transform="translate(164.819 20.798)"/><rect class="e" width="2.217" height="2.217" transform="translate(164.819 24.514)"/><rect class="e" width="2.217" height="2.217" transform="translate(164.819 28.23)"/><rect class="e" width="2.217" height="2.217" transform="translate(164.819 31.947)"/><rect class="e" width="2.217" height="2.217" transform="translate(164.819 35.663)"/><rect class="e" width="2.217" height="2.217" transform="translate(164.819 39.379)"/><rect class="e" width="2.217" height="2.217" transform="translate(164.819 43.095)"/><rect class="e" width="2.217" height="2.217" transform="translate(164.819 54.244)"/><rect class="e" width="2.217" height="2.217" transform="translate(164.819 57.96)"/><rect class="e" width="2.217" height="2.217" transform="translate(164.819 61.677)"/><rect class="e" width="2.217" height="2.217" transform="translate(164.819 65.393)"/><rect class="e" width="2.217" height="2.217" transform="translate(161.298 9.649)"/><rect class="e" width="2.217" height="2.217" transform="translate(161.298 13.365)"/><rect class="e" width="2.217" height="2.217" transform="translate(161.298 17.082)"/><rect class="e" width="2.217" height="2.217" transform="translate(161.298 20.798)"/><rect class="e" width="2.217" height="2.217" transform="translate(161.298 24.514)"/><rect class="e" width="2.217" height="2.217" transform="translate(161.298 28.23)"/><rect class="e" width="2.217" height="2.217" transform="translate(161.298 31.947)"/><rect class="e" width="2.217" height="2.217" transform="translate(161.298 35.663)"/><rect class="e" width="2.217" height="2.217" transform="translate(161.298 39.379)"/><rect class="e" width="2.217" height="2.217" transform="translate(161.298 43.095)"/><rect class="e" width="2.217" height="2.217" transform="translate(161.298 54.244)"/><rect class="e" width="2.217" height="2.217" transform="translate(161.298 57.96)"/><rect class="e" width="2.217" height="2.217" transform="translate(161.298 61.677)"/><rect class="e" width="2.217" height="2.217" transform="translate(121.658)"/><rect class="e" width="2.217" height="2.217" transform="translate(121.658 3.716)"/><rect class="e" width="2.217" height="2.217" transform="translate(121.658 7.432)"/><rect class="e" width="2.217" height="2.217" transform="translate(121.658 11.149)"/><rect class="e" width="2.217" height="2.217" transform="translate(121.658 14.865)"/><rect class="e" width="2.217" height="2.217" transform="translate(121.658 18.581)"/><rect class="e" width="2.217" height="2.217" transform="translate(121.658 22.298)"/><rect class="e" width="2.217" height="2.217" transform="translate(121.658 26.014)"/><rect class="e" width="2.217" height="2.217" transform="translate(121.658 37.162)"/><rect class="e" width="2.217" height="2.217" transform="translate(121.658 40.879)"/><rect class="e" width="2.217" height="2.217" transform="translate(118.138)"/><rect class="e" width="2.217" height="2.217" transform="translate(118.138 3.716)"/><rect class="e" width="2.217" height="2.217" transform="translate(118.138 7.432)"/><rect class="e" width="2.217" height="2.217" transform="translate(118.138 11.149)"/><rect class="e" width="2.217" height="2.217" transform="translate(118.138 14.865)"/><rect class="e" width="2.217" height="2.217" transform="translate(118.138 18.581)"/><rect class="e" width="2.217" height="2.217" transform="translate(118.138 22.298)"/><rect class="e" width="2.217" height="2.217" transform="translate(118.138 26.014)"/><rect class="e" width="2.217" height="2.217" transform="translate(118.138 40.879)"/><rect class="e" width="2.217" height="2.217" transform="translate(114.617)"/><rect class="e" width="2.217" height="2.217" transform="translate(114.617 3.716)"/><rect class="e" width="2.217" height="2.217" transform="translate(114.617 7.432)"/><rect class="e" width="2.217" height="2.217" transform="translate(114.617 11.149)"/><rect class="e" width="2.217" height="2.217" transform="translate(114.617 14.865)"/><rect class="e" width="2.217" height="2.217" transform="translate(114.617 18.581)"/><rect class="e" width="2.217" height="2.217" transform="translate(114.617 22.298)"/><rect class="e" width="2.217" height="2.217" transform="translate(114.617 26.014)"/><rect class="e" width="2.217" height="2.217" transform="translate(111.096)"/><rect class="e" width="2.217" height="2.217" transform="translate(111.096 3.716)"/><rect class="e" width="2.217" height="2.217" transform="translate(111.096 7.432)"/><rect class="e" width="2.217" height="2.217" transform="translate(111.096 11.149)"/><rect class="e" width="2.217" height="2.217" transform="translate(111.096 14.865)"/><rect class="e" width="2.217" height="2.217" transform="translate(111.096 18.581)"/><rect class="e" width="2.217" height="2.217" transform="translate(111.096 26.014)"/><rect class="e" width="2.217" height="2.217" transform="translate(111.096 29.73)"/><rect class="e" width="2.217" height="2.217" transform="translate(111.096 40.879)"/><rect class="e" width="2.217" height="2.217" transform="translate(111.096 44.595)"/><rect class="e" width="2.217" height="2.217" transform="translate(111.096 48.311)"/><rect class="e" width="2.217" height="2.217" transform="translate(111.096 52.027)"/><rect class="e" width="2.217" height="2.217" transform="translate(111.096 55.744)"/><rect class="e" width="2.217" height="2.217" transform="translate(111.096 59.46)"/><rect class="e" width="2.217" height="2.217" transform="translate(111.096 63.176)"/><rect class="e" width="2.217" height="2.217" transform="translate(107.576)"/><rect class="e" width="2.217" height="2.217" transform="translate(107.576 3.716)"/><rect class="e" width="2.217" height="2.217" transform="translate(107.576 7.432)"/><rect class="e" width="2.217" height="2.217" transform="translate(107.576 11.149)"/><rect class="e" width="2.217" height="2.217" transform="translate(107.576 14.865)"/><rect class="e" width="2.217" height="2.217" transform="translate(107.576 18.581)"/><rect class="e" width="2.217" height="2.217" transform="translate(107.576 29.73)"/><rect class="e" width="2.217" height="2.217" transform="translate(107.576 33.446)"/><rect class="e" width="2.217" height="2.217" transform="translate(107.576 37.162)"/><rect class="e" width="2.217" height="2.217" transform="translate(107.576 40.879)"/><rect class="e" width="2.217" height="2.217" transform="translate(107.576 44.595)"/><rect class="e" width="2.217" height="2.217" transform="translate(107.576 48.311)"/><rect class="e" width="2.217" height="2.217" transform="translate(107.576 52.027)"/><rect class="e" width="2.217" height="2.217" transform="translate(107.576 55.744)"/><rect class="e" width="2.217" height="2.217" transform="translate(107.576 59.46)"/><rect class="e" width="2.217" height="2.217" transform="translate(107.576 63.176)"/><rect class="e" width="2.217" height="2.217" transform="translate(107.576 66.892)"/><rect class="e" width="2.217" height="2.217" transform="translate(107.576 74.325)"/><rect class="e" width="2.217" height="2.217" transform="translate(104.055)"/><rect class="e" width="2.217" height="2.217" transform="translate(104.055 3.716)"/><rect class="e" width="2.217" height="2.217" transform="translate(104.055 7.432)"/><rect class="e" width="2.217" height="2.217" transform="translate(104.055 11.149)"/><rect class="e" width="2.217" height="2.217" transform="translate(104.055 14.865)"/><rect class="e" width="2.217" height="2.217" transform="translate(104.055 18.581)"/><rect class="e" width="2.217" height="2.217" transform="translate(104.055 29.73)"/><rect class="e" width="2.217" height="2.217" transform="translate(104.055 33.446)"/><rect class="e" width="2.217" height="2.217" transform="translate(104.055 37.162)"/><rect class="e" width="2.217" height="2.217" transform="translate(104.055 40.879)"/><rect class="e" width="2.217" height="2.217" transform="translate(104.055 52.027)"/><rect class="e" width="2.217" height="2.217" transform="translate(104.055 55.744)"/><rect class="e" width="2.217" height="2.217" transform="translate(104.055 59.46)"/><rect class="e" width="2.217" height="2.217" transform="translate(104.055 63.176)"/><rect class="e" width="2.217" height="2.217" transform="translate(104.055 66.892)"/><rect class="e" width="2.217" height="2.217" transform="translate(104.055 74.325)"/><rect class="e" width="2.217" height="2.217" transform="translate(104.055 78.041)"/><rect class="e" width="2.217" height="2.217" transform="translate(72.108 34.555)"/><rect class="e" width="2.217" height="2.217" transform="translate(72.108 38.271)"/><rect class="e" width="2.217" height="2.217" transform="translate(72.108 41.987)"/><rect class="e" width="2.217" height="2.217" transform="translate(72.108 45.703)"/><rect class="e" width="2.217" height="2.217" transform="translate(72.108 49.42)"/><rect class="e" width="2.217" height="2.217" transform="translate(72.108 53.136)"/><rect class="e" width="2.217" height="2.217" transform="translate(72.108 56.852)"/><rect class="e" width="2.217" height="2.217" transform="translate(72.108 68.001)"/><rect class="e" width="2.217" height="2.217" transform="translate(72.108 71.717)"/><rect class="e" width="2.217" height="2.217" transform="translate(72.108 75.433)"/><rect class="e" width="2.217" height="2.217" transform="translate(68.588 34.555)"/><rect class="e" width="2.217" height="2.217" transform="translate(68.588 38.271)"/><rect class="e" width="2.217" height="2.217" transform="translate(68.588 41.987)"/><rect class="e" width="2.217" height="2.217" transform="translate(68.588 45.703)"/><rect class="e" width="2.217" height="2.217" transform="translate(68.588 49.42)"/><rect class="e" width="2.217" height="2.217" transform="translate(68.588 53.136)"/><rect class="e" width="2.217" height="2.217" transform="translate(68.588 56.852)"/><rect class="e" width="2.217" height="2.217" transform="translate(65.067 34.555)"/><rect class="e" width="2.217" height="2.217" transform="translate(65.067 38.271)"/><rect class="e" width="2.217" height="2.217" transform="translate(65.067 41.987)"/><rect class="e" width="2.217" height="2.217" transform="translate(65.067 45.703)"/><rect class="e" width="2.217" height="2.217" transform="translate(65.067 49.42)"/><rect class="e" width="2.217" height="2.217" transform="translate(65.067 53.136)"/><rect class="e" width="2.217" height="2.217" transform="translate(65.067 56.852)"/><rect class="e" width="2.217" height="2.217" transform="translate(61.546 34.555)"/><rect class="e" width="2.217" height="2.217" transform="translate(61.546 38.271)"/><rect class="e" width="2.217" height="2.217" transform="translate(61.546 41.987)"/><rect class="e" width="2.217" height="2.217" transform="translate(61.546 45.703)"/><rect class="e" width="2.217" height="2.217" transform="translate(61.546 49.42)"/><rect class="e" width="2.217" height="2.217" transform="translate(61.546 53.136)"/><rect class="e" width="2.217" height="2.217" transform="translate(61.546 56.852)"/><rect class="e" width="2.217" height="2.217" transform="translate(61.546 60.568)"/><rect class="e" width="2.217" height="2.217" transform="translate(61.546 64.285)"/><rect class="e" width="2.217" height="2.217" transform="translate(61.546 68.001)"/><rect class="e" width="2.217" height="2.217" transform="translate(61.546 71.717)"/><rect class="e" width="2.217" height="2.217" transform="translate(58.026 34.555)"/><rect class="e" width="2.217" height="2.217" transform="translate(58.026 38.271)"/><rect class="e" width="2.217" height="2.217" transform="translate(58.026 41.987)"/><rect class="e" width="2.217" height="2.217" transform="translate(58.026 45.703)"/><rect class="e" width="2.217" height="2.217" transform="translate(58.026 49.42)"/><rect class="e" width="2.217" height="2.217" transform="translate(58.026 53.136)"/><rect class="e" width="2.217" height="2.217" transform="translate(58.026 56.852)"/><rect class="e" width="2.217" height="2.217" transform="translate(58.026 60.568)"/><rect class="e" width="2.217" height="2.217" transform="translate(58.026 64.285)"/><rect class="e" width="2.217" height="2.217" transform="translate(58.026 68.001)"/><rect class="e" width="2.217" height="2.217" transform="translate(58.026 71.717)"/><rect class="e" width="2.217" height="2.217" transform="translate(58.026 75.433)"/><rect class="e" width="2.217" height="2.217" transform="translate(58.026 86.582)"/><rect class="e" width="2.217" height="2.217" transform="translate(58.026 90.298)"/><rect class="e" width="2.217" height="2.217" transform="translate(54.505 34.555)"/><rect class="e" width="2.217" height="2.217" transform="translate(54.505 38.271)"/><rect class="e" width="2.217" height="2.217" transform="translate(54.505 41.987)"/><rect class="e" width="2.217" height="2.217" transform="translate(54.505 53.136)"/><rect class="e" width="2.217" height="2.217" transform="translate(54.505 56.852)"/><rect class="e" width="2.217" height="2.217" transform="translate(54.505 60.568)"/><rect class="e" width="2.217" height="2.217" transform="translate(54.505 64.285)"/><rect class="e" width="2.217" height="2.217" transform="translate(54.505 68.001)"/><rect class="e" width="2.217" height="2.217" transform="translate(54.505 71.717)"/><rect class="e" width="2.217" height="2.217" transform="translate(54.505 75.433)"/><rect class="e" width="2.217" height="2.217" transform="translate(54.505 86.582)"/><rect class="e" width="2.217" height="2.217" transform="translate(54.505 90.298)"/><rect class="e" width="2.217" height="2.217" transform="translate(54.505 94.015)"/><rect class="e" width="2.217" height="2.217" transform="translate(17.603 12.257)"/><rect class="e" width="2.217" height="2.217" transform="translate(17.603 15.973)"/><rect class="e" width="2.217" height="2.217" transform="translate(17.603 19.69)"/><rect class="e" width="2.217" height="2.217" transform="translate(17.603 23.406)"/><rect class="e" width="2.217" height="2.217" transform="translate(17.603 27.122)"/><rect class="e" width="2.217" height="2.217" transform="translate(17.603 30.838)"/><rect class="e" width="2.217" height="2.217" transform="translate(17.603 34.555)"/><rect class="e" width="2.217" height="2.217" transform="translate(17.603 38.271)"/><rect class="e" width="2.217" height="2.217" transform="translate(17.603 41.987)"/><rect class="e" width="2.217" height="2.217" transform="translate(17.603 45.703)"/><rect class="e" width="2.217" height="2.217" transform="translate(17.603 49.42)"/><rect class="e" width="2.217" height="2.217" transform="translate(17.603 53.136)"/><rect class="e" width="2.217" height="2.217" transform="translate(17.603 56.852)"/><rect class="e" width="2.217" height="2.217" transform="translate(17.603 60.568)"/><rect class="e" width="2.217" height="2.217" transform="translate(17.603 64.285)"/><rect class="e" width="2.217" height="2.217" transform="translate(17.603 68.001)"/><rect class="e" width="2.217" height="2.217" transform="translate(17.603 71.717)"/><rect class="e" width="2.217" height="2.217" transform="translate(17.603 75.433)"/><rect class="e" width="2.217" height="2.217" transform="translate(17.603 79.15)"/><rect class="e" width="2.217" height="2.217" transform="translate(17.603 82.866)"/><rect class="e" width="2.217" height="2.217" transform="translate(17.603 86.582)"/><rect class="e" width="2.217" height="2.217" transform="translate(17.603 90.298)"/><rect class="e" width="2.217" height="2.217" transform="translate(17.603 94.015)"/><rect class="e" width="2.217" height="2.217" transform="translate(14.083 12.257)"/><rect class="e" width="2.217" height="2.217" transform="translate(14.083 15.973)"/><rect class="e" width="2.217" height="2.217" transform="translate(14.083 19.69)"/><rect class="e" width="2.217" height="2.217" transform="translate(14.083 23.406)"/><rect class="e" width="2.217" height="2.217" transform="translate(14.083 27.122)"/><rect class="e" width="2.217" height="2.217" transform="translate(14.083 30.838)"/><rect class="e" width="2.217" height="2.217" transform="translate(14.083 34.555)"/><rect class="e" width="2.217" height="2.217" transform="translate(14.083 38.271)"/><rect class="e" width="2.217" height="2.217" transform="translate(14.083 41.987)"/><rect class="e" width="2.217" height="2.217" transform="translate(14.083 45.703)"/><rect class="e" width="2.217" height="2.217" transform="translate(14.083 49.42)"/><rect class="e" width="2.217" height="2.217" transform="translate(14.083 53.136)"/><rect class="e" width="2.217" height="2.217" transform="translate(14.083 56.852)"/><rect class="e" width="2.217" height="2.217" transform="translate(14.083 60.568)"/><rect class="e" width="2.217" height="2.217" transform="translate(14.083 64.285)"/><rect class="e" width="2.217" height="2.217" transform="translate(14.083 68.001)"/><rect class="e" width="2.217" height="2.217" transform="translate(14.083 71.717)"/><rect class="e" width="2.217" height="2.217" transform="translate(14.083 75.433)"/><rect class="e" width="2.217" height="2.217" transform="translate(14.083 79.15)"/><rect class="e" width="2.217" height="2.217" transform="translate(10.562 12.257)"/><rect class="e" width="2.217" height="2.217" transform="translate(10.562 15.973)"/><rect class="e" width="2.217" height="2.217" transform="translate(10.562 19.69)"/><rect class="e" width="2.217" height="2.217" transform="translate(10.562 23.406)"/><rect class="e" width="2.217" height="2.217" transform="translate(10.562 27.122)"/><rect class="e" width="2.217" height="2.217" transform="translate(10.562 30.838)"/><rect class="e" width="2.217" height="2.217" transform="translate(10.562 34.555)"/><rect class="e" width="2.217" height="2.217" transform="translate(10.562 38.271)"/><rect class="e" width="2.217" height="2.217" transform="translate(10.562 41.987)"/><rect class="e" width="2.217" height="2.217" transform="translate(10.562 45.703)"/><rect class="e" width="2.217" height="2.217" transform="translate(10.562 49.42)"/><rect class="e" width="2.217" height="2.217" transform="translate(10.562 53.136)"/><rect class="e" width="2.217" height="2.217" transform="translate(10.562 56.852)"/><rect class="e" width="2.217" height="2.217" transform="translate(10.562 60.568)"/><rect class="e" width="2.217" height="2.217" transform="translate(10.562 64.285)"/><rect class="e" width="2.217" height="2.217" transform="translate(10.562 68.001)"/><rect class="e" width="2.217" height="2.217" transform="translate(10.562 71.717)"/><rect class="e" width="2.217" height="2.217" transform="translate(10.562 75.433)"/><rect class="e" width="2.217" height="2.217" transform="translate(10.562 79.15)"/><rect class="e" width="2.217" height="2.217" transform="translate(7.041 12.257)"/><rect class="e" width="2.217" height="2.217" transform="translate(7.041 15.973)"/><rect class="e" width="2.217" height="2.217" transform="translate(7.041 19.69)"/><rect class="e" width="2.217" height="2.217" transform="translate(7.041 23.406)"/><rect class="e" width="2.217" height="2.217" transform="translate(7.041 27.122)"/><rect class="e" width="2.217" height="2.217" transform="translate(7.041 30.838)"/><rect class="e" width="2.217" height="2.217" transform="translate(7.041 34.555)"/><rect class="e" width="2.217" height="2.217" transform="translate(7.041 38.271)"/><rect class="e" width="2.217" height="2.217" transform="translate(7.041 41.987)"/><rect class="e" width="2.217" height="2.217" transform="translate(7.041 45.703)"/><rect class="e" width="2.217" height="2.217" transform="translate(7.041 49.42)"/><rect class="e" width="2.217" height="2.217" transform="translate(7.041 53.136)"/><rect class="e" width="2.217" height="2.217" transform="translate(7.041 56.852)"/><rect class="e" width="2.217" height="2.217" transform="translate(7.041 60.568)"/><rect class="e" width="2.217" height="2.217" transform="translate(7.041 64.285)"/><rect class="e" width="2.217" height="2.217" transform="translate(3.521 12.257)"/><rect class="e" width="2.217" height="2.217" transform="translate(3.521 15.973)"/><rect class="e" width="2.217" height="2.217" transform="translate(3.521 19.69)"/><rect class="e" width="2.217" height="2.217" transform="translate(3.521 23.406)"/><rect class="e" width="2.217" height="2.217" transform="translate(3.521 27.122)"/><rect class="e" width="2.217" height="2.217" transform="translate(3.521 30.838)"/><rect class="e" width="2.217" height="2.217" transform="translate(3.521 34.555)"/><rect class="e" width="2.217" height="2.217" transform="translate(3.521 38.271)"/><rect class="e" width="2.217" height="2.217" transform="translate(3.521 41.987)"/><rect class="e" width="2.217" height="2.217" transform="translate(3.521 45.703)"/><rect class="e" width="2.217" height="2.217" transform="translate(3.521 49.42)"/><rect class="e" width="2.217" height="2.217" transform="translate(3.521 53.136)"/><rect class="e" width="2.217" height="2.217" transform="translate(3.521 56.852)"/><rect class="e" width="2.217" height="2.217" transform="translate(0 12.257)"/><rect class="e" width="2.217" height="2.217" transform="translate(0 15.973)"/><rect class="e" width="2.217" height="2.217" transform="translate(0 19.69)"/><rect class="e" width="2.217" height="2.217" transform="translate(0 23.406)"/><rect class="e" width="2.217" height="2.217" transform="translate(0 27.122)"/><rect class="e" width="2.217" height="2.217" transform="translate(0 30.838)"/><rect class="e" width="2.217" height="2.217" transform="translate(0 34.555)"/><rect class="e" width="2.217" height="2.217" transform="translate(0 38.271)"/><rect class="e" width="2.217" height="2.217" transform="translate(0 41.987)"/><rect class="e" width="2.217" height="2.217" transform="translate(0 45.703)"/><rect class="e" width="2.217" height="2.217" transform="translate(0 49.42)"/><rect class="e" width="2.217" height="2.217" transform="translate(0 53.136)"/><rect class="e" width="2.217" height="2.217" transform="translate(205.502 11.149)"/><rect class="e" width="2.217" height="2.217" transform="translate(205.502 14.865)"/><rect class="e" width="2.217" height="2.217" transform="translate(205.502 18.581)"/><rect class="e" width="2.217" height="2.217" transform="translate(205.502 22.298)"/><rect class="e" width="2.217" height="2.217" transform="translate(205.502 26.014)"/><rect class="e" width="2.217" height="2.217" transform="translate(205.502 29.73)"/><rect class="e" width="2.217" height="2.217" transform="translate(205.502 33.446)"/><rect class="e" width="2.217" height="2.217" transform="translate(205.502 37.162)"/><rect class="e" width="2.217" height="2.217" transform="translate(205.502 40.879)"/><rect class="e" width="2.217" height="2.217" transform="translate(205.502 44.595)"/><rect class="e" width="2.217" height="2.217" transform="translate(205.502 48.311)"/><rect class="e" width="2.217" height="2.217" transform="translate(205.502 52.027)"/><rect class="e" width="2.217" height="2.217" transform="translate(205.502 55.744)"/><rect class="e" width="2.217" height="2.217" transform="translate(205.502 59.46)"/><rect class="e" width="2.217" height="2.217" transform="translate(205.502 63.176)"/><rect class="e" width="2.217" height="2.217" transform="translate(205.502 66.892)"/><rect class="e" width="2.217" height="2.217" transform="translate(205.502 70.609)"/><rect class="e" width="2.217" height="2.217" transform="translate(205.502 78.041)"/><rect class="e" width="2.217" height="2.217" transform="translate(205.502 81.757)"/><rect class="e" width="2.217" height="2.217" transform="translate(205.502 85.474)"/><rect class="e" width="2.217" height="2.217" transform="translate(205.502 89.19)"/><rect class="e" width="2.217" height="2.217" transform="translate(205.502 92.906)"/><rect class="e" width="2.217" height="2.217" transform="translate(201.981 11.149)"/><rect class="e" width="2.217" height="2.217" transform="translate(201.981 14.865)"/><rect class="e" width="2.217" height="2.217" transform="translate(201.981 18.581)"/><rect class="e" width="2.217" height="2.217" transform="translate(201.981 22.298)"/><rect class="e" width="2.217" height="2.217" transform="translate(201.981 26.014)"/><rect class="e" width="2.217" height="2.217" transform="translate(201.981 29.73)"/><rect class="e" width="2.217" height="2.217" transform="translate(201.981 33.446)"/><rect class="e" width="2.217" height="2.217" transform="translate(201.981 37.162)"/><rect class="e" width="2.217" height="2.217" transform="translate(201.981 40.879)"/><rect class="e" width="2.217" height="2.217" transform="translate(201.981 44.595)"/><rect class="e" width="2.217" height="2.217" transform="translate(201.981 48.311)"/><rect class="e" width="2.217" height="2.217" transform="translate(201.981 52.027)"/><rect class="e" width="2.217" height="2.217" transform="translate(201.981 55.744)"/><rect class="e" width="2.217" height="2.217" transform="translate(201.981 59.46)"/><rect class="e" width="2.217" height="2.217" transform="translate(201.981 63.176)"/><rect class="e" width="2.217" height="2.217" transform="translate(201.981 66.892)"/><rect class="e" width="2.217" height="2.217" transform="translate(201.981 89.19)"/><rect class="e" width="2.217" height="2.217" transform="translate(201.981 92.906)"/><rect class="e" width="2.217" height="2.217" transform="translate(198.461 11.149)"/><rect class="e" width="2.217" height="2.217" transform="translate(198.461 14.865)"/><rect class="e" width="2.217" height="2.217" transform="translate(198.461 18.581)"/><rect class="e" width="2.217" height="2.217" transform="translate(198.461 22.298)"/><rect class="e" width="2.217" height="2.217" transform="translate(198.461 26.014)"/><rect class="e" width="2.217" height="2.217" transform="translate(198.461 29.73)"/><rect class="e" width="2.217" height="2.217" transform="translate(198.461 33.446)"/><rect class="e" width="2.217" height="2.217" transform="translate(198.461 37.162)"/><rect class="e" width="2.217" height="2.217" transform="translate(198.461 40.879)"/><rect class="e" width="2.217" height="2.217" transform="translate(198.461 44.595)"/><rect class="e" width="2.217" height="2.217" transform="translate(198.461 48.311)"/><rect class="e" width="2.217" height="2.217" transform="translate(198.461 52.027)"/><rect class="e" width="2.217" height="2.217" transform="translate(198.461 55.744)"/><rect class="e" width="2.217" height="2.217" transform="translate(198.461 59.46)"/><rect class="e" width="2.217" height="2.217" transform="translate(198.461 63.176)"/><rect class="e" width="2.217" height="2.217" transform="translate(198.461 66.892)"/><rect class="e" width="2.217" height="2.217" transform="translate(198.461 74.325)"/><rect class="e" width="2.217" height="2.217" transform="translate(198.461 78.041)"/><rect class="e" width="2.217" height="2.217" transform="translate(198.461 81.757)"/><rect class="e" width="2.217" height="2.217" transform="translate(198.461 85.474)"/><rect class="e" width="2.217" height="2.217" transform="translate(198.461 92.906)"/><rect class="e" width="2.217" height="2.217" transform="translate(137.045 37.162)"/><rect class="e" width="2.217" height="2.217" transform="translate(137.045 40.879)"/><rect class="e" width="2.217" height="2.217" transform="translate(137.045 44.595)"/><rect class="e" width="2.217" height="2.217" transform="translate(137.045 48.311)"/><rect class="e" width="2.217" height="2.217" transform="translate(137.045 52.027)"/><rect class="e" width="2.217" height="2.217" transform="translate(137.045 55.744)"/><rect class="e" width="2.217" height="2.217" transform="translate(137.045 59.46)"/><rect class="e" width="2.217" height="2.217" transform="translate(137.045 63.176)"/><rect class="e" width="2.217" height="2.217" transform="translate(137.045 66.892)"/><rect class="e" width="2.217" height="2.217" transform="translate(137.045 70.609)"/><rect class="e" width="2.217" height="2.217" transform="translate(137.045 74.325)"/><rect class="e" width="2.217" height="2.217" transform="translate(137.045 78.041)"/><rect class="e" width="2.217" height="2.217" transform="translate(137.045 81.757)"/><rect class="e" width="2.217" height="2.217" transform="translate(137.045 89.19)"/><rect class="e" width="2.217" height="2.217" transform="translate(137.045 92.906)"/><rect class="e" width="2.217" height="2.217" transform="translate(137.045 96.622)"/><rect class="e" width="2.217" height="2.217" transform="translate(137.045 100.339)"/><rect class="e" width="2.217" height="2.217" transform="translate(137.045 107.771)"/><rect class="e" width="2.217" height="2.217" transform="translate(137.045 111.487)"/><rect class="e" width="2.217" height="2.217" transform="translate(137.045 115.204)"/><rect class="e" width="2.217" height="2.217" transform="translate(133.524 37.162)"/><rect class="e" width="2.217" height="2.217" transform="translate(133.524 40.879)"/><rect class="e" width="2.217" height="2.217" transform="translate(133.524 44.595)"/><rect class="e" width="2.217" height="2.217" transform="translate(133.524 48.311)"/><rect class="e" width="2.217" height="2.217" transform="translate(133.524 52.027)"/><rect class="e" width="2.217" height="2.217" transform="translate(133.524 55.744)"/><rect class="e" width="2.217" height="2.217" transform="translate(133.524 59.46)"/><rect class="e" width="2.217" height="2.217" transform="translate(133.524 63.176)"/><rect class="e" width="2.217" height="2.217" transform="translate(133.524 66.892)"/><rect class="e" width="2.217" height="2.217" transform="translate(133.524 70.609)"/><rect class="e" width="2.217" height="2.217" transform="translate(133.524 74.325)"/><rect class="e" width="2.217" height="2.217" transform="translate(133.524 78.041)"/><rect class="e" width="2.217" height="2.217" transform="translate(133.524 81.757)"/><rect class="e" width="2.217" height="2.217" transform="translate(133.524 92.906)"/><rect class="e" width="2.217" height="2.217" transform="translate(133.524 96.622)"/><rect class="e" width="2.217" height="2.217" transform="translate(133.524 104.055)"/><rect class="e" width="2.217" height="2.217" transform="translate(133.524 107.771)"/><rect class="e" width="2.217" height="2.217" transform="translate(133.524 111.487)"/><rect class="e" width="2.217" height="2.217" transform="translate(133.524 115.204)"/><rect class="e" width="2.217" height="2.217" transform="translate(130.003 37.162)"/><rect class="e" width="2.217" height="2.217" transform="translate(130.003 40.879)"/><rect class="e" width="2.217" height="2.217" transform="translate(130.003 44.595)"/><rect class="e" width="2.217" height="2.217" transform="translate(130.003 48.311)"/><rect class="e" width="2.217" height="2.217" transform="translate(130.003 52.027)"/><rect class="e" width="2.217" height="2.217" transform="translate(130.003 55.744)"/><rect class="e" width="2.217" height="2.217" transform="translate(130.003 59.46)"/><rect class="e" width="2.217" height="2.217" transform="translate(130.003 63.176)"/><rect class="e" width="2.217" height="2.217" transform="translate(130.003 66.892)"/><rect class="e" width="2.217" height="2.217" transform="translate(130.003 70.609)"/><rect class="e" width="2.217" height="2.217" transform="translate(130.003 74.325)"/><rect class="e" width="2.217" height="2.217" transform="translate(130.003 78.041)"/><rect class="e" width="2.217" height="2.217" transform="translate(130.003 81.757)"/><rect class="e" width="2.217" height="2.217" transform="translate(130.003 85.474)"/><rect class="e" width="2.217" height="2.217" transform="translate(130.003 92.906)"/><rect class="e" width="2.217" height="2.217" transform="translate(130.003 100.339)"/><rect class="e" width="2.217" height="2.217" transform="translate(130.003 104.055)"/><rect class="e" width="2.217" height="2.217" transform="translate(130.003 107.771)"/><rect class="e" width="2.217" height="2.217" transform="translate(130.003 111.487)"/><rect class="e" width="2.217" height="2.217" transform="translate(130.003 115.204)"/><rect class="e" width="2.217" height="2.217" transform="translate(151.388 58.352)"/><rect class="e" width="2.217" height="2.217" transform="translate(151.388 62.068)"/><rect class="e" width="2.217" height="2.217" transform="translate(151.388 65.784)"/><rect class="e" width="2.217" height="2.217" transform="translate(151.388 69.5)"/><rect class="e" width="2.217" height="2.217" transform="translate(151.388 73.217)"/><rect class="e" width="2.217" height="2.217" transform="translate(151.388 76.933)"/><rect class="e" width="2.217" height="2.217" transform="translate(151.388 88.082)"/><rect class="e" width="2.217" height="2.217" transform="translate(151.388 91.798)"/><rect class="e" width="2.217" height="2.217" transform="translate(151.388 95.514)"/><rect class="e" width="2.217" height="2.217" transform="translate(151.388 99.23)"/><rect class="e" width="2.217" height="2.217" transform="translate(151.388 102.947)"/><rect class="e" width="2.217" height="2.217" transform="translate(151.388 106.663)"/><rect class="e" width="2.217" height="2.217" transform="translate(151.388 110.379)"/><rect class="e" width="2.217" height="2.217" transform="translate(147.867 58.352)"/><rect class="e" width="2.217" height="2.217" transform="translate(147.867 62.068)"/><rect class="e" width="2.217" height="2.217" transform="translate(147.867 65.784)"/><rect class="e" width="2.217" height="2.217" transform="translate(147.867 69.5)"/><rect class="e" width="2.217" height="2.217" transform="translate(147.867 73.217)"/><rect class="e" width="2.217" height="2.217" transform="translate(147.867 76.933)"/><rect class="e" width="2.217" height="2.217" transform="translate(147.867 88.082)"/><rect class="e" width="2.217" height="2.217" transform="translate(147.867 91.798)"/><rect class="e" width="2.217" height="2.217" transform="translate(147.867 95.514)"/><rect class="e" width="2.217" height="2.217" transform="translate(147.867 99.23)"/><rect class="e" width="2.217" height="2.217" transform="translate(147.867 102.947)"/><rect class="e" width="2.217" height="2.217" transform="translate(147.867 106.663)"/><rect class="e" width="2.217" height="2.217" transform="translate(147.867 114.095)"/><rect class="e" width="2.217" height="2.217" transform="translate(30.904 41.987)"/><rect class="e" width="2.217" height="2.217" transform="translate(30.904 45.703)"/><rect class="e" width="2.217" height="2.217" transform="translate(30.904 49.42)"/><rect class="e" width="2.217" height="2.217" transform="translate(30.904 53.136)"/><rect class="e" width="2.217" height="2.217" transform="translate(30.904 56.852)"/><rect class="e" width="2.217" height="2.217" transform="translate(30.904 60.568)"/><rect class="e" width="2.217" height="2.217" transform="translate(30.904 64.285)"/><rect class="e" width="2.217" height="2.217" transform="translate(30.904 68.001)"/><rect class="e" width="2.217" height="2.217" transform="translate(30.904 71.717)"/><rect class="e" width="2.217" height="2.217" transform="translate(30.904 75.433)"/><rect class="e" width="2.217" height="2.217" transform="translate(30.904 79.15)"/><rect class="e" width="2.217" height="2.217" transform="translate(30.904 86.582)"/><rect class="e" width="2.217" height="2.217" transform="translate(30.904 90.298)"/><rect class="e" width="2.217" height="2.217" transform="translate(30.904 94.015)"/><rect class="e" width="2.217" height="2.217" transform="translate(30.904 97.731)"/><rect class="e" width="2.217" height="2.217" transform="translate(30.904 101.447)"/><rect class="e" width="2.217" height="2.217" transform="translate(30.904 105.163)"/><rect class="e" width="2.217" height="2.217" transform="translate(30.904 108.88)"/><rect class="e" width="2.217" height="2.217" transform="translate(30.904 112.596)"/><rect class="e" width="2.217" height="2.217" transform="translate(27.383 41.987)"/><rect class="e" width="2.217" height="2.217" transform="translate(27.383 45.703)"/><rect class="e" width="2.217" height="2.217" transform="translate(27.383 49.42)"/><rect class="e" width="2.217" height="2.217" transform="translate(27.383 53.136)"/><rect class="e" width="2.217" height="2.217" transform="translate(27.383 56.852)"/><rect class="e" width="2.217" height="2.217" transform="translate(27.383 60.568)"/><rect class="e" width="2.217" height="2.217" transform="translate(27.383 64.285)"/><rect class="e" width="2.217" height="2.217" transform="translate(27.383 68.001)"/><rect class="e" width="2.217" height="2.217" transform="translate(27.383 71.717)"/><rect class="e" width="2.217" height="2.217" transform="translate(27.383 75.433)"/><rect class="e" width="2.217" height="2.217" transform="translate(27.383 79.15)"/><rect class="e" width="2.217" height="2.217" transform="translate(27.383 82.866)"/><rect class="e" width="2.217" height="2.217" transform="translate(27.383 86.582)"/><rect class="e" width="2.217" height="2.217" transform="translate(27.383 90.298)"/><rect class="e" width="2.217" height="2.217" transform="translate(27.383 94.015)"/><rect class="e" width="2.217" height="2.217" transform="translate(27.383 97.731)"/><rect class="e" width="2.217" height="2.217" transform="translate(27.383 101.447)"/><rect class="e" width="2.217" height="2.217" transform="translate(27.383 105.163)"/><rect class="e" width="2.217" height="2.217" transform="translate(27.383 108.88)"/><rect class="e" width="2.217" height="2.217" transform="translate(27.383 112.596)"/><rect class="e" width="2.217" height="2.217" transform="translate(48.246 56.461)"/><rect class="e" width="2.217" height="2.217" transform="translate(48.246 60.177)"/><rect class="e" width="2.217" height="2.217" transform="translate(48.246 63.893)"/><rect class="e" width="2.217" height="2.217" transform="translate(48.246 67.61)"/><rect class="e" width="2.217" height="2.217" transform="translate(48.246 71.326)"/><rect class="e" width="2.217" height="2.217" transform="translate(48.246 75.042)"/><rect class="e" width="2.217" height="2.217" transform="translate(48.246 78.758)"/><rect class="e" width="2.217" height="2.217" transform="translate(48.246 82.475)"/><rect class="e" width="2.217" height="2.217" transform="translate(48.246 86.191)"/><rect class="e" width="2.217" height="2.217" transform="translate(48.246 89.907)"/><rect class="e" width="2.217" height="2.217" transform="translate(44.725 56.461)"/><rect class="e" width="2.217" height="2.217" transform="translate(44.725 60.177)"/><rect class="e" width="2.217" height="2.217" transform="translate(44.725 63.893)"/><rect class="e" width="2.217" height="2.217" transform="translate(44.725 67.61)"/><rect class="e" width="2.217" height="2.217" transform="translate(44.725 71.326)"/><rect class="e" width="2.217" height="2.217" transform="translate(44.725 75.042)"/><rect class="e" width="2.217" height="2.217" transform="translate(44.725 78.758)"/><rect class="e" width="2.217" height="2.217" transform="translate(44.725 82.475)"/><rect class="e" width="2.217" height="2.217" transform="translate(44.725 86.191)"/></g></g><g transform="translate(71.652 0.412)"><rect class="b" width="3.721" height="207.268"/><rect class="b" width="3.721" height="207.268" transform="translate(69.988)"/><rect class="b" width="3.721" height="207.268" transform="translate(139.977)"/></g></g><g transform="translate(81.443 271.184)"><path class="e" d="M4.405,0H26.354A4.405,4.405,0,0,1,30.76,4.405V48.23a0,0,0,0,1,0,0H0a0,0,0,0,1,0,0V4.405A4.405,4.405,0,0,1,4.405,0Z"/><rect class="d" width="30.76" height="3.455" transform="translate(0 6.519)"/><path class="b" d="M2.374,0H9.511a2.374,2.374,0,0,1,2.374,2.374V5.842a0,0,0,0,1,0,0H0a0,0,0,0,1,0,0V2.374A2.374,2.374,0,0,1,2.374,0Z" transform="translate(15.38 42.388)"/><path class="d" d="M172.89,381.941h-8.524A1.367,1.367,0,0,1,163,380.574h0a1.367,1.367,0,0,1,1.367-1.367h8.524a1.367,1.367,0,0,1,1.367,1.367h0A1.367,1.367,0,0,1,172.89,381.941Z" transform="translate(-145.586 -333.711)"/></g><g transform="translate(215.32 0)"><circle class="b" cx="20.946" cy="20.946" r="20.946" transform="translate(0 9.625) rotate(-13.283)"/><circle class="e" cx="17.809" cy="17.809" r="17.809" transform="translate(4.766 10.471) rotate(-9.217)"/><path class="f" d="M323.245,70.028v12.45l8.25-4.669" transform="translate(-297.207 -57.047)"/></g><g transform="translate(0 222.126)"><g class="g" transform="translate(1.681)"><path class="h" d="M92.147,309.127c-1.6-2.636-4.236-.343-4.236-.343.377-5.051-4.27-8.506-4.27-8.506s5.4,0,6.154-5.152-1.883-2.756-4.357-2.791-5.058,7.19-1.8,11.254,2.388,11-5.144,17.67a14.713,14.713,0,0,0-3.931,6.138c.568-6.128.889-14.763-.914-20.528-3.064-9.791,2.774-12.427,4.468-17.322s-4.468-9.038-4.468-9.038,5.786-2.636,2.962-5.649-8.662-2.6-8.662,1.335,3.955,5.443,3.955,5.443,4.518,4.708,4.518,7.155-4.518,7.72-4.518,7.72,2.07-4.512-2.071-4.7-5.461,5.269-3.766,7.716,4.518.377,4.518.377a47.712,47.712,0,0,0,1.295,8.472c.424,1.409.225,6.931-.132,12.677a14.267,14.267,0,0,0-3.668-5.441c-7.531-6.67-8.405-13.607-5.144-17.67s.676-11.288-1.8-11.253-5.109-2.362-4.356,2.791,6.153,5.152,6.153,5.152-4.647,3.456-4.27,8.506c0,0-2.636-2.292-4.236.344-2.857,4.706,3.766,7.625,4.879,5.309,0,0,14.044,9.942,10.655,24.251l.787,1.161c-.1,1.155-.165,1.851-.165,1.851l1.1-.473,1.25,1.845a42.558,42.558,0,0,0,.319,6.22l3.358-4.957c-3.389-14.31,10.654-24.251,10.654-24.251C88.382,316.752,95,313.834,92.147,309.127Z" transform="translate(-53.723 -272.88)"/><path class="i" d="M92.147,309.127c-1.6-2.636-4.236-.343-4.236-.343.377-5.051-4.27-8.506-4.27-8.506s5.4,0,6.154-5.152-1.883-2.756-4.357-2.791-5.058,7.19-1.8,11.254,2.388,11-5.144,17.67a14.713,14.713,0,0,0-3.931,6.138c.568-6.128.889-14.763-.914-20.528-3.064-9.791,2.774-12.427,4.468-17.322s-4.468-9.038-4.468-9.038,5.786-2.636,2.962-5.649-8.662-2.6-8.662,1.335,3.955,5.443,3.955,5.443,4.518,4.708,4.518,7.155-4.518,7.72-4.518,7.72,2.07-4.512-2.071-4.7-5.461,5.269-3.766,7.716,4.518.377,4.518.377a47.712,47.712,0,0,0,1.295,8.472c.424,1.409.225,6.931-.132,12.677a14.267,14.267,0,0,0-3.668-5.441c-7.531-6.67-8.405-13.607-5.144-17.67s.676-11.288-1.8-11.253-5.109-2.362-4.356,2.791,6.153,5.152,6.153,5.152-4.647,3.456-4.27,8.506c0,0-2.636-2.292-4.236.344-2.857,4.706,3.766,7.625,4.879,5.309,0,0,14.044,9.942,10.655,24.251l.787,1.161c-.1,1.155-.165,1.851-.165,1.851l1.1-.473,1.25,1.845a42.558,42.558,0,0,0,.319,6.22l3.358-4.957c-3.389-14.31,10.654-24.251,10.654-24.251C88.382,316.752,95,313.834,92.147,309.127Z" transform="translate(-53.723 -272.88)"/></g><path class="d" d="M89.4,377.9H57.235l-3.471-35.221h39.11Z" transform="translate(-52.047 -280.608)"/><rect class="e" width="42.545" height="7.772" transform="translate(0 58.181)"/></g></g><ellipse class="c" cx="172.42" cy="10.07" rx="172.42" ry="10.07" transform="translate(49.898 353.027)"/><g transform="translate(252.984 198.727)"><path class="j" d="M354.9,389.533l-25.622-2.518V351.006H319.128v36L293.4,389.533a4.988,4.988,0,0,0-4.5,4.965v3.847h70.5V394.5A4.989,4.989,0,0,0,354.9,389.533Z" transform="translate(-284.974 -244.645)"/><path class="k" d="M354.9,389.533l-25.622-2.518V351.006H319.128v36L293.4,389.533a4.988,4.988,0,0,0-4.5,4.965v3.847h70.5V394.5A4.989,4.989,0,0,0,354.9,389.533Z" transform="translate(-284.974 -244.645)"/><circle class="j" cx="6.639" cy="6.639" r="6.639" transform="translate(0 151.833)"/><circle class="j" cx="6.639" cy="6.639" r="6.639" transform="translate(65.081 151.833)"/><path class="j" d="M0,0H13.652a0,0,0,0,1,0,0V27.939a4.133,4.133,0,0,1-4.133,4.133H4.133A4.133,4.133,0,0,1,0,27.939V0A0,0,0,0,1,0,0Z" transform="translate(32.406 82.028)"/><path class="l" d="M0,0H13.652a0,0,0,0,1,0,0V27.939a4.133,4.133,0,0,1-4.133,4.133H4.133A4.133,4.133,0,0,1,0,27.939V0A0,0,0,0,1,0,0Z" transform="translate(32.406 82.028)"/><path class="j" d="M354.477,260.35s1.935,48.017-11.433,56.285h15.263s11.826-16.358,8.484-56.285Z" transform="translate(-290.969 -234.607)"/><path class="l" d="M354.477,260.35s1.935,48.017-11.433,56.285h15.263s11.826-16.358,8.484-56.285Z" transform="translate(-290.969 -234.607)"/><path class="j" d="M0,0H68.4a0,0,0,0,1,0,0V5.395a5,5,0,0,1-5,5H5a5,5,0,0,1-5-5V0A0,0,0,0,1,0,0Z" transform="translate(72.536 85.708) rotate(180)"/><g transform="translate(1.281 80.51)"><rect class="j" width="74.106" height="5.197" rx="2.011" transform="translate(74.106 5.197) rotate(180)"/><rect class="m" width="74.106" height="5.197" rx="2.011" transform="translate(74.106 5.197) rotate(180)"/></g><rect class="j" width="50.388" height="35.499" rx="14.584" transform="translate(42.144)"/></g><g transform="translate(198.43 136.085)"><path class="n" d="M260.537,184.365,255.658,171.5s2.092-1.937.657-3.9-10.44-7.493-12.082-6.521-5.286,4.636-3.316,6.669,10.694,5.426,10.694,5.426l4.315,16.884Z" transform="translate(-225.043 -160.96)"/><g transform="translate(26.342 14.434)"><path class="o" d="M296.052,210.692s-22.205-4.565-24.612-5.654-11.347-27.269-11.347-27.269l-6.851,3.2s5.514,26.27,11.154,32.517,29.693,11.53,29.693,11.53Z" transform="translate(-252.813 -177.255)"/><path class="p" d="M294.086,225.014s-.14-.029-.407-.094c-1.215-.273-5.007-1.168-9.519-2.486-7.323-2.126-16.545-5.377-19.769-8.943-5.631-6.251-11.152-32.522-11.152-32.522l6.849-3.2s8.939,26.179,11.355,27.268,24.611,5.65,24.611,5.65Z" transform="translate(-252.812 -177.255)"/><path class="o" d="M260.147,177.191l1.416,2.729-8.8,3.032.34-3.336Z" transform="translate(-252.759 -177.191)"/></g><path class="q" d="M298.157,229.423c-1.233-.178-5.082-.776-9.683-1.741,2.623-4.529,10.307-6.858,10.307-6.858Z" transform="translate(-230.372 -167.589)"/><path class="j" d="M332.451,193.351s1.305,12.3-3.251,15.319-26.969-.518-29.511-5.465,7.024-18.383,7.024-18.383Z" transform="translate(-231.566 -163.602)"/><path class="n" d="M234.593,374.3l5.848,1.408,2.96-8.072,2.687-7.343-6.66-2.841-2.561,8.911Z" transform="translate(-224.406 -182.717)"/><path class="r" d="M237.149,366.36l6.534,1.273,2.687-7.343-6.66-2.841Z" transform="translate(-224.689 -182.717)"/><g transform="translate(13.048 96.639)"><path class="o" d="M237.81,352.375l8.11,3.015S267.556,301.3,272,301.109s49.719,20.622,61.066,9.079-5.06-39.341-5.06-39.341-27.292-3.9-29.346,2.268a43.217,43.217,0,0,0-1.156,5.531c-.311,1.885-.525,3.468-.525,3.468a.027.027,0,0,1-.018-.009c-.845-.213-28.243-7.283-39.039.009C246.961,289.53,237.81,352.375,237.81,352.375Z" transform="translate(-237.81 -269.633)"/><path class="m" d="M237.81,352.375l8.11,3.015S267.556,301.3,272,301.109s49.719,20.622,61.066,9.079-5.06-39.341-5.06-39.341-27.292-3.9-29.346,2.268a43.217,43.217,0,0,0-1.156,5.531c-.311,1.885-.525,3.468-.525,3.468a.027.027,0,0,1-.018-.009c-.845-.213-28.243-7.283-39.039.009C246.961,289.53,237.81,352.375,237.81,352.375Z" transform="translate(-237.81 -269.633)"/></g><path class="n" d="M289.826,400.162l5.827-1.492-1.121-8.359-1.041-7.667-7.205.646,1.871,8.933Z" transform="translate(-230.13 -185.507)"/><path class="r" d="M288.2,392.414l6.37-1.933-1.061-7.746-7.216.606Z" transform="translate(-230.131 -185.517)"/><path class="o" d="M249.163,362.194l-11.813-4.016-.5,4.84,8.96,3.167Z" transform="translate(-224.655 -182.798)"/><g transform="translate(36.051 124.452)"><path class="o" d="M316.334,316.427s-1.848.044-30.474-1.29c0,0,4.278,35.789,6.612,62.58l-8.56,1.459s-20.453-57.37-20.231-66.485,10.671-11.783,10.671-11.783S294.746,312.691,316.334,316.427Z" transform="translate(-263.678 -300.908)"/><path class="m" d="M316.334,316.427s-1.848.044-30.474-1.29c0,0,4.278,35.789,6.612,62.58l-8.56,1.459s-20.453-57.37-20.231-66.485,10.671-11.783,10.671-11.783S294.746,312.691,316.334,316.427Z" transform="translate(-263.678 -300.908)"/><path class="s" d="M316.334,316.427s-1.848.044-30.474-1.29c0,0,4.278,35.789,6.612,62.58l-8.56,1.459s-20.453-57.37-20.231-66.485,10.671-11.783,10.671-11.783S294.746,312.691,316.334,316.427Z" transform="translate(-263.678 -300.908)"/></g><path class="o" d="M296,384.361,284.234,385.7l2.27,4.612,9.524-1.221Z" transform="translate(-229.903 -185.697)"/><path class="s" d="M304.35,283.236l15.962,3.326s-8.822-4.873-15.438-6.794C304.563,281.653,304.35,283.236,304.35,283.236Z" transform="translate(-232.13 -174.116)"/><g transform="translate(73.123 93.182)"><g transform="translate(0 0.429)"><path class="j" d="M334.83,266.227l.657,4.246-29.345,2.263-.777-5.021Z" transform="translate(-305.365 -266.227)"/><path class="r" d="M334.83,266.227l.657,4.246-29.345,2.263-.777-5.021Z" transform="translate(-305.365 -266.227)"/></g><rect class="o" width="1.457" height="7.424" transform="matrix(-0.995, 0.102, -0.102, -0.995, 21.662, 7.385)"/><rect class="t" width="6.442" height="4.886" transform="translate(13.608 6.376) rotate(176.323)"/><rect class="o" width="1.457" height="7.424" transform="translate(3.644 8.181) rotate(174.126)"/><rect class="m" width="1.457" height="7.424" transform="matrix(-0.995, 0.102, -0.102, -0.995, 21.662, 7.385)"/><rect class="m" width="1.457" height="7.424" transform="translate(3.644 8.181) rotate(174.126)"/></g><path class="u" d="M300.555,214.335a53.379,53.379,0,0,0,16.908,1.867c9.416-.484,20.673,4.09,20.673,4.09l-4.042,40.19-29.465,1.488S294.729,228.407,300.555,214.335Z" transform="translate(-231.507 -166.87)"/><path class="j" d="M306.107,187.074s1.656-19.517,17.97-12.425c20.477,8.9,4.194,32.673-5.81,27.792S306.107,187.074,306.107,187.074Z" transform="translate(-232.325 -162.304)"/><path class="r" d="M311.25,217.486l.469,11.028,3.659-5.188s-1.306,12.2-.542,18.838c0,0,.7-11.909,2.357-18.838l3.883,5.188,5.58-10.96S317.628,214.311,311.25,217.486Z" transform="translate(-232.894 -167.065)"/><path class="n" d="M316.548,218.229l8.436-2.383c-5.2-3.578-2.577-11.577-2.577-11.577l-8.356,2.938a25.585,25.585,0,0,1,.9,3.57c.873,5.212-1.481,5.629-1.481,5.629Z" transform="translate(-233.14 -165.756)"/><path class="r" d="M314.123,207.207a25.581,25.581,0,0,1,.9,3.57c4-1.6,7.459-6.509,7.459-6.509Z" transform="translate(-233.212 -165.756)"/><g transform="translate(70.942 10.82)"><path class="n" d="M318.471,179.4c-7.4-1.638-10.661,1.8-12.891,9.3-2.787,9.382-2.172,16.621,7.533,16.634C326.293,205.354,330.763,182.119,318.471,179.4Z" transform="translate(-303.049 -173.777)"/><path class="v" d="M310.891,190.638a16.072,16.072,0,0,1-2.833,2.593,2.082,2.082,0,0,0,1.765,1.268Z" transform="translate(-303.483 -175.066)"/><g transform="translate(12.024 14.284)"><path class="j" d="M316.482,190.968c-.148.606.058,1.176.461,1.275s.851-.31,1-.916-.057-1.175-.461-1.274S316.631,190.364,316.482,190.968Z" transform="translate(-316.434 -189.284)"/><path class="j" d="M317.645,190.029l-1.188-.839S316.839,190.458,317.645,190.029Z" transform="translate(-316.436 -189.19)"/></g><g transform="translate(4.536 12.309)"><path class="j" d="M308.062,188.747c-.148.6.058,1.176.461,1.275s.851-.311,1-.916-.058-1.176-.461-1.274S308.21,188.143,308.062,188.747Z" transform="translate(-308.014 -187.063)"/><path class="j" d="M309.225,187.808l-1.188-.839S308.419,188.237,309.225,187.808Z" transform="translate(-308.016 -186.969)"/></g><path class="w" d="M317.844,185.356a3.945,3.945,0,0,1,2.962,1.829" transform="translate(-304.566 -174.481)"/><path class="w" d="M311.488,183.621a3.538,3.538,0,0,0-3.084-.044" transform="translate(-303.521 -174.249)"/><path class="j" d="M324.018,193.34s-2.115-6.847-.551-11.425c0,0-13.342-9.238-17.359,5.489,0,0,1.492-13.536,14.281-11.015,12.767,2.517,8.614,21.123.816,25.214C321.2,201.6,325.317,197.617,324.018,193.34Z" transform="translate(-303.267 -173.454)"/><path class="n" d="M324.454,196.651a3.327,3.327,0,0,1,4.152-2.194c2.238.759,2.29,5.709-3.666,5.578C324.086,200.017,323.8,199.114,324.454,196.651Z" transform="translate(-305.259 -175.47)"/><g transform="translate(5.016 21.769)"><path class="j" d="M308.554,198.083a19.135,19.135,0,0,1,.383,2.751c.163.018.326.036.488.045,2.21.188,3.3-.455,3.832-1.225a2.861,2.861,0,0,0,.461-1.273,2.758,2.758,0,0,0,0-.775,10.454,10.454,0,0,1-4.412.528C308.845,198.117,308.554,198.083,308.554,198.083Z" transform="translate(-308.554 -197.607)"/><path class="t" d="M309.4,198.135l.134.808c2.082.172,3.57.013,4.276-.562a2.757,2.757,0,0,0,0-.775A10.454,10.454,0,0,1,309.4,198.135Z" transform="translate(-308.648 -197.607)"/><path class="v" d="M309.534,201.133c2.21.188,3.3-.455,3.832-1.225a7.142,7.142,0,0,0-2.5.278A2.671,2.671,0,0,0,309.534,201.133Z" transform="translate(-308.662 -197.861)"/></g><path class="j" d="M318.365,179.341s.287,12.838,7.989,14.38-.718-16.5-.718-16.5-11.47-7.491-19.114-2.212-.769,12.066-.769,12.066S307.368,177.541,318.365,179.341Z" transform="translate(-302.913 -173.127)"/><path class="x" d="M320.5,179.161s-2.745,8.115,2.676,12.376" transform="translate(-304.784 -173.795)"/></g><g transform="translate(78.406 11.737)"><path class="o" d="M330.8,198.46c-.98,2.61-3.5,4.08-5.62,3.283s-3.051-3.56-2.071-6.171,3.5-4.08,5.62-3.283S331.776,195.849,330.8,198.46Z" transform="translate(-312.57 -176.143)"/><path class="y" d="M330.8,198.46c-.98,2.61-3.5,4.08-5.62,3.283s-3.051-3.56-2.071-6.171,3.5-4.08,5.62-3.283S331.776,195.849,330.8,198.46Z" transform="translate(-312.57 -176.143)"/><path class="o" d="M328.55,192.2s3.189-14.291-3.968-18.036a21.072,21.072,0,0,1,2.416.47c.925.269,6.643,6.065,3.753,18.909Z" transform="translate(-312.777 -174.159)"/><path class="r" d="M328.55,192.2s3.189-14.291-3.968-18.036a21.072,21.072,0,0,1,2.416.47c.925.269,6.643,6.065,3.753,18.909Z" transform="translate(-312.777 -174.159)"/><g transform="translate(1.815 22.862)"><path class="o" d="M313.883,203.221q-.265-.035-.535-.08l.144-.877a16.335,16.335,0,0,0,11.288-2.4l.525.718A16.816,16.816,0,0,1,313.883,203.221Z" transform="translate(-313.348 -199.868)"/><g class="z"><path d="M313.883,203.221q-.265-.035-.535-.08l.144-.877a16.335,16.335,0,0,0,11.288-2.4l.525.718A16.816,16.816,0,0,1,313.883,203.221Z" transform="translate(-313.348 -199.868)"/></g></g><path class="o" d="M330.8,198.327c-.648,1.726-2.311,2.7-3.715,2.171s-2.018-2.354-1.369-4.079,2.311-2.7,3.715-2.171S331.446,196.6,330.8,198.327Z" transform="translate(-312.873 -176.368)"/><g transform="translate(0 24.486)"><path class="o" d="M312.861,203.714l-.713-.094a.967.967,0,0,1-.833-1.085h0a.967.967,0,0,1,1.086-.833l.713.093a.968.968,0,0,1,.833,1.086h0A.968.968,0,0,1,312.861,203.714Z" transform="translate(-311.307 -201.693)"/><path class="y" d="M312.861,203.714l-.713-.094a.967.967,0,0,1-.833-1.085h0a.967.967,0,0,1,1.086-.833l.713.093a.968.968,0,0,1,.833,1.086h0A.968.968,0,0,1,312.861,203.714Z" transform="translate(-311.307 -201.693)"/></g></g><path class="aa" d="M323.217,213.848l-5.284,5.19,2.113,6.359,7.351-8.091Z" transform="translate(-233.634 -166.816)"/><path class="aa" d="M314.836,215.068l.855,4-2.737,5.649-1.7-7.339Z" transform="translate(-232.894 -166.951)"/><path class="n" d="M322.6,215.949l3.069-11.232s-1.487-2.8-1.166-3.383,1.919-8.127,3.057-8.948,5.819.581,6.293,1.345-4.485,10.985-4.485,10.985l-1.808,12.168Z" transform="translate(-234.151 -164.412)"/><g transform="translate(84.204 43.336)"><path class="o" d="M340.252,219.919c8.444,8.643-8.48,28.223-18.178,27.389s.242-36.338.242-36.338l6.211,1.022s-2.18,15.365-1.492,16.571S337.414,217.013,340.252,219.919Z" transform="translate(-317.826 -209.834)"/><path class="p" d="M340.252,219.919c8.444,8.643-8.48,28.223-18.178,27.389s.242-36.338.242-36.338l6.211,1.022s-2.18,15.365-1.492,16.571S337.414,217.013,340.252,219.919Z" transform="translate(-317.826 -209.834)"/><path class="o" d="M322.187,209.692l-.92,2.932,8.653.764v-2.56Z" transform="translate(-318.207 -209.692)"/></g><g transform="translate(70.863 64.62)"><rect class="m" width="4.913" height="8.023" rx="0.791" transform="translate(0 1.935)"/><rect class="r" width="3.987" height="5.453" transform="translate(0.293 2.463)"/><rect class="j" width="0.879" height="3.213" transform="translate(1.935)"/></g><path class="o" d="M223.642,387.867a8.025,8.025,0,0,1,2.823-.718h0s3.377-1.988,6.725-9.711l3.764-.021a3.1,3.1,0,0,1,2.892,2.071,1.772,1.772,0,0,1,.107.521,21.2,21.2,0,0,1-.289,2.713,75.065,75.065,0,0,1-2.2,8.855l-.638-.162,1.16-5.618c.385-1.908-1.619-.065-2.55,1.859s-2.357,3.861-6.514,2.911C224.076,389.436,222.123,388.738,223.642,387.867Z" transform="translate(-223.138 -184.928)"/><path class="n" d="M234.285,375.156s-4.7,9.836-7.406,11.734c0,0,3.628,2.164,7.406-2.652,4.886-6.227,6.082-4.488,6.082-4.488a17.609,17.609,0,0,0-.589-3.174C239.044,374.566,234.285,375.156,234.285,375.156Z" transform="translate(-223.552 -184.669)"/><path class="o" d="M281.88,413.854a8,8,0,0,1,2.572-1.366h0s2.809-2.733,4.23-11.029l3.651-.914a3.1,3.1,0,0,1,3.3,1.327,1.747,1.747,0,0,1,.227.48,21.3,21.3,0,0,1,.363,2.7,74.993,74.993,0,0,1-.038,9.125l-.658-.006-.205-5.731c-.077-1.946-1.588.321-2.036,2.411s-1.374,4.31-5.638,4.372C282.675,415.275,280.612,415.06,281.88,413.854Z" transform="translate(-229.602 -187.48)"/><path class="n" d="M289.231,399.1s-2.234,10.67-4.413,13.157c0,0,4.038,1.241,6.566-4.333,3.269-7.208,4.843-5.8,4.843-5.8a17.6,17.6,0,0,0-1.324-2.943C293.713,397.4,289.231,399.1,289.231,399.1Z" transform="translate(-229.967 -187.248)"/></g><g transform="translate(304.824 113.521)"><rect class="o" width="40.058" height="22.295" rx="5.065"/><path class="o" d="M353.686,179.361l-9.354,12.715,15.092-11.863Z" transform="translate(-342.951 -159.607)"/><g transform="translate(8.46 9.836)"><path class="t" d="M354.917,169.52a1.312,1.312,0,1,1-1.312-1.312A1.312,1.312,0,0,1,354.917,169.52Z" transform="translate(-352.293 -168.208)"/><path class="t" d="M362.606,169.52a1.312,1.312,0,1,1-1.312-1.312A1.311,1.311,0,0,1,362.606,169.52Z" transform="translate(-353.144 -168.208)"/><path class="t" d="M370.3,169.52a1.312,1.312,0,1,1-1.312-1.312A1.311,1.311,0,0,1,370.3,169.52Z" transform="translate(-353.996 -168.208)"/><path class="t" d="M377.984,169.52a1.312,1.312,0,1,1-1.312-1.312A1.311,1.311,0,0,1,377.984,169.52Z" transform="translate(-354.847 -168.208)"/></g></g><g transform="translate(50.708 66.314)"><g transform="translate(141.652 21.027)"><rect class="o" width="27.613" height="17.355" rx="1.385" transform="translate(8.23 0) rotate(28.306)"/><rect class="ab" width="27.613" height="17.355" rx="1.385" transform="translate(8.23 0) rotate(28.306)"/><path class="r" d="M224.253,133.692l6.927,12.936a2.824,2.824,0,0,0,2.769,1.478l14.419-1.426-14.677,2.162a3.01,3.01,0,0,1-3.166-1.706Z" transform="translate(-217.191 -131.524)"/></g><g transform="translate(131.887)"><path class="o" d="M205.341,128.394c.236-4.947,3.9-14.916,8.354-17.965s1.524,1.173,1.524,1.173,4.222-4.1,6.45-3.987,0,2.7,0,2.7,4.574-2.819,6.685-2.7,0,2.582,0,2.582,3.753-2.7,5.277-1.407-19.466,15.127-21.812,20.756S205.1,133.4,205.341,128.394Z" transform="translate(-205.331 -107.609)"/><path class="ac" d="M205.341,128.394c.236-4.947,3.9-14.916,8.354-17.965s1.524,1.173,1.524,1.173,4.222-4.1,6.45-3.987,0,2.7,0,2.7,4.574-2.819,6.685-2.7,0,2.582,0,2.582,3.753-2.7,5.277-1.407-19.466,15.127-21.812,20.756S205.1,133.4,205.341,128.394Z" transform="translate(-205.331 -107.609)"/></g><g transform="translate(147.756 20.054)"><path class="o" d="M225.345,130.16l2.8,1.8a.23.23,0,0,1-.142.423l-2.945-.229.253,2.261a.252.252,0,0,1-.44.195l-1.7-1.923Z" transform="translate(-223.176 -130.16)"/><path class="l" d="M225.345,130.16l2.8,1.8a.23.23,0,0,1-.142.423l-2.945-.229.253,2.261a.252.252,0,0,1-.44.195l-1.7-1.923Z" transform="translate(-223.176 -130.16)"/></g><g transform="translate(110.583 7.384)"><path class="o" d="M181.374,117.448a11.8,11.8,0,0,1,9.733-.94s1.686,7.74,6.3,10.32c2.532,1.417,8.734,1.295,13.639-.293,5.826-1.886,8.678-1.886,9.733.293,1,2.064-.117,4.456-4.573,5.512s-7.975,8.795-16.066,8.912-12.35-8-10.319-15.127A21.473,21.473,0,0,0,181.374,117.448Z" transform="translate(-181.374 -115.913)"/><path class="ad" d="M181.374,117.448a11.8,11.8,0,0,1,9.733-.94s1.686,7.74,6.3,10.32c2.532,1.417,8.734,1.295,13.639-.293,5.826-1.886,8.678-1.886,9.733.293,1,2.064-.117,4.456-4.573,5.512s-7.975,8.795-16.066,8.912-12.35-8-10.319-15.127A21.473,21.473,0,0,0,181.374,117.448Z" transform="translate(-181.374 -115.913)"/></g><path class="j" d="M223.077,129.786a.4.4,0,1,1-.4-.4A.4.4,0,0,1,223.077,129.786Z" transform="translate(-75.321 -110.021)"/><path class="o" d="M196.939,134.543c-4.778,1.3-15.391.9-19.666-2.4s.645-1.812.645-1.812-5.207-2.749-5.783-4.9,2.566-.832,2.566-.832-4.093-3.48-4.631-5.524,2.456-.8,2.456-.8-3.723-2.736-2.967-4.584,20.4,13.846,26.475,14.34S201.776,133.225,196.939,134.543Z" transform="translate(-69.472 -108.265)"/><path class="ac" d="M196.939,134.543c-4.778,1.3-15.391.9-19.666-2.4s.645-1.812.645-1.812-5.207-2.749-5.783-4.9,2.566-.832,2.566-.832-4.093-3.48-4.631-5.524,2.456-.8,2.456-.8-3.723-2.736-2.967-4.584,20.4,13.846,26.475,14.34S201.776,133.225,196.939,134.543Z" transform="translate(-69.472 -108.265)"/><path class="ae" d="M153.189,111.985a64.891,64.891,0,0,0-17.165-3.455c-8.646-.6-22.2-1.458-27.5,7.157-4.827,7.851,3.477,21.247,6.424,28.537,3.61,8.928,7.9,19.967,3.636,29.418-9.5,21.048-52.77,7.441-61.565-13.2" transform="translate(-57.022 -107.672)"/></g><g transform="translate(110.811 163.456)"><g transform="translate(15.332 50.958)"><rect class="t" width="33.755" height="6.923"/><rect class="s" width="33.755" height="6.923"/><rect class="s" width="14.217" height="6.923"/><path class="s" d="M141.85,250.163H171.9l-30.048.85Z" transform="translate(-141.85 -249.166)"/><path class="s" d="M176.565,251.515l-26.047.645h26.047Z" transform="translate(-142.81 -249.315)"/><path class="s" d="M143.4,253.625l12.841-.528,18.88.528-18.88.293Z" transform="translate(-142.021 -249.491)"/><path class="s" d="M141.85,255.339H164.1l-22.249.528Z" transform="translate(-141.85 -249.739)"/><path class="s" d="M177.9,255.932l-14.858.276h14.907Z" transform="translate(-144.197 -249.805)"/></g><g transform="translate(10.634 44.035)"><rect class="t" width="33.755" height="6.923"/><rect class="s" width="33.755" height="6.923"/><rect class="s" width="14.217" height="6.923"/><path class="s" d="M136.567,242.378h30.048l-30.048.85Z" transform="translate(-136.567 -241.381)"/><path class="s" d="M171.283,243.73l-26.047.645h26.047Z" transform="translate(-137.527 -241.53)"/><path class="s" d="M138.115,245.84l12.841-.528,18.88.528-18.88.293Z" transform="translate(-136.739 -241.706)"/><path class="s" d="M136.567,247.554h22.249l-22.249.528Z" transform="translate(-136.567 -241.954)"/><path class="s" d="M172.621,248.147l-14.858.276H172.67Z" transform="translate(-138.914 -242.02)"/></g><g transform="translate(14.488 37.112)"><rect class="t" width="33.755" height="6.923"/><rect class="s" width="33.755" height="6.923"/><rect class="s" width="14.217" height="6.923"/><path class="s" d="M140.9,234.593h30.048l-30.048.85Z" transform="translate(-140.901 -233.596)"/><path class="s" d="M175.617,235.945l-26.047.645h26.047Z" transform="translate(-141.861 -233.745)"/><path class="s" d="M142.448,238.055l12.841-.528,18.88.528-18.88.293Z" transform="translate(-141.073 -233.921)"/><path class="s" d="M140.9,239.769h22.249L140.9,240.3Z" transform="translate(-140.901 -234.169)"/><path class="s" d="M176.955,240.362l-14.858.276H177Z" transform="translate(-143.248 -234.235)"/></g><g transform="translate(70.73 54.419)"><path class="j" d="M204.146,256.251l.878-3.316h36.061l16.606,1.658.632,1.658Z" transform="translate(-204.146 -252.934)"/><path class="y" d="M241.085,252.934v3.316H204.146l.878-3.316Z" transform="translate(-204.146 -252.934)"/></g><g transform="translate(35.564)"><path class="j" d="M229.463,230.28a2.841,2.841,0,0,1-2.863,3.175H171.358a3.548,3.548,0,0,1-3.459-3.175l-3.281-35.366a3.03,3.03,0,0,1,.071-1.032,2.821,2.821,0,0,1,2.792-2.143h55.242a3.549,3.549,0,0,1,3.459,3.175Z" transform="translate(-164.602 -191.739)"/><path class="y" d="M226.4,233.722H171.358a3.548,3.548,0,0,1-3.459-3.175l-3.281-35.366a3.03,3.03,0,0,1,.071-1.032h55.046a3.561,3.561,0,0,1,3.458,3.175l3.282,35.366A3.054,3.054,0,0,1,226.4,233.722Z" transform="translate(-164.602 -192.006)"/><path class="j" d="M189.976,214.257H201.4l-3.046,32.719,18.071,2.713v2.279H178.368v-2.279l7.8-2.713Z" transform="translate(-166.126 -194.232)"/><path class="af" d="M202.375,214.257l-8.467,37.191-6.772-.2,3.811-36.99Z" transform="translate(-167.097 -194.232)"/></g><g transform="translate(0 57.736)"><g transform="translate(55.551 6.368)"><path class="j" d="M202.316,400.1h-5.448L187.08,263.825h7.227Z" transform="translate(-187.078 -263.825)"/><path class="ac" d="M202.319,400.13h-5.451l-9.311-129.509-.48-6.55h7.23l.391,6.55Z" transform="translate(-187.077 -263.852)"/><path class="r" d="M194.7,270.3h-7.141l-.48-6.225h7.23Z" transform="translate(-187.077 -263.852)"/></g><g transform="translate(104.433 6.368)"><path class="j" d="M248.383,400.1h-5.448l-.89-136.278h7.227Z" transform="translate(-242.046 -263.825)"/><path class="ad" d="M249.277,264.072l-.142,21.987-.747,114.071h-5.451l-.747-114.071-.142-21.987Z" transform="translate(-242.046 -263.852)"/><path class="r" d="M249.277,264.072l-.142,22.232H242.19l-.142-22.232Z" transform="translate(-242.046 -263.852)"/></g><g transform="translate(153.371 6.368)"><path class="j" d="M312.316,400.1h-5.448L297.08,263.825h7.227Z" transform="translate(-297.078 -263.825)"/><path class="ad" d="M312.319,400.13h-5.451l-9.311-129.509-.48-6.55h7.23l.391,6.55Z" transform="translate(-297.077 -263.852)"/><path class="r" d="M304.7,270.3h-7.141l-.48-6.225h7.23Z" transform="translate(-297.077 -263.852)"/></g><g transform="translate(3.02 6.368)"><path class="j" d="M133.453,400.1h-5.448l8.008-136.278h7.227Z" transform="translate(-128.005 -263.825)"/><path class="ad" d="M143.241,264.072l-.48,6.55L133.45,400.13h-5.442l7.612-129.509.391-6.55Z" transform="translate(-128.006 -263.852)"/><path class="r" d="M136.958,264.072h7.23l-.48,6.225h-7.141Z" transform="translate(-128.954 -263.852)"/></g><g transform="translate(5.3 2.955)"><path class="o" d="M0,0H161.031a0,0,0,0,1,0,0V4.664a2.162,2.162,0,0,1-2.162,2.162H2.162A2.162,2.162,0,0,1,0,4.664V0A0,0,0,0,1,0,0Z"/><path class="m" d="M0,0H161.031a0,0,0,0,1,0,0V4.664a2.162,2.162,0,0,1-2.162,2.162H2.162A2.162,2.162,0,0,1,0,4.664V0A0,0,0,0,1,0,0Z"/></g><rect class="r" width="161.031" height="3.413" transform="translate(5.3 2.955)"/><path class="o" d="M294.316,260.509H126.533a1.923,1.923,0,0,1-1.924-1.923h0a1.923,1.923,0,0,1,1.924-1.923H294.316a1.923,1.923,0,0,1,1.923,1.923h0A1.923,1.923,0,0,1,294.316,260.509Z" transform="translate(-124.609 -256.664)"/><path class="m" d="M294.316,260.509H126.533a1.923,1.923,0,0,1-1.924-1.923h0a1.923,1.923,0,0,1,1.924-1.923H294.316a1.923,1.923,0,0,1,1.923,1.923h0A1.923,1.923,0,0,1,294.316,260.509Z" transform="translate(-124.609 -256.664)"/></g><g transform="translate(126.739 42.797)"><path class="o" d="M270.806,249.5l2.067-3.094a2.22,2.22,0,0,1,1.847-.987h2.617a2.223,2.223,0,0,1,.644.1l9.327,2.827a2.216,2.216,0,0,1,1.265.99l1.338,2.25Z" transform="translate(-267.536 -240.479)"/><path class="r" d="M289.911,251.577,276.331,250.1l-5.522-.6,2.063-3.1a2.225,2.225,0,0,1,1.85-.986h2.614a2.328,2.328,0,0,1,.649.1l.2.063,9.115,2.766a2.2,2.2,0,0,1,1.272.987Z" transform="translate(-267.536 -240.479)"/><path class="r" d="M290.6,251.6l-13.579-1.477,1.859-4.526,9.115,2.766a2.2,2.2,0,0,1,1.272.987Z" transform="translate(-268.224 -240.499)"/><path class="o" d="M295.958,255.52v.293H267.129l1.067-4.171a3.585,3.585,0,0,1,3.459-2.659h12.788a3.5,3.5,0,0,1,1.244.222l1.6.6,6.349,2.365A3.58,3.58,0,0,1,295.958,255.52Z" transform="translate(-267.129 -240.875)"/><path class="r" d="M298.074,255.607v.293H286.238l.632-4.509a1.894,1.894,0,0,1,2.534-1.5l6.349,2.365A3.58,3.58,0,0,1,298.074,255.607Z" transform="translate(-269.245 -240.962)"/><path class="j" d="M288.311,251.739l3.766-11.3a.838.838,0,0,1,1.179-.479h0a.839.839,0,0,1,.425.958L290.51,252.98S288.4,253.834,288.311,251.739Z" transform="translate(-269.474 -239.865)"/><path class="r" d="M270.6,255.4h-1.671l.322-1.642h1.671Z" transform="translate(-267.328 -241.404)"/><path class="r" d="M273.4,255.332h-1.671l.322-1.642h1.671Z" transform="translate(-267.638 -241.396)"/></g></g><g transform="translate(364.756 0)"><g transform="translate(29.519 323.064) rotate(161)"><path class="ag" d="M.616.006a.505.505,0,0,0-.4.462c-.281,2.181-1.234,12.651,5.244,19.4,6.757,7.043,11.453,7.708,12.928,11.989.09.262.4.261.439,0,.513-3.751,1.582-16.748-7.2-22.19C2.923,4.268,1.473,1.91,1.26.561A.611.611,0,0,0,.616.006Z" transform="translate(0.207 2.363)"/><path class="ah" d="M17.077,26.45a15.941,15.941,0,0,0-1.666-3.977,15.921,15.921,0,0,0-1.19-1.778,14.316,14.316,0,0,0-1.4-1.577,13.356,13.356,0,0,0-1.577-1.327,13.66,13.66,0,0,0-1.717-1.027l-.444-.211-.42-.195c-.14-.062-.277-.133-.413-.205s-.275-.139-.408-.22A11.606,11.606,0,0,1,6.282,14.88,14.441,14.441,0,0,1,1.776,8.358,28.475,28.475,0,0,1,.22.132.134.134,0,0,0,.106,0,.1.1,0,0,0,0,.112c-.01.7,0,1.406.035,2.115s.1,1.419.191,2.13S.443,5.778.6,6.485a20.348,20.348,0,0,0,.576,2.1,16.718,16.718,0,0,0,1.871,3.93,13.265,13.265,0,0,0,2.825,3.14A12.551,12.551,0,0,0,7.547,16.8c.143.088.29.16.435.238s.292.155.44.221l.856.4a13.11,13.11,0,0,1,3.111,2.129A16.388,16.388,0,0,1,13.758,21.2a19.055,19.055,0,0,1,1.219,1.616A19.486,19.486,0,0,1,16.912,26.5l0,.007a.092.092,0,0,0,.117.062A.1.1,0,0,0,17.077,26.45Z" transform="translate(0 0)"/></g><g transform="translate(2.058)"><g transform="translate(38.485 152.153)"><path class="ai" d="M523.1,447.784a.822.822,0,0,1,1.642.029c.693,5.313,2.016,12.094,4.492,16.521,4.595,8.216,12.942,38.134-9.976,53.049s-28.554,22.811-28.383,51.454c.156,26.179-1.231,82.044-1.471,91.463a1.32,1.32,0,0,1-1.236,1.362h0a1.327,1.327,0,0,1-1.237-1.4c-.03-12.251-.182-101.308,1.783-122.887C491.829,503.181,517.206,485.665,523.1,447.784Z" transform="translate(-486.915 -447.007)"/><path class="ah" d="M571.576,553.317a19.778,19.778,0,0,1,.533,2.676c.073.455.11.917.15,1.378s.055.923.074,1.385a27.057,27.057,0,0,1-4.289,15.524c-.238.373-.456.764-.711,1.124l-.794,1.055-.793,1.057-.852,1.015c-1.154,1.338-2.375,2.612-3.627,3.86-2.5,2.5-5.131,4.9-7.608,7.541a48.2,48.2,0,0,0-9.41,13.689l-.567,1.306q-.289.65-.538,1.32l-.511,1.333-.46,1.356c-.322.9-.563,1.826-.842,2.739-.255.922-.483,1.853-.714,2.782-.2.938-.414,1.872-.582,2.816s-.352,1.886-.475,2.838a100.49,100.49,0,0,0-1.015,11.454.488.488,0,0,0,.432.53.478.478,0,0,0,.466-.475,84.083,84.083,0,0,1,4.019-22.118l.463-1.306.512-1.281q.247-.645.537-1.266l.564-1.25a50.63,50.63,0,0,1,2.614-4.76q1.454-2.268,3.105-4.366c1.1-1.4,2.285-2.713,3.5-4,2.433-2.566,5.052-4.935,7.607-7.453,1.276-1.259,2.537-2.558,3.74-3.937l.89-1.05.837-1.124.836-1.125c.268-.384.5-.8.753-1.2a28.013,28.013,0,0,0,3.975-10.829l.176-1.466c.048-.489.056-.984.085-1.474s.026-.984.016-1.476-.02-.983-.072-1.472-.073-.979-.152-1.463-.131-.97-.233-1.449a17.556,17.556,0,0,0-.758-2.846.459.459,0,0,0-.621-.3.565.565,0,0,0-.274.663Z" transform="translate(-535.782 -529.906)"/></g><g transform="translate(43.109 225.902)"><path class="aj" d="M529.216,828.578a1.038,1.038,0,0,1,2.012.193c2.36,9.97,7.231,39.729-14.3,53.813-26.09,17.066-26.719,9.347-29.973,39.4-2.8,25.862-3.755,41.589-3.967,45.469a.944.944,0,0,1-.888.945h0a.958.958,0,0,1-.889-1.042c.246-8.143,2.039-61.952,7.161-88.271C497.483,832.267,518.815,854.557,529.216,828.578Z" transform="translate(-481.212 -827.869)"/><path class="ah" d="M545.122,855.537a20.279,20.279,0,0,1-1.433,4.894,27.4,27.4,0,0,1-2.4,4.38,29.386,29.386,0,0,1-6.7,6.913,42.183,42.183,0,0,1-3.954,2.61l-2.087,1.265c-.689.437-1.364.906-2.046,1.356a56.352,56.352,0,0,0-7.687,6.318,51.384,51.384,0,0,0-6.421,7.964l-1.347,2.229c-.235.363-.419.765-.622,1.151l-.6,1.167-.6,1.167-.523,1.211c-.342.811-.706,1.61-1.027,2.43-.569,1.676-1.229,3.312-1.66,5.04-.236.855-.487,1.705-.692,2.569l-.542,2.612-.27,1.3-.2,1.321-.388,2.64c-.142.877-.179,1.771-.266,2.656l-.226,2.658a.34.34,0,0,0,.276.381.318.318,0,0,0,.333-.292l0-.024c.241-1.744.438-3.493.711-5.225l.472-2.584.237-1.29.31-1.269.619-2.536c.228-.837.509-1.654.751-2.485.454-1.676,1.132-3.252,1.717-4.866.328-.789.7-1.554,1.046-2.332l.53-1.161.6-1.113.6-1.113c.2-.368.389-.751.624-1.1l1.344-2.117a51.548,51.548,0,0,1,6.282-7.588,57.963,57.963,0,0,1,7.48-6.079c.666-.437,1.323-.891,2-1.315l2.042-1.229a42.337,42.337,0,0,0,4.105-2.771,28.39,28.39,0,0,0,6.846-7.587,25.287,25.287,0,0,0,2.239-4.823,23.261,23.261,0,0,0,.706-2.6,14.482,14.482,0,0,0,.335-2.71.284.284,0,0,0-.252-.307.272.272,0,0,0-.267.247Z" transform="translate(-497.636 -849.378)"/></g><path class="ag" d="M1671.313,96.632c.279-.949,1.278-.793,1.383.222,1.64,15.942,6.133,73.1-10.44,99.07-19.364,30.341-33.45,37.353-28.926,87.983,4.476,50.1,16.552,138.934,11.361,165.431a1.163,1.163,0,0,1-.76.967h0c-.609.149-1.158-.526-1.122-1.381.326-7.815,1.426-41.626-2.365-72.435-4.32-35.107-22.989-122.521-14.305-190.723C1634.276,121.853,1664.315,120.421,1671.313,96.632Z" transform="translate(-1610.406 -96)"/><path class="ah" d="M1716.307,202.937a63.334,63.334,0,0,0-4.668,4.619c-1.5,1.613-2.936,3.3-4.332,5.023s-2.734,3.516-4.052,5.324c-.655.907-1.275,1.846-1.915,2.768s-1.234,1.883-1.853,2.825a127.37,127.37,0,0,0-6.647,11.9l-.759,1.538-.719,1.562c-.469,1.048-.976,2.074-1.408,3.143l-1.337,3.184-1.237,3.236a133.241,133.241,0,0,0-4.1,13.314c-.3,1.127-.515,2.279-.776,3.416l-.376,1.711c-.117.573-.21,1.152-.317,1.727-.2,1.153-.419,2.3-.612,3.458l-.472,3.485c-.175,1.159-.269,2.33-.375,3.5s-.237,2.334-.294,3.507c-.108,2.346-.248,4.689-.2,7.037a115.42,115.42,0,0,0,.824,14.011.347.347,0,0,0,.375.331.372.372,0,0,0,.293-.406v-.01a126.99,126.99,0,0,1,1.035-27.676l.54-3.408.663-3.379c.115-.562.216-1.127.341-1.686l.4-1.67c.276-1.11.51-2.233.821-3.332a132.553,132.553,0,0,1,4.158-13,146.363,146.363,0,0,1,11.849-24.156c.583-.946,1.154-1.9,1.748-2.841s1.193-1.873,1.81-2.793q1.824-2.782,3.756-5.475c2.567-3.595,5.26-7.1,8.124-10.4l.006-.007a.273.273,0,0,0,0-.352A.2.2,0,0,0,1716.307,202.937Z" transform="translate(-1663.142 -179.935)"/><path class="ag" d="M.935.015A.88.88,0,0,0,.418.856C.123,5.425-1.252,30.7,3.393,44.135c5.119,14.806,13.346,28.592,9.456,63.823-2.2,19.96-.748,30.848-.016,34.623.111.571.627.637.792.1,2.057-6.73,10.636-35.073,11.96-43.846,1.506-9.98,2.462-29.4-7.958-38.3C7.369,51.775-1.936,29.57,1.669,1.138,1.752.481,1.37-.1.935.015Z" transform="matrix(-1, 0.017, -0.017, -1, 29, 355.08)"/><path class="ak" d="M1240.065,670.343h42.809a3.13,3.13,0,0,1,2.8,3.893l-6.452,32.5a2.959,2.959,0,0,1-2.8,2.509h-29.238a2.951,2.951,0,0,1-2.789-2.441l-7.119-32.5A3.136,3.136,0,0,1,1240.065,670.343Z" transform="translate(-1223.432 -342.434)"/><path class="al" d="M1284.991,680.756a2.079,2.079,0,0,0-2.539,1.757q-1.136,6.893-2.272,13.788c-.212,1.286.3,2.777,1.441,3.094a2.08,2.08,0,0,0,2.54-1.756l2.272-13.788C1286.645,682.563,1286.131,681.071,1284.991,680.756Z" transform="translate(-1231.534 -337.368)"/></g></g></svg>