<svg xmlns="http://www.w3.org/2000/svg" xmlns:xlink="http://www.w3.org/1999/xlink" width="204.813" height="162.892" viewBox="0 0 204.813 162.892"><defs><style>.a,.c{fill:none;}.b{clip-path:url(#a);}.c{stroke:#000;stroke-linecap:round;stroke-miterlimit:10;stroke-width:1.3px;stroke-dasharray:0 5;}</style><clipPath id="a"><rect class="a" width="204.813" height="162.892"/></clipPath></defs><g class="b"><g transform="translate(-292.5 -224.5)"><line class="c" x2="293" transform="translate(293 225)"/></g><g transform="translate(-292.5 -220.5)"><line class="c" x2="293" transform="translate(293 225)"/></g><g transform="translate(-292.5 -216.5)"><line class="c" x2="293" transform="translate(293 225)"/></g><g transform="translate(-292.5 -212.5)"><line class="c" x2="293" transform="translate(293 225)"/></g><g transform="translate(-292.5 -208.5)"><line class="c" x2="293" transform="translate(293 225)"/></g><g transform="translate(-292.5 -204.5)"><line class="c" x2="293" transform="translate(293 225)"/></g><g transform="translate(-292.5 -200.5)"><line class="c" x2="293" transform="translate(293 225)"/></g><g transform="translate(-292.5 -196.5)"><line class="c" x2="293" transform="translate(293 225)"/></g><g transform="translate(-292.5 -192.5)"><line class="c" x2="293" transform="translate(293 225)"/></g><g transform="translate(-292.5 -188.5)"><line class="c" x2="293" transform="translate(293 225)"/></g><g transform="translate(-292.5 -184.5)"><line class="c" x2="293" transform="translate(293 225)"/></g><g transform="translate(-292.5 -180.5)"><line class="c" x2="293" transform="translate(293 225)"/></g><g transform="translate(-292.5 -176.5)"><line class="c" x2="293" transform="translate(293 225)"/></g><g transform="translate(-292.5 -172.5)"><line class="c" x2="293" transform="translate(293 225)"/></g><g transform="translate(-292.5 -168.5)"><line class="c" x2="293" transform="translate(293 225)"/></g><g transform="translate(-292.5 -164.5)"><line class="c" x2="293" transform="translate(293 225)"/></g><g transform="translate(-292.5 -160.5)"><line class="c" x2="293" transform="translate(293 225)"/></g><g transform="translate(-292.5 -156.5)"><line class="c" x2="293" transform="translate(293 225)"/></g><g transform="translate(-292.5 -152.5)"><line class="c" x2="293" transform="translate(293 225)"/></g><g transform="translate(-292.5 -148.5)"><line class="c" x2="293" transform="translate(293 225)"/></g><g transform="translate(-292.5 -144.5)"><line class="c" x2="293" transform="translate(293 225)"/></g><g transform="translate(-292.5 -140.5)"><line class="c" x2="293" transform="translate(293 225)"/></g><g transform="translate(-292.5 -136.5)"><line class="c" x2="293" transform="translate(293 225)"/></g><g transform="translate(-292.5 -132.5)"><line class="c" x2="293" transform="translate(293 225)"/></g><g transform="translate(-292.5 -128.5)"><line class="c" x2="293" transform="translate(293 225)"/></g><g transform="translate(-292.5 -124.5)"><line class="c" x2="293" transform="translate(293 225)"/></g><g transform="translate(-292.5 -120.5)"><line class="c" x2="293" transform="translate(293 225)"/></g><g transform="translate(-292.5 -116.5)"><line class="c" x2="293" transform="translate(293 225)"/></g><g transform="translate(-292.5 -112.5)"><line class="c" x2="293" transform="translate(293 225)"/></g><g transform="translate(-292.5 -108.5)"><line class="c" x2="293" transform="translate(293 225)"/></g><g transform="translate(-292.5 -104.5)"><line class="c" x2="293" transform="translate(293 225)"/></g><g transform="translate(-292.5 -100.5)"><line class="c" x2="293" transform="translate(293 225)"/></g><g transform="translate(-292.5 -96.5)"><line class="c" x2="293" transform="translate(293 225)"/></g><g transform="translate(-292.5 -92.5)"><line class="c" x2="293" transform="translate(293 225)"/></g><g transform="translate(-292.5 -88.5)"><line class="c" x2="293" transform="translate(293 225)"/></g><g transform="translate(-292.5 -84.5)"><line class="c" x2="293" transform="translate(293 225)"/></g><g transform="translate(-292.5 -80.5)"><line class="c" x2="293" transform="translate(293 225)"/></g><g transform="translate(-292.5 -76.5)"><line class="c" x2="293" transform="translate(293 225)"/></g><g transform="translate(-292.5 -72.5)"><line class="c" x2="293" transform="translate(293 225)"/></g><g transform="translate(-292.5 -68.5)"><line class="c" x2="293" transform="translate(293 225)"/></g><g transform="translate(-292.5 -64.5)"><line class="c" x2="293" transform="translate(293 225)"/></g></g></svg>