<svg xmlns="http://www.w3.org/2000/svg" width="119.952" height="107.008" viewBox="0 0 119.952 107.008"><defs><style>.a{fill:#636363;}.b{fill:#ff5f6d;}</style></defs><g transform="translate(-0.01 0.012)"><g transform="translate(0.01 -0.012)"><path class="a" d="M229.831,145.374c-.876,4.56-2.868,8.727-4.908,12.829-3.113,6.261-4.707,12.537-1.516,19.234.483,1.01.279,1.569-.775,1.883a1.306,1.306,0,0,0-.276.148c-7.993,4.585-7.943,4.553-12.826-3.188a71.427,71.427,0,0,1-6.468-12.173,10.578,10.578,0,0,1,.333-9.1c2.181-4.3,4.262-8.639,6.317-13,1-2.134,2.482-3.176,4.751-2.128s2.545,2.824,1.522,4.986c-1.393,2.928-2.758,5.868-4.124,8.812-.455.979-.941,2.244.339,2.718,1.171.433,1.255-1.042,1.61-1.773,1.55-3.317,3.06-6.656,4.491-10.042a5,5,0,0,0-4.525-7.007,2.222,2.222,0,0,1-2.369-1.5c-.722-2.363-2.272-4.233-3.493-6.276-3.279-5.46-2.087-10.892-.314-16.362a3.6,3.6,0,0,1,6.48-.471q7.531,14.482,15.038,28.99A7.249,7.249,0,0,1,229.831,145.374Z" transform="translate(-138.747 -76.263)"/><path class="a" d="M109.16,156.919c1.795-.9,1.484-2.055.891-3.3-1.346-2.824-2.661-5.68-4.014-8.514-.989-2.071-.941-3.941,1.3-5.068,2.4-1.2,3.923-.075,4.977,2.168,2.049,4.359,4.13,8.7,6.3,13a10.661,10.661,0,0,1,.235,9.082c-2.47,6.537-6.675,12.072-10.108,18.05-.712,1.255-1.5,1.186-2.57.628-2.219-1.18-4.431-2.372-6.7-3.452-1.064-.5-1.437-.941-.872-2.121,3.035-6.339,1.682-12.392-1.2-18.38-1.591-3.3-3.025-6.675-4.447-10.042a9.108,9.108,0,0,1,.446-8.159q7.076-13.494,14.062-27.016c.844-1.635,1.946-2.718,3.91-2.51s2.671,1.547,3.355,3.235c3.414,8.394.122,15.258-4.726,21.826-.7.941-1.792.941-2.749,1.255-3.508,1.233-4.908,4.277-3.417,7.673C105.539,149.177,107.372,153.028,109.16,156.919Z" transform="translate(-63.262 -76.341)"/><path class="b" d="M328.7,103.311c.26.882-.486,1.045-.992,1.337-5.514,3.213-11.065,6.364-16.541,9.637-1.908,1.142-2.275-.242-2.972-1.4-.731-1.211-1.569-2.159.389-3.232,5.5-3.031,10.877-6.276,16.318-9.4C326.3,99.454,328.571,101.315,328.7,103.311Z" transform="translate(-210.92 -68.659)"/><path class="b" d="M9.372,98.66c.48.267.941.515,1.39.775,5.253,3.022,10.475,6.1,15.778,9.032,1.723.941,1.848,1.792.854,3.411-.941,1.541-1.547,2.423-3.54,1.192-5.159-3.179-10.469-6.11-15.716-9.148-.788-.455-1.9-.8-1.149-2.065C7.665,100.725,8.007,99.316,9.372,98.66Z" transform="translate(-4.627 -67.696)"/><path class="b" d="M182.524,11.418c0-3.138.085-6.276-.031-9.414-.082-2.153,1.255-2.012,2.661-2.012,1.343.025,2.758-.3,2.727,1.921q-.126,9.414,0,18.844c.028,2.143-1.287,2-2.693,1.99-1.353,0-2.787.314-2.705-1.917C182.611,17.7,182.524,14.559,182.524,11.418Z" transform="translate(-125.218 0.012)"/><path class="b" d="M257.113,57.9a17.7,17.7,0,0,1-3.223-2.062c-.951-.913.282-1.707.684-2.435,1.961-3.555,4.045-7.042,6.047-10.575.574-1.017,1.205-1.924,2.335-.813.9.885,3.5.8,2.495,2.79-2.159,4.268-4.735,8.329-7.142,12.477A1.08,1.08,0,0,1,257.113,57.9Z" transform="translate(-173.978 -28.478)"/><path class="b" d="M98.484,58.291c-1.029-.078-1.167-.794-1.462-1.3-2.159-3.712-4.177-7.513-6.477-11.131-1.24-1.955.169-2.3,1.293-2.972s2.2-1.676,3.276.314c1.93,3.6,4.08,7.07,6.072,10.638.4.728,1.591,1.569.581,2.448A20.055,20.055,0,0,1,98.484,58.291Z" transform="translate(-61.802 -28.836)"/><path class="b" d="M8.213,206.627c-1.676,0-3.361-.1-5.021.028-2.137.169-3.185-.248-3.182-2.824,0-2.7,1.475-2.438,3.2-2.423,3.872.035,7.751.116,11.611-.038,2.062-.082,2.165.97,2.081,2.511-.078,1.434.336,3.006-2.1,2.8C12.622,206.479,10.41,206.627,8.213,206.627Z" transform="translate(-0.01 -138.171)"/><path class="b" d="M336.763,201.4c1.779,0,3.559.038,5.335,0s3.185-.232,3.179,2.448c0,2.57-1.045,2.9-3.185,2.824-3.866-.141-7.748-.173-11.611,0-2.423.113-2.021-1.374-2.1-2.824-.078-1.538.05-2.649,2.1-2.489S334.67,201.394,336.763,201.4Z" transform="translate(-225.325 -138.154)"/></g></g></svg>