<svg xmlns="http://www.w3.org/2000/svg" xmlns:xlink="http://www.w3.org/1999/xlink" width="117.007" height="118.873" viewBox="0 0 117.007 118.873"><defs><style>.a{fill:#f79a97;}.b{fill:url(#a);}.c{fill:#f9aaaa;}.d{fill:url(#b);}.e{fill:#f1f2f2;}.e,.f{mix-blend-mode:multiply;isolation:isolate;}.f{fill:#e6e7e8;}.g{fill:#6a4123;}.h{fill:url(#c);}</style><linearGradient id="a" x1="-93.369" y1="-15.29" x2="-93.073" y2="-15.29" gradientUnits="objectBoundingBox"><stop offset="0" stop-color="#0e8dc9"/><stop offset="1" stop-color="#284c80"/></linearGradient><linearGradient id="b" x1="0.5" y1="1.292" x2="0.5" y2="0" xlink:href="#a"/><linearGradient id="c" x1="-94.585" y1="-15.189" x2="-94.29" y2="-15.189" xlink:href="#a"/></defs><g transform="translate(-759.686 -628.413)"><path class="a" d="M792.082,639.527c-.338-.463-3.521,1.657-4.454,2.12.642-2.054,2.16-5.773,2.222-6.8.354-5.921-2.739-6.973-4.73-6.219-2.276.861-5.277,4.849-5.654,6.219-.362,1.372-2.258,8.044-2.235,9.02.051,1.515-1.665,2.805-1.665,2.805l5.2,5.12a26.742,26.742,0,0,1,4.353-3.423C788.071,646.921,792.829,640.541,792.082,639.527Z" transform="translate(45.891)"/><path class="b" d="M819.557,634.169a4.215,4.215,0,0,1,2.174-.082c1.824.45,1.63.572,3.26,1.847a11.914,11.914,0,0,1,1.046.879,21.891,21.891,0,0,1,1.739,1.813,2.079,2.079,0,0,1,.167,2.392c-3.96,3.858-15.727,14.476-28.335,24.377-13.666,10.734-30.961,22.323-36.823,19.137a10.357,10.357,0,0,1-1.19-.776,4.431,4.431,0,0,1-1.91-3.493c.016-.036,0-.085.016-.137a1.538,1.538,0,0,1,.012-.35,8.357,8.357,0,0,1,2.26-4.4c0-.015.012-.021.039-.043a34.73,34.73,0,0,1,6.123-5.373l.016-.025a162.807,162.807,0,0,1,15.389-9.419c1.249-.709,2.346-1.327,3.162-1.8.486-.286,1-.612,1.591-.98,3.077-1.975,8.364-5.9,13.81-10.031C809.214,642.311,816.577,636.533,819.557,634.169Z" transform="translate(0 11.927)"/><path class="c" d="M774.339,657.119a28.83,28.83,0,0,1-2.451-6.04l4.481-10.147,16.863-3.14s2.151,19.5-3.151,21.435c-2.591.946-4.314.682-6.185,1.089l-3.6,7.975-14.65-1.007,1.144-10.64Z" transform="translate(17.233 19.716)"/><path class="d" d="M759.927,690.712c-.074,2.2.439,11.373,1.19,18.97,22.383-1.033,37.251,2.534,57.3,0,.879-19.144.513-52.666,0-53.445v-.027c-.331-.4-.7-.776-1.023-1.129a8.6,8.6,0,0,0-2.311-1.576.53.53,0,0,0-.132-.064,7.711,7.711,0,0,0-2.906-.66c-3.272-1.108-11.122-2.248-12.316-2.41a.8.8,0,0,0-.132-.018s-.864-1.254-5.251-2.41q-1.039-.26-2.478-.529l-.961-.161c-3.929-.657-8.776-1.156-8.776-1.156l-3.5,1.655h-.1a98.536,98.536,0,0,0-14.891,1.61,5.806,5.806,0,0,0-3.571,2s-.039,0-.039.015v.036C759.274,652.476,760.024,688.18,759.927,690.712Z" transform="translate(0.004 36.675)"/><path class="e" d="M788.374,688.008c-.023-19.092-.479-34.338-.817-35.163V652.8c-.331-.651-.7-1.244-1.023-1.813-5.967-.779-14.164.1-15.719,10.457-1.218,8.151.253,18.377,1.821,28.28C777.894,689.183,783.177,688.671,788.374,688.008Z" transform="translate(30.86 46.225)"/><path class="f" d="M785.839,652.966c-.171.036-.354.052-.556.076-7.395.846-16.28-1.384-18.792-1.929-2.532-.572-1.937-2.188-1.937-2.188l.1-.155h.07l3.517-2.678s4.835.816,8.788,1.865l.961.265a24.956,24.956,0,0,1,2.466.849c4.411,1.856,5.24,3.867,5.24,3.867S785.746,652.945,785.839,652.966Z" transform="translate(13.891 36.669)"/><path class="g" d="M799.035,640.128c-2.008-6.356-16.159-5.142-20.17-4.892-18.672,1.174-14.731,17.811-13.9,19.646,1.653,3.688,4.361,6.551,5.411,8.483,1.066,1.941,1.187,2.117,8.492,2.4,6.481.24,7.636-6.432,8.185-8.814.253-1.074-.354-3.949,2.249-4.013s3.182,3.03,4.17,2c.63-.642,1.338-3.328,1.532-5.58a12.005,12.005,0,0,0-.171-3.049C794.83,645.383,800.844,645.885,799.035,640.128Z" transform="translate(12.61 13.97)"/><path class="a" d="M786.646,652.991s1.674-3.336,1.627-4.854a28.255,28.255,0,0,1,.4-5.51c.377-1.369-.011-5.078,1.572-4.643s1.373,2.257,1.373,2.257,1.653-6.785,3.925-7.643c2-.755,6.819.639,6.469,6.56-.16,2.759-2.832,11.677-5.851,13.484a26.511,26.511,0,0,0-4.349,3.42Z" transform="translate(369.971 -225.973) rotate(22)"/><path class="h" d="M821.453,638.393a3.906,3.906,0,0,1,1.836-.06c1.542.338,1.388.429,2.765,1.391.333.223.61.438.89.661a18.124,18.124,0,0,1,1.47,1.372,1.443,1.443,0,0,1,.145,1.8c-3.365,2.91-13.328,10.923-24.007,18.394-11.578,8.1-26.234,16.838-31.2,14.435a9.035,9.035,0,0,1-1.012-.585,3.264,3.264,0,0,1-1.615-2.637.408.408,0,0,1,.01-.1,1.185,1.185,0,0,1,.01-.262,6.107,6.107,0,0,1,1.918-3.321c0-.012.01-.016.03-.032a28.711,28.711,0,0,1,5.191-4.049l.01-.018a142.282,142.282,0,0,1,13.038-7.11c1.061-.533,1.981-1,2.67-1.359.422-.214.854-.461,1.361-.739,2.6-1.487,7.083-4.448,11.7-7.567C812.679,644.536,818.928,640.177,821.453,638.393Z" transform="translate(67.417 -7.755) rotate(3)"/></g></svg>