<svg xmlns="http://www.w3.org/2000/svg" xmlns:xlink="http://www.w3.org/1999/xlink" width="121.776" height="90.546" viewBox="0 0 121.776 90.546"><defs><style>.a{fill:#4c87ad;opacity:0.9;}.b,.e{opacity:0.45;}.c,.e{fill:#fff;}.d{fill:#c4c4f7;opacity:0.51;}.f{fill:url(#a);}.g{fill:url(#b);}.h{fill:url(#c);}</style><linearGradient id="a" y1="0.5" x2="1" y2="0.5" gradientUnits="objectBoundingBox"><stop offset="0" stop-color="#a3b4dd"/><stop offset="1" stop-color="#e4edf8"/></linearGradient><linearGradient id="b" y1="0.5" x2="1" y2="0.5" gradientUnits="objectBoundingBox"><stop offset="0" stop-color="#a3b4dd"/><stop offset="0" stop-color="#a1ce8f" stop-opacity="0.596"/><stop offset="1" stop-color="#e4edf8"/></linearGradient><linearGradient id="c" x1="1.416" y1="1.523" x2="0.299" y2="0.335" gradientUnits="objectBoundingBox"><stop offset="0" stop-color="#f6d5d5"/><stop offset="0" stop-color="#d9d9d9"/><stop offset="0.071" stop-color="#d5d5d5" stop-opacity="0.906"/><stop offset="0.204" stop-color="#fff" stop-opacity="0.737"/><stop offset="0.325" stop-color="#c9c9c9" stop-opacity="0.584"/><stop offset="0.448" stop-color="#c4c4c4" stop-opacity="0.447"/><stop offset="0.553" stop-color="#bfbfbf" stop-opacity="0.333"/><stop offset="0.749" stop-color="#b8b8b8" stop-opacity="0.153"/><stop offset="0.904" stop-color="#b4b4b4" stop-opacity="0.039"/><stop offset="1" stop-color="#b3b3b3" stop-opacity="0"/></linearGradient></defs><path class="a" d="M556.534,233.461H442.228l13.69-11.443V151.353c0-4.66,3.343-8.438,7.469-8.438h93.148c4.126,0,7.469,3.777,7.469,8.438v73.669C564,229.681,560.661,233.461,556.534,233.461Z" transform="translate(-442.228 -142.915)"/><g transform="translate(38.017 13.102)"><g class="b" transform="translate(0 0)"><rect class="c" width="44.157" height="5.648" transform="translate(31.206 0)"/><rect class="c" width="44.157" height="5.648" transform="translate(31.206 8.437)"/><rect class="c" width="44.157" height="5.648" transform="translate(31.206 16.875)"/><rect class="c" width="44.157" height="5.648" transform="translate(31.206 25.096)"/><rect class="c" width="44.157" height="5.648" transform="translate(31.206 33.317)"/><rect class="c" width="44.157" height="5.648" transform="translate(31.206 48.256)"/><rect class="c" width="75.363" height="5.648" transform="translate(0 57.152)"/></g><g transform="translate(0 0)"><rect class="d" width="27.738" height="43.354" rx="4.313"/><rect class="e" width="27.738" height="4.654" transform="translate(0 48.753)"/><g transform="translate(3.548 14.184)"><path class="c" d="M498.582,170.1H488.517a1.379,1.379,0,0,1-1.213-1.24l-1.935-9.556c-.217-1.067.384-2.117,1.211-2.117h13.939c.827,0,1.428,1.049,1.211,2.117l-1.935,9.556A1.379,1.379,0,0,1,498.582,170.1Z" transform="translate(-485.324 -151.68)"/><g transform="translate(2.658)"><path class="c" d="M493.83,174.988H481.708c-.139,0-.251-.149-.251-.333s.111-.335.251-.335h11.934l4.218-19.665a.272.272,0,0,1,.24-.242h2.637c.138,0,.251.149.251.333s-.113.335-.251.335h-2.449l-4.218,19.665A.272.272,0,0,1,493.83,174.988Z" transform="translate(-481.457 -154.413)"/></g><g transform="translate(1.833 21.252)"><path class="c" d="M496.129,167.085c0,1.081-.656,1.958-1.465,1.958s-1.466-.877-1.466-1.958.656-1.96,1.466-1.96S496.129,166,496.129,167.085Z" transform="translate(-493.198 -165.125)"/><path class="c" d="M488.947,167.085c0,1.081-.656,1.958-1.465,1.958s-1.466-.877-1.466-1.958.656-1.96,1.466-1.96S488.947,166,488.947,167.085Z" transform="translate(-475.357 -165.125)"/></g></g></g></g><g transform="translate(35.507 1.776)"><g transform="translate(4.848 17.692)"><path class="c" d="M1056.29,615.046h-9.658l3.164-10.217a1.318,1.318,0,0,1,1.2-1.006h7.768a.824.824,0,0,1,.649,1.123Z" transform="translate(-1039.448 -603.823)"/><path class="f" d="M.454,0H17.282a0,0,0,0,1,0,0V0a.907.907,0,0,1-.907.907H.454A.454.454,0,0,1,0,.454v0A.454.454,0,0,1,.454,0Z" transform="translate(0 10.866)"/></g><g transform="translate(0 0)"><path class="g" d="M1059.2,615.046h-9.658l3.164-10.217a1.319,1.319,0,0,1,1.2-1.006h7.767a.824.824,0,0,1,.649,1.123Z" transform="translate(-1037.01 -586.21)"/><path class="h" d="M962.4,518.192l-12.49-8.405,16.041-20.265,9.347,17.971-12.456,10.7Z" transform="translate(-949.907 -489.522)"/><path class="c" d="M1096.616,638.186c-.25-.543.367-.244.819-.544s.569-1.088.819-.544a1.25,1.25,0,0,1-.366,1.528A.86.86,0,0,1,1096.616,638.186Z" transform="translate(-1077.717 -614.166)"/></g></g></svg>