<svg xmlns="http://www.w3.org/2000/svg" width="46.314" height="38.55" viewBox="0 0 46.314 38.55"><defs><style>.a{fill:#41cfeb;}</style></defs><path class="a" d="M41.578,9.6c.018.419.028.841.028,1.264,0,12.862-9.556,27.689-27.04,27.689A26.419,26.419,0,0,1,0,34.181a18.818,18.818,0,0,0,14.069-4.03A9.544,9.544,0,0,1,5.192,23.39a9.32,9.32,0,0,0,4.291-.164,9.68,9.68,0,0,1-7.622-9.544c0-.041,0-.083,0-.123a9.294,9.294,0,0,0,4.3,1.216,9.79,9.79,0,0,1-4.226-8.1,9.87,9.87,0,0,1,1.286-4.9A26.777,26.777,0,0,0,22.81,11.953a9.947,9.947,0,0,1-.244-2.22A9.62,9.62,0,0,1,32.067,0,9.394,9.394,0,0,1,39,3.073,18.7,18.7,0,0,0,45.04.71,9.739,9.739,0,0,1,40.856,6.1a18.545,18.545,0,0,0,5.458-1.531A19.379,19.379,0,0,1,41.578,9.6Z"/></svg>