<svg xmlns="http://www.w3.org/2000/svg" xmlns:xlink="http://www.w3.org/1999/xlink" width="1927.027" height="850.803" viewBox="0 0 1927.027 850.803"><defs><style>.a{opacity:0.68;}.b{fill:#4cbef7;opacity:0.39;}.c{fill:#46b1e3;opacity:0.04;}.d{fill:#fff;}.e{fill:#218498;}.f,.g,.i,.k{fill:none;stroke-miterlimit:10;}.f,.g,.i{stroke:#fff;}.f{stroke-width:1.226px;}.g{stroke-width:0.948px;}.h{fill:#8182ee;}.i{stroke-width:0.991px;}.j{fill:url(#c);}.k{stroke:#94c3ff;stroke-width:0.926px;}.l{fill:#a6d0f4;}.m{fill:url(#d);}.n{fill:#c7d8f2;}.o{fill:#eaf1f7;}.p{fill:#94c3ff;}.q{isolation:isolate;}.r{fill:#4b5cc0;}.s{fill:#cbdceb;}.t{fill:#25437f;}.u{fill:#ff8d68;}.v{fill:#79aef5;}.w{fill:#254da1;}.x{fill:#86e563;}.y{fill:#2ab774;}.z{fill:#ff8e54;}.aa{fill:#ff5f4d;}.ab{fill:#f9fbfc;}.ac{fill:#253c72;}.ad{fill:#252f4c;}.ae{fill:#171e26;}.af{fill:#1f2f3f;}.ag{fill:#bdc5cb;}.ah{fill:#4385ff;}.ai{opacity:0.53;}.aj{filter:url(#a);}</style><filter id="a" x="9.996" y="3.575" width="1917.031" height="847.228" filterUnits="userSpaceOnUse"><feOffset dx="10.277" dy="10.277" input="SourceAlpha"/><feGaussianBlur stdDeviation="8.075" result="b"/><feFlood flood-opacity="0.369"/><feComposite operator="in" in2="b"/><feComposite in="SourceGraphic"/></filter><linearGradient id="c" x1="1" y1="0.5" x2="0" y2="0.5" gradientUnits="objectBoundingBox"><stop offset="0" stop-color="#fff"/><stop offset="1" stop-color="#cbdceb"/></linearGradient><linearGradient id="d" x1="0.593" y1="0.057" x2="0.25" y2="1.691" xlink:href="#c"/></defs><g transform="translate(-70.293 -55.776)"><g class="a" transform="translate(77.441 56.694)"><g class="aj" transform="matrix(1, 0, 0, 1, -7.15, -0.92)"><rect class="b" width="1868.582" height="798.778" rx="12.465" transform="translate(23.94 17.52)"/></g><rect class="c" width="1906.309" height="821.5" rx="29.768"/></g><g transform="translate(70.293 55.776)"><path class="d" d="M70.293,568.364S132.822,183.4,427.958,234.893c285.131,46.589,802.87,58.849,432.7-179.117H1990.293l-7.108,533.813s-160.408,207.967-723.944,105.238S485.72,740.449,535.361,878.886c-40.688-3.491-452.031-.615-452.031-.615Z" transform="translate(-70.293 -55.776)"/><g transform="translate(1484.529 596.972)"><path class="e" d="M127.525,333.484s124.434-37.547,227.389-32.039c93.26,4.987,108.142,14.017,154.065,10.013-11.853,20.025-62.219,86.11-165.914,110.14s-204.43,12.016-242.947-8.009S103.822,341.5,127.525,333.484Z" transform="translate(-84.559 -300.892)"/><path class="f" d="M434.974,312.145S257.21,364.713,97.221,354.2" transform="translate(-49.812 -288.564)"/><line class="f" x1="63.884" y1="17.272" transform="translate(279.059 48.363)"/><path class="f" d="M176.008,313.041c0,1.127-31.664,33.418-31.664,33.418" transform="translate(63.054 -287.583)"/></g><g transform="translate(1031.8 480.8)"><path class="e" d="M487.219,398.821S449.106,332.435,388.131,297.6c-55.234-31.56-70.676-32.073-92.671-51.162-9.614,15.356-35.152,70.173,2.452,121.506s102.6,81.785,139.874,84.951S493.789,411.937,487.219,398.821Z" transform="translate(-278.033 -246.434)"/><path class="g" d="M287.818,256.734s55.311,94.249,151.637,147.314" transform="translate(-259.31 -235.149)"/><line class="g" x2="48.989" y2="14.009" transform="translate(17.839 60.209)"/><path class="g" d="M320.847,282.867c-.905.618-9.512,30-9.512,30" transform="translate(-213.614 -206.518)"/></g><g transform="translate(1461.574 414.838)"><path class="h" d="M109.311,449.45s29.627-108.139,133.323-158.2,174.8-50.064,237.019-76.1c0,0,5.925,42.054-35.552,106.135s-91.846,116.15-186.653,144.185S109.311,449.45,109.311,449.45Z" transform="translate(-109.31 -215.151)"/><path class="f" d="M396.5,226.619S224.665,364.794,118,426.873" transform="translate(-52.825 -202.586)"/><line class="f" x1="72.587" y2="6.008" transform="translate(248.87 93.12)"/><line class="f" x2="19.258" y2="55.07" transform="translate(177.764 80.103)"/><line class="f" x1="90.364" y1="3.004" transform="translate(127.397 185.238)"/></g><g transform="translate(794.09 559.42)"><path class="h" d="M668.164,399.077s-63.4-77.866-161.775-98.453-152.924-8.37-210.445-17.651c0,0,11.27,33.28,67.192,75.311S477.276,431.6,560.55,436.821,668.164,399.077,668.164,399.077Z" transform="translate(-295.944 -282.972)"/><path class="i" d="M313.286,289.584s183.791,76.472,288.959,105.769" transform="translate(-283.792 -275.729)"/><line class="i" y1="7.864" x2="57.944" transform="translate(72.523 55.172)"/><line class="i" x2="5.938" y2="45.555" transform="translate(177.859 28.361)"/><line class="i" y1="17.831" x2="68.191" transform="translate(187.847 100.358)"/></g><g transform="translate(1126.862 260.311)"><g transform="translate(30.437 281.716)"><g transform="translate(47.63 110.594)"><path class="j" d="M207.913,393.847c-25.884,10.061-26.019,26.368-.3,36.427l120.7,47.222c25.715,10.061,67.532,10.061,93.416,0l121.49-47.222c25.884-10.061,26.019-26.368.3-36.427l-120.7-47.224c-25.715-10.059-67.532-10.059-93.416,0Z" transform="translate(-188.411 -339.081)"/></g><g transform="translate(47.63 88.818)"><path class="k" d="M207.913,381.4c-25.884,10.059-26.019,26.366-.3,36.427l120.7,47.222c25.715,10.061,67.532,10.061,93.416,0l121.49-47.221c25.884-10.061,26.019-26.368.3-36.429l-120.7-47.222c-25.715-10.061-67.532-10.061-93.416,0Z" transform="translate(-188.411 -326.633)"/></g><path class="l" d="M194.145,351.114l151.419,59.241c32.258,12.622,84.719,12.622,117.189,0l152.409-59.241c16.339-6.35,24.5-14.686,24.465-23.009l.049,11.791c.036,8.322-8.125,16.658-24.465,23.008L462.8,422.145c-32.468,12.62-84.932,12.62-117.19,0L194.194,362.9c-16.025-6.27-24.049-14.474-24.083-22.691l-.049-11.789C170.1,336.639,178.12,344.844,194.145,351.114Z" transform="translate(-170.062 -236.71)"/><path class="m" d="M194.545,344.566c-32.471,12.62-32.64,33.079-.382,45.7L345.583,449.5c32.258,12.622,84.719,12.622,117.189,0l152.409-59.241c32.471-12.62,32.642-33.079.382-45.7L464.144,285.327c-32.258-12.62-84.719-12.622-117.189,0Z" transform="translate(-170.08 -275.861)"/></g><g transform="translate(0 0.001)"><path class="n" d="M301.185,182.732l168.484-65.488c7.286-2.832,13.884-3.1,18.649-1.233l13.949,5.458c-4.766-1.865-11.363-1.6-18.652,1.232L315.134,188.189c-14.455,5.619-26.169,19.257-26.12,30.458l.164,39.1a11.537,11.537,0,0,0,7.645,11.313L282.874,263.6a11.536,11.536,0,0,1-7.645-11.313l-.164-39.1C275.018,201.989,286.73,188.349,301.185,182.732Z" transform="translate(-275.065 -114.822)"/><g transform="translate(13.949 5.457)"><path class="o" d="M298.181,185.851c-14.456,5.619-26.169,19.257-26.12,30.458l.164,39.1c.047,11.2,11.836,15.7,26.292,10.085L467,200.009c14.479-5.629,26.167-19.257,26.12-30.458l-.164-39.1c-.049-11.2-11.813-15.715-26.292-10.087Z" transform="translate(-272.061 -117.942)"/></g><g transform="translate(0 103.923)"><path class="p" d="M301.185,242.138l168.484-65.488c7.286-2.832,13.884-3.1,18.649-1.233l13.949,5.458c-4.766-1.865-11.363-1.6-18.652,1.232L315.134,247.595c-14.455,5.619-26.169,19.257-26.12,30.458l.164,39.1a11.537,11.537,0,0,0,7.645,11.313l-13.949-5.458a11.536,11.536,0,0,1-7.645-11.313l-.164-39.1C275.018,261.4,286.73,247.755,301.185,242.138Z" transform="translate(-275.065 -174.228)"/><g transform="translate(13.949 5.457)"><path class="h" d="M298.181,245.257c-14.456,5.619-26.169,19.257-26.12,30.458l.164,39.1c.047,11.2,11.836,15.7,26.292,10.087L467,259.415c14.479-5.629,26.167-19.257,26.12-30.458l-.164-39.1c-.049-11.2-11.813-15.715-26.292-10.087Z" transform="translate(-272.061 -177.348)"/></g></g></g><g transform="translate(37.037 77.464)"><g transform="translate(8.011 57.152)"><path class="l" d="M345.061,191.773c.088.049.179.1.27.143C345.24,191.869,345.149,191.822,345.061,191.773Z" transform="translate(-345.061 -191.773)"/></g><g transform="translate(44.284 51.419)"><path class="l" d="M331.084,188.7c.107-.066.213-.133.317-.2C331.3,188.562,331.191,188.629,331.084,188.7Z" transform="translate(-331.084 -188.496)"/></g><g transform="translate(31.959 57.36)"><path class="l" d="M335.888,191.944l.159-.053Z" transform="translate(-335.888 -191.892)"/></g><g transform="translate(31.008 57.568)"><path class="l" d="M336.132,192.16c.159-.049.317-.1.476-.149C336.449,192.062,336.291,192.111,336.132,192.16Z" transform="translate(-336.132 -192.011)"/></g><g transform="translate(10.29 58.187)"><path class="l" d="M344.179,192.365l.283.1Z" transform="translate(-344.179 -192.365)"/></g><g class="q"><g transform="translate(56.614 41.36)"><path class="l" d="M326.336,183.085c.109-.112.216-.226.325-.339Z" transform="translate(-326.336 -182.746)"/></g><g transform="translate(59.648 36.35)"><path class="l" d="M324.707,181.824q.787-.96,1.523-1.942Q325.5,180.861,324.707,181.824Z" transform="translate(-324.707 -179.882)"/></g><g transform="translate(54.384 42.097)"><path class="l" d="M326.61,184.967q.947-.884,1.842-1.8Q327.556,184.083,326.61,184.967Z" transform="translate(-326.61 -183.167)"/></g><g transform="translate(54.012 43.918)"><path class="l" d="M327.327,184.533l.351-.325Z" transform="translate(-327.327 -184.208)"/></g><g transform="translate(51.619 45.867)"><path class="l" d="M328.168,185.8c.187-.156.372-.315.556-.472l0,0C328.542,185.481,328.358,185.639,328.168,185.8Z" transform="translate(-328.168 -185.322)"/></g><g transform="translate(7.388 35.451)"><path class="r" d="M351.232,200.64l.161-.061q.242-.089.483-.184t.476-.189l.156-.061.32-.129.185-.077.291-.121.192-.082.283-.121.19-.082c.1-.042.192-.084.289-.128l.184-.08.3-.135.169-.077c.117-.052.231-.1.346-.159.275-.128.434-.2.59-.276l.46-.222.153-.075.307-.152.169-.086c.1-.049.2-.1.3-.149l.172-.087c.1-.051.192-.1.291-.15l.169-.089c.1-.051.195-.1.294-.154l.164-.087.314-.17.138-.075c.132-.072.265-.145.4-.219.205-.114.356-.2.509-.287.187-.1.317-.18.447-.255l.447-.261.14-.086.3-.178.151-.093c.1-.059.2-.121.3-.182l.14-.084c.106-.066.213-.133.317-.2l.481-.3c.369-.238.665-.429.956-.623.164-.108.3-.2.429-.287l.426-.29.429-.3c.218-.154.327-.231.434-.308.213-.15.33-.234.447-.318.494-.359.915-.673,1.333-.992l.405-.313c.179-.138.291-.227.405-.318.19-.149.3-.238.411-.325.184-.15.3-.241.411-.334.187-.154.312-.255.437-.36.553-.46,1.081-.915,1.6-1.377.151-.136.268-.24.382-.345l.385-.348.392-.366c.652-.611,1.265-1.211,1.863-1.821l.353-.362.359-.374c.722-.764,1.4-1.515,2.048-2.276l.32-.38c.127-.152.226-.269.322-.388.546-.665,1.055-1.314,1.544-1.966-5.652-.721-17.225-.89-17.836-.9-.008.01-.19.219-.551.583a26.9,26.9,0,0,1-8.879,5.937,16.661,16.661,0,0,1-9.134.994c-.169-.03-.335-.065-.5-.1-.548.436-10.958,8.693-16.88,13.935.195.117.4.229.6.339.117.063.208.11.3.157.135.07.218.112.3.152.146.072.231.114.32.154.146.068.244.114.343.157.335.149.663.283,1,.409.14.054.236.089.33.122.153.054.247.087.34.119.159.054.26.087.364.119.379.121.735.224,1.1.318.14.037.247.063.351.089l.364.086.39.084c.413.086.793.156,1.177.215.153.024.265.042.379.058.172.024.278.038.385.052.182.023.288.035.4.047.19.021.312.035.434.046.288.028.561.051.837.07l.4.023.4.019c.2.007.309.01.418.012.2.005.317.007.436.009.338,0,.621,0,.907,0l.418-.01c.192-.007.307-.01.418-.016.213-.009.322-.014.429-.021l.447-.026.491-.037c.322-.026.618-.054.915-.087.205-.021.32-.035.434-.049l.127-.014.314-.04.135-.018c.106-.014.213-.03.32-.045l.125-.018c.12-.018.239-.035.356-.054.392-.06.694-.112,1-.166.218-.04.335-.061.452-.084l.14-.028.314-.061.153-.032c.1-.021.2-.042.3-.065l.161-.035.317-.07.14-.031.4-.094c.213-.051.369-.089.525-.128l.463-.119.156-.042.314-.084.169-.047c.1-.026.2-.054.3-.084l.179-.051.3-.089.166-.047.351-.107c.281-.087.439-.136.6-.187.205-.066.34-.11.475-.156l.159-.052.32-.108.182-.061.3-.1.192-.066.3-.11.182-.065Z" transform="translate(-324.707 -179.368)"/></g><g transform="translate(52.175 44.978)"><path class="l" d="M327.777,185.7l0,0c.346-.294.689-.59,1.026-.89h0C328.465,185.113,328.122,185.409,327.777,185.7Z" transform="translate(-327.774 -184.814)"/></g><g transform="translate(53.202 44.976)"><path class="l" d="M327.776,184.813l0,0h0Z" transform="translate(-327.773 -184.813)"/></g><g transform="translate(50.424 47.047)"><path class="l" d="M328.715,186.261c.112-.087.221-.177.333-.264C328.936,186.084,328.827,186.174,328.715,186.261Z" transform="translate(-328.715 -185.997)"/></g><g transform="translate(49.546 47.691)"><path class="l" d="M329.029,186.669l.395-.3Z" transform="translate(-329.029 -186.365)"/></g><g transform="translate(48.267 48.004)"><path class="l" d="M329.185,187.487c.429-.31.85-.625,1.268-.943C330.035,186.862,329.614,187.177,329.185,187.487Z" transform="translate(-329.185 -186.544)"/></g><g transform="translate(47.002 49.623)"><path class="l" d="M330.037,187.691c.107-.075.213-.149.32-.222C330.25,187.542,330.144,187.616,330.037,187.691Z" transform="translate(-330.037 -187.469)"/></g><g transform="translate(46.066 50.209)"><path class="l" d="M330.366,188.072c.135-.089.268-.178.4-.268C330.634,187.893,330.5,187.982,330.366,188.072Z" transform="translate(-330.366 -187.804)"/></g><g transform="translate(45.154 50.496)"><path class="l" d="M330.531,188.544c.3-.191.592-.381.883-.576C331.123,188.162,330.827,188.353,330.531,188.544Z" transform="translate(-330.531 -187.968)"/></g><g transform="translate(43.392 51.977)"><path class="l" d="M331.433,188.993l.3-.178Z" transform="translate(-331.433 -188.815)"/></g><g transform="translate(41.451 53.044)"><path class="l" d="M332.143,189.644c.132-.072.265-.145.4-.219C332.408,189.5,332.276,189.572,332.143,189.644Z" transform="translate(-332.143 -189.425)"/></g><g transform="translate(13.156 59.036)"><path class="l" d="M343.061,192.85c.107.024.213.047.322.07C343.274,192.9,343.168,192.874,343.061,192.85Z" transform="translate(-343.061 -192.85)"/></g><g transform="translate(44.694 17.491)"><path class="s" d="M330.234,171.466l-.374,3a9.281,9.281,0,0,1-.218,1.149,1.29,1.29,0,0,0,.327-.086,1.612,1.612,0,0,0,.19-.086c2.676-1.428,4.163-6.28,2.318-6.341a2.058,2.058,0,0,0-.824.143,2.787,2.787,0,0,0-.663.378c-.374,1.128-.668,1.959-.681,2Z" transform="translate(-329.642 -169.101)"/></g><g transform="translate(9.261 57.766)"><path class="l" d="M344.306,192.124q.479.213.982.4Q344.785,192.337,344.306,192.124Z" transform="translate(-344.306 -192.124)"/></g><g transform="translate(24.772 31.487)"><path class="s" d="M333.212,186.951a12.9,12.9,0,0,1-1.429,1.629,16.661,16.661,0,0,0,9.134-.994,26.9,26.9,0,0,0,8.879-5.937,4.734,4.734,0,0,1-1.562-.537,11.262,11.262,0,0,1-1.278-4.01l-3.742,3.6a7.139,7.139,0,0,1-2.328,1.5,4.4,4.4,0,0,1-2.336.311l-3.846-.7c-.075-.014-.151-.03-.223-.046A20.976,20.976,0,0,1,333.212,186.951Z" transform="translate(-331.783 -177.102)"/></g><g transform="translate(8.643 57.477)"><path class="l" d="M344.822,191.959c.086.042.172.084.26.124C344.994,192.043,344.908,192,344.822,191.959Z" transform="translate(-344.822 -191.959)"/></g><g transform="translate(8.331 57.322)"><path class="l" d="M344.945,191.87c.086.044.169.086.252.126C345.114,191.956,345.031,191.914,344.945,191.87Z" transform="translate(-344.945 -191.87)"/></g><g transform="translate(22.532 13.015)"><path class="s" d="M333.4,178.444a5.359,5.359,0,0,1-1.676.509l-.9,4.529.224,1.515a5.938,5.938,0,0,0,.195.88,5.591,5.591,0,0,0,4.519,3.8c.073.016.148.031.223.046l3.846.7a4.4,4.4,0,0,0,2.336-.311,7.138,7.138,0,0,0,2.328-1.5l3.742-3.6.086-.082a16.291,16.291,0,0,0,4.664-7.4,9.293,9.293,0,0,0,.218-1.149l.374-3-3.139-6.628c-.023-.023-.491-.46-1.658-.009a8.176,8.176,0,0,0-2.52,1.767c-3.007,2.855-3.326,5.441-8.513,7.974C335.682,177.5,334.307,178.093,333.4,178.444Z" transform="translate(-330.82 -166.543)"/></g><g transform="translate(19.023 27.631)"><path class="s" d="M340.222,175.526c-1.837,1.49-.317,5.175,2.362,4.522.068-.019.133-.04.192-.063a1.568,1.568,0,0,0,.567-.369,5.942,5.942,0,0,1-.195-.88l-.223-1.515-.078.39a17.94,17.94,0,0,1-1.255-2.713,2.025,2.025,0,0,0-.548.131A3.087,3.087,0,0,0,340.222,175.526Z" transform="translate(-339.416 -174.898)"/></g><g transform="translate(20.253 6.25)"><path class="h" d="M339.536,166.051c-5.514,3.315-8.515,7.72-9.336,11.8a11.878,11.878,0,0,0,.8,6.207,17.938,17.938,0,0,0,1.255,2.713l.078-.39.9-4.529a5.36,5.36,0,0,0,1.676-.509c.907-.352,2.282-.948,4.345-1.958,5.187-2.533,5.506-5.119,8.513-7.974a8.175,8.175,0,0,1,2.52-1.767c1.167-.451,1.635-.014,1.658.009l3.139,6.628.075.161c.013-.044.307-.875.681-2,.4-1.212.881-2.719,1.135-3.758.5-2.008-.855-6.018-3.04-7.377-1.715-1.06-6.205-.8-10.724.953A24.427,24.427,0,0,0,339.536,166.051Z" transform="translate(-330.052 -162.676)"/></g><path class="t" d="M364.521,195.136c.361-.364.543-.572.551-.583.611.009,12.184.178,17.839.894,4.846-6.487,7.741-13.5,7.715-19.9-.062-14.719-15.526-20.658-34.557-13.264s-34.391,25.32-34.331,40.04c.029,6.459,3.022,11.226,7.983,13.918-.2-.11-.4-.222-.6-.339,5.922-5.243,16.332-13.5,16.88-13.935.169.037.335.072.5.1a12.9,12.9,0,0,0,1.429-1.629,20.977,20.977,0,0,0,1.268-5.182,5.591,5.591,0,0,1-4.519-3.8,1.568,1.568,0,0,1-.566.369c-2.871.715-4.392-2.969-2.554-4.459a3.086,3.086,0,0,1,.821-.5,2.025,2.025,0,0,1,.548-.131,11.879,11.879,0,0,1-.8-6.207c.821-4.08,3.822-8.484,9.336-11.8a24.427,24.427,0,0,1,3.677-1.793c4.519-1.756,9.009-2.014,10.724-.953,2.185,1.359,3.542,5.369,3.04,7.377-.255,1.039-.733,2.545-1.135,3.758a2.787,2.787,0,0,1,.663-.378,2.059,2.059,0,0,1,.824-.143c1.845.061.358,4.914-2.318,6.341a1.8,1.8,0,0,1-.517.171,16.29,16.29,0,0,1-4.664,7.4,9.662,9.662,0,0,0,1.193,4.092A4.733,4.733,0,0,0,364.521,195.136Z" transform="translate(-321.737 -159.103)"/></g><g transform="translate(46.555 49.918)"><path class="l" d="M330.2,187.869l.338-.231Z" transform="translate(-330.202 -187.638)"/></g><g transform="translate(42.413 52.502)"><path class="l" d="M331.775,189.339c.132-.073.262-.149.392-.224C332.037,189.19,331.908,189.265,331.775,189.339Z" transform="translate(-331.775 -189.115)"/></g><g transform="translate(39.445 54.225)"><path class="l" d="M333,190.186l.169-.086Z" transform="translate(-333.003 -190.1)"/></g><g transform="translate(27.417 58.648)"><path class="l" d="M337.643,192.659l.14-.031Z" transform="translate(-337.643 -192.628)"/></g><g transform="translate(26.635 58.784)"><path class="l" d="M337.881,192.771c.1-.021.2-.042.3-.065C338.084,192.729,337.982,192.75,337.881,192.771Z" transform="translate(-337.881 -192.706)"/></g><g transform="translate(26.481 58.849)"><path class="l" d="M338,192.774l.153-.032Z" transform="translate(-337.998 -192.743)"/></g><g transform="translate(26.167 58.88)"><path class="l" d="M338.057,192.822l.314-.061Z" transform="translate(-338.057 -192.761)"/></g><g transform="translate(20.591 59.608)"><path class="l" d="M340.2,193.194c.107-.005.216-.01.322-.017C340.416,193.184,340.307,193.189,340.2,193.194Z" transform="translate(-340.2 -193.177)"/></g><g transform="translate(18.387 59.65)"><path class="l" d="M341.036,193.2c.117,0,.234.005.353.007C341.27,193.206,341.153,193.2,341.036,193.2Z" transform="translate(-341.036 -193.201)"/></g><g transform="translate(17.886 59.636)"><path class="l" d="M341.33,193.193l.091,0Z" transform="translate(-341.33 -193.193)"/></g><g transform="translate(17.101 59.594)"><path class="l" d="M341.519,193.169c.127.009.257.016.384.023C341.774,193.185,341.646,193.178,341.519,193.169Z" transform="translate(-341.519 -193.169)"/></g><g transform="translate(12.411 58.856)"><path class="l" d="M343.351,192.747c.1.028.211.054.314.08C343.562,192.8,343.455,192.775,343.351,192.747Z" transform="translate(-343.351 -192.747)"/></g></g><g transform="translate(37.034 174.989)"><g class="q"><g transform="translate(28.973 41.327)"><path class="t" d="M337.24,238.476c-.073.17-.146.331-.229.5l.216.051C337.234,238.836,337.24,238.654,337.24,238.476Z" transform="translate(-337.011 -238.476)"/></g><g transform="translate(45.957 16.877)"><path class="s" d="M331.217,224.638a7.306,7.306,0,0,1-1.278,3.264c-.005,0-.114-.082-.289-.231l-.27,2.192a9.263,9.263,0,0,1-.226,1.144,1.6,1.6,0,0,0,.387-.1l.068-.028.073-.033a6.866,6.866,0,0,0,3.134-5.138c.01-.705-.242-1.191-.818-1.211A2,2,0,0,0,331.217,224.638Z" transform="translate(-329.154 -224.5)"/></g><g transform="translate(29.189 32.391)"><path class="s" d="M333.681,236.835a16.811,16.811,0,0,1-1.237,5.468c0,.178-.005.36-.013.548a10.034,10.034,0,0,0,5.654-.378c.112-.04.221-.08.33-.122l.169-.067a15.9,15.9,0,0,0,5.719-4.174l.042-.051a9.6,9.6,0,0,1-1.466-4.692l-2.165,2.082a7.138,7.138,0,0,1-2.333,1.5,4.408,4.408,0,0,1-2.339.313Z" transform="translate(-332.431 -233.368)"/></g><path class="r" d="M329.95,250.608c1.006-.876,2.326-1.93,3.744-3.021a6.052,6.052,0,0,0,.9,2.215c2.757,4.23,7.749,3.969,8.011,3.955a15.034,15.034,0,0,1-1.084-5.18,6.819,6.819,0,0,1,.361-2.314,18.893,18.893,0,0,0,.657-2.236,16.275,16.275,0,0,0,.416-3.03,10.034,10.034,0,0,0,5.654-.378c.112-.04.221-.08.33-.122l.169-.067a15.9,15.9,0,0,0,5.719-4.174c.029-.033.042-.049.068-.054a120.694,120.694,0,0,1,12.766-.252c1.356.115,2.606,1.755,3.669,3.863a62.713,62.713,0,0,1-23.01,15.79c-8.458,3.287-16.212,3.934-22.225,2.351C327.185,254.768,328.5,251.859,329.95,250.608Z" transform="translate(-313.766 -199.123)"/><path class="h" d="M340.913,237.583a12.821,12.821,0,0,0,1.575-3.221,6.516,6.516,0,0,0,2.869,1.385c.107.021.213.056.32.079l1.484.264a16.811,16.811,0,0,1-1.237,5.468c-.073.17-.146.331-.229.5l.216.051a16.278,16.278,0,0,1-.416,3.03,18.887,18.887,0,0,1-.657,2.236,6.819,6.819,0,0,0-.361,2.314,15.031,15.031,0,0,0,1.083,5.18c-.263.014-5.254.275-8.011-3.955a6.051,6.051,0,0,1-.9-2.215,6.761,6.761,0,0,1-.114-1.211C336.532,244.181,338.9,240.716,340.913,237.583Z" transform="translate(-316.721 -200.232)"/><path class="s" d="M330.845,239.72l1.5-4.517c13.008-5.413,17.1-12.709,17.309-13.092a8.367,8.367,0,0,0-.075,1.174,8.147,8.147,0,0,0,2.341,5.53,7.76,7.76,0,0,0,.678.647l-.27,2.192a9.258,9.258,0,0,1-.226,1.144,16.337,16.337,0,0,1-4.657,7.41l-1.663,1.6h0l-2.165,2.082a7.138,7.138,0,0,1-2.333,1.5,4.408,4.408,0,0,1-2.339.313l-2.362-.43-1.484-.264c-.107-.023-.213-.058-.32-.079a6.517,6.517,0,0,1-2.869-1.385,5.014,5.014,0,0,1-1.541-2.412A2.045,2.045,0,0,0,330.845,239.72Z" transform="translate(-306.146 -209.413)"/><g transform="translate(24.218 31.718)"><path class="t" d="M338.934,232.983l-.008.009v.013Z" transform="translate(-338.926 -232.983)"/></g><g transform="translate(24.136 31.727)"><path class="t" d="M339.011,232.989l-.082.083.033.07.049-.14Z" transform="translate(-338.929 -232.989)"/></g><g transform="translate(24.226 30.308)"><path class="u" d="M339.217,232.177l-.473,1.41A2.045,2.045,0,0,0,339.217,232.177Z" transform="translate(-338.744 -232.177)"/></g><g transform="translate(20.289 27.075)"><path class="s" d="M340.564,230.422a2.915,2.915,0,0,0-.8.481,2.244,2.244,0,0,0-.8,1.84,2.655,2.655,0,0,0,3.165,2.689c.06-.018.114-.037.169-.058s.1-.042.148-.065a1.6,1.6,0,0,0,.366-.245,34.391,34.391,0,0,1-1.946-4.736c-.049.011-.1.025-.148.04S340.616,230.4,340.564,230.422Z" transform="translate(-338.96 -230.329)"/></g><path class="t" d="M356.066,218.034c-19.021,7.393-34.394,25.32-34.331,40.04.034,8.171,4.828,13.631,12.33,15.61,1.089-3.186,2.4-6.095,3.851-7.346,1.008-.875,2.328-1.93,3.747-3.021a6.76,6.76,0,0,1-.114-1.211c0-3.3,2.37-6.77,4.378-9.9a12.824,12.824,0,0,0,1.575-3.221,5.128,5.128,0,0,1-1.549-2.39,1.9,1.9,0,0,1-.447.315,2.664,2.664,0,0,1-3.482-2.566,2.244,2.244,0,0,1,.8-1.84,2.918,2.918,0,0,1,.8-.481c-.19-1.629-.582-3.317-.6-4.828a7.158,7.158,0,0,1,.088-1.219c.665-4.146,4.755-9.275,12.514-13.174.143-.073.286-.143.429-.212q.861-.415,1.676-.733c6.166-2.344,10.147-.9,11.366,1.832a4.671,4.671,0,0,1,.239.68,19.506,19.506,0,0,1,.618,4.688,15.706,15.706,0,0,1-.208,2.815,2,2,0,0,1,.78-.138c.577.019.829.506.819,1.211a6.866,6.866,0,0,1-3.134,5.138,1.923,1.923,0,0,1-.527.159,16.338,16.338,0,0,1-4.657,7.41l-1.663,1.6a9.37,9.37,0,0,0,1.492,4.688,120.689,120.689,0,0,1,12.766-.252c1.356.115,2.606,1.755,3.669,3.863,6.985-7.6,11.363-16.381,11.332-24.246C390.569,216.575,375.1,210.638,356.066,218.034Z" transform="translate(-321.735 -214.852)"/></g><path class="h" d="M329.777,233.488c.665-4.146,4.755-9.275,12.514-13.174.143-.073.286-.143.429-.212.574-.276,1.135-.52,1.744-.759l.151-.058c5.948-2.262,9.929-.819,11.148,1.916a4.69,4.69,0,0,1,.239.681,19.51,19.51,0,0,1,.618,4.688,12.55,12.55,0,0,1-.255,2.832l.047-.017a7.307,7.307,0,0,1-1.278,3.264c-.005,0-.114-.082-.289-.231a7.772,7.772,0,0,1-.678-.647,8.147,8.147,0,0,1-2.341-5.53,8.372,8.372,0,0,1,.075-1.174c-.213.383-4.3,7.68-17.309,13.092l-1.5,4.515-.481,1.422-.083.082a34.87,34.87,0,0,1-1.944-4.736,16.719,16.719,0,0,1-.894-4.736A7.145,7.145,0,0,1,329.777,233.488Z" transform="translate(-308.391 -212.368)"/></g><g transform="translate(117.136 41.021)"><g transform="translate(0)"><path class="v" d="M281.04,175.769A3.5,3.5,0,0,0,278.7,178.5c.005,1,1.044,1.415,2.359.9L377.01,142.12a3.48,3.48,0,0,0,2.318-2.722c-.005-1-1.045-1.415-2.333-.915Z" transform="translate(-278.696 -138.271)"/></g><g transform="translate(27.687 9.242)"><path class="v" d="M281,170.331a3.457,3.457,0,0,0-2.318,2.7c.005,1,1.045,1.415,2.333.915l68.333-26.561a3.483,3.483,0,0,0,2.318-2.722c-.005-1-1.045-1.4-2.333-.894Z" transform="translate(-278.681 -143.554)"/></g></g><g transform="translate(117.136 144.944)"><g transform="translate(0)"><path class="w" d="M281.04,235.175a3.5,3.5,0,0,0-2.344,2.733c.005,1,1.044,1.415,2.359.9l95.955-37.286a3.48,3.48,0,0,0,2.318-2.722c-.005-1-1.045-1.415-2.333-.915Z" transform="translate(-278.696 -197.677)"/></g><g transform="translate(27.687 9.243)"><path class="w" d="M281,229.737a3.457,3.457,0,0,0-2.318,2.7c.005,1,1.045,1.415,2.333.915l68.333-26.561a3.483,3.483,0,0,0,2.318-2.722c-.005-1-1.045-1.394-2.333-.894Z" transform="translate(-278.681 -202.961)"/></g></g><g transform="translate(109.27 200.891)"><path class="x" d="M342.038,230.672c-4.064-1.588-9.69-1.365-15.9,1.05-12.335,4.793-22.3,16.409-22.256,25.952a9.835,9.835,0,0,0,6.517,9.648l4.893,1.914a9.838,9.838,0,0,1-6.517-9.648c-.039-9.541,9.921-21.157,22.256-25.952,6.21-2.412,11.836-2.638,15.9-1.048Z" transform="translate(-303.884 -229.658)"/><g transform="translate(4.893 1.915)"><path class="y" d="M323.634,232.816c-12.335,4.8-22.3,16.411-22.256,25.952s10.067,13.395,22.4,8.6,22.306-16.42,22.264-25.962S335.969,228.022,323.634,232.816Z" transform="translate(-301.378 -230.753)"/></g><g transform="translate(10.232 19.957) rotate(-21)"><path class="d" d="M330.269,239.1l5.5,5.587L314.7,251.714l-10.243-10.368,5.555-1.853,4.724,4.789Z" transform="translate(-304.454 -239.101)"/></g></g><g transform="translate(133.204 135.404)"><g transform="translate(39.724)"><path class="z" d="M252.594,204.685c2.172-5.12,9.562-9.581,20.642-9.216,10.646.352,18.473,3.509,21.079,8.85,1.544,3.165,1.2,8.707-1.645,12.713-1.4,1.968-4.085,3.766-7.268,5.257l3.084,7.379c-2.762,2.243-14.31,4.961-22.435,4.676-.021,0-.985-2.575-2.006-5.33-5.407,1.022-9.4-1.968-11.342-6.042C251.354,220.142,250.9,208.673,252.594,204.685Z" transform="translate(-179.712 -189.808)"/><path class="aa" d="M251.96,204.685c2.172-5.12,9.562-9.581,20.642-9.216.19.005.361.03.548.037l21.032,10.173a14.191,14.191,0,0,1-2.146,11.353c-1.4,1.968-4.085,3.766-7.268,5.257l3.084,7.379c-2.762,2.243-14.31,4.961-22.435,4.676-.021,0-.985-2.575-2.006-5.33a10.1,10.1,0,0,1-5.278-.341A8.212,8.212,0,0,0,262.2,225.6c1.98-2.442-4.618-4-4.948-6.439s1.98-6.662-2.307-8.659A6.093,6.093,0,0,1,251.5,206.2,9.487,9.487,0,0,1,251.96,204.685Z" transform="translate(-179.079 -189.808)"/><g transform="translate(0 23.185)"><ellipse class="s" cx="90.763" cy="38.822" rx="90.763" ry="38.822" transform="translate(0 173.878)"/><path class="z" d="M303.931,219.151l-3.9-2.01-5.054-7.111s-2.754-.773-3.443-.927a52.9,52.9,0,0,0-5.971.618,33.551,33.551,0,0,0-3.214-2.318c-.688-.31-3.443-2.32-4.591-1.856s-.92,1.237-.231,1.856,2.986,2.164,2.986,2.164l2.526,4.174-.229,1.546s-1.377,0-1.837.927-.46,1.854,1.149,2.164a26,26,0,0,1,2.986.773,37.281,37.281,0,0,0,5.051,2.01c1.837.464,3.9.771,3.9.771l1.148,1.856Z" transform="translate(-254.553 -205.478)"/><path class="aa" d="M277.214,211.649c.018-.035.052-.049.073-.08a12.259,12.259,0,0,1,2.723.264c1.289.371,3.131,2.106,3.867,2.479s5.158,1.735,7.182.5c1.492-.911,4.76-1.417,6.392-1.623l2.726,1.4-8.726,4.638-1.148-1.856s-2.066-.308-3.9-.771a37.281,37.281,0,0,1-5.051-2.01,26,26,0,0,0-2.986-.773C276.754,213.5,276.754,212.577,277.214,211.649Z" transform="translate(-250.798 -200.913)"/><g transform="translate(39.709 12.173)"><path class="ab" d="M289.275,215.127l-4.885-2.691s-8.214,1.2-9.1,5.831l4,2.841Z" transform="translate(-275.287 -212.436)"/><path class="ac" d="M305.071,229.444l-26.645-16.593s-11.992.448-13.325,7.176l26.648,20.629S305.071,238.862,305.071,229.444Z" transform="translate(-264.615 -212.125)"/><path class="ad" d="M295.339,239.395l-26.648-20.629a6.711,6.711,0,0,1,3.058-4.233c8.96,8.516,25.353,17.865,25.353,17.865l2.23,6A24.476,24.476,0,0,1,295.339,239.395Z" transform="translate(-268.205 -210.865)"/></g><g transform="translate(44.432 79.113)"><path class="ae" d="M276.47,324.812l.811,7.5c.13,1.2-.873,2.325-2.518,2.794a17.583,17.583,0,0,1-6.642.451c-6.384-.661-9.331-2.976-10.313-4.3s-13.751-7.274-12.278-10.25c2.456-2.976,6.876,0,11.3,0S270.577,319.522,276.47,324.812Z" transform="translate(-190.396 -199.004)"/><path class="ae" d="M280.479,257.591s2.947,50.587,1.473,66.457c0,0,5.893,39.677,2.947,49.1,0,0-10.313,4.959-19.153.992a2.643,2.643,0,0,1-2.211-2.479s-5.893-37.2-7.367-48.6-13.26-45.627-11.049-53.067S261.326,252.134,280.479,257.591Z" transform="translate(-197.352 -246.678)"/><path class="ae" d="M299.921,328.983s4.051,8.432,1.1,10.416a12.7,12.7,0,0,1-9.331,1.9c-2.7-.579-5.28-1.4-5.28-1.4l-.86-1.737-.982,1.158a15.771,15.771,0,0,1-3.438-.91c-1.964-.743-7.611-2.232-9.944-3.224s-6.507-2.727-6.876-4.877c-.247-2.148,11.174-1.4,14.242-1.322s5.033-.743,6.14-.743,13.013.992,13.013.992" transform="translate(-264.31 -192.596)"/><path class="af" d="M249.605,260.672s-3.084,7.554-3.084,22.763S248.485,337,248.485,337s.982,39.016,1.964,48.935c0,0,6.876,5.951,18.665,1.323,5.893-4.629,3.929-7.935,3.929-7.935s7.858-23.805,4.911-45.629c0,0,10.8-44.3,12.769-49.595s36.231-7.578,22.836-33.4Z" transform="translate(-232.644 -250.701)"/><path class="t" d="M285.426,276.694s-15.833,4.664-13.853,19.987,5.935,25.313,3.958,34.641-4.948,14.654-2.97,25.98c1.611,9.21,7.143,17.98,2.767,24.159a15.344,15.344,0,0,1-7.816-2.958c-.982-9.919-1.964-48.935-1.964-48.935s-1.964-38.353-1.964-53.562a89.6,89.6,0,0,1,1.224-15.387l24.576,7.417Z" transform="translate(-249.706 -243.27)"/></g><path class="t" d="M242.714,240.462c-.213-3.3,2.131-6.418,6.21-8.25,8.993-4.038,21.227-9.158,29.145-11.973,9.833-3.5,20.021-7.178,25.463-7.517,15.173-.952,24.3,8.549,22.867,21.029-.87,7.58-3.872,16.033-7.964,24.71-1.744,3.7-2.918,10.25-3.368,16.271.081,2.9.463,6.2,1.647,8.115,2.456,3.969,4.911,19.84,4.911,19.84s-16.7,11.572-38.307,12.564-29.961-1.984-29.961-1.984l-1.473-6.613-2.947,5.951s-3.929-.992-4.42-3.637c-.442-2.386,3.508-22.787,4.287-26.765-1.258-8.248-3.708-20.366-4.48-25.887C243.615,251.247,243.036,245.442,242.714,240.462Z" transform="translate(-188.172 -200.098)"/><path class="ab" d="M278.949,212.739s-7.122,4.132-24.065,5.785l-2.541,4.114a63.707,63.707,0,0,0,14.819.514c8.349-.661,15.225-5.124,15.96-6.116l.738-.992Z" transform="translate(-170.543 -200.036)"/></g><path class="t" d="M300.431,206.7s0-7.661-12.369-9.992-13.855-1.331-17.316-3-7.918-2-14.349-.667-7.421,5.663-5.444,9.66,2.97,6.327,7.918,7.993,3.958,5.663,3.958,5.663-.99,4.33,2.474,6l2.97-5s2.474,5.663,4.948,7.662,7.915,3,13.359,3,12.369-8.994,14.346-11.99-1.978-5.663-1.978-5.663S301.421,209.034,300.431,206.7Z" transform="translate(-182.183 -192.224)"/><path class="ad" d="M246.895,238.583c4.948-7.993,22.76-6,46.508-11.99,11.426-2.885,12.992-7.311,11.553-11.128,4.488,3.828,6.709,9.578,5.95,16.182-.87,7.58-3.872,16.033-7.964,24.71-1.744,3.7-2.918,10.25-3.368,16.271.081,2.9.463,6.2,1.647,8.115,2.456,3.969,4.911,19.84,4.911,19.84s-16.7,11.572-38.307,12.564c-12.054.553-19.975-.129-24.629-.84-3.42-16.673,11.826-24.853,15.573-32.421C262.727,271.893,241.947,246.577,246.895,238.583Z" transform="translate(-172.68 -174.808)"/><path class="ad" d="M251.035,195.511c2.258-2.785,6.655-2.825,10.022-2.346l.039.016c3.461,1.665,4.948.665,17.316,3s12.369,9.992,12.369,9.992c.99,2.332-1.484,3.665-1.484,3.665s3.958,2.664,1.978,5.663a43.225,43.225,0,0,1-8.827,9.676c-7.647-.9-11.01-5.138-9.643-7.9,1.978-4-4.617-.444-6.623-3.054s6.623-4.5-1.952-9.824S247.078,200.4,251.035,195.511Z" transform="translate(-172.533 -191.692)"/></g><g transform="translate(0 55.621)"><g transform="translate(0 28.331)"><path class="z" d="M325.116,248.359l-4.171-.625s-6.935-3.707-7.912-3.9-9.365-4.449-10.173-3.472.127,1.839,1.33,2.374,3.63,1.275,3.63,1.275l2.092,2.063s-1.333,1.461-1.388,2.293a11.937,11.937,0,0,0,.114,2,2.577,2.577,0,0,0,.309,2.844,7.7,7.7,0,0,0,5.55,2.166c1.741-.116,5.719-.329,5.719-.329l2.705.247Z" transform="translate(-302.558 -240.214)"/><path class="aa" d="M303.214,249.52a2.4,2.4,0,0,1-.538-2.129,8.506,8.506,0,0,0,3.609,1.763c1.98.166,4.454,1.331,6.184-.5a19.177,19.177,0,0,1,5.194-3.331l1.567-.182-2.04,6.462-2.708-.247s-3.978.213-5.719.329A7.7,7.7,0,0,1,303.214,249.52Z" transform="translate(-296.824 -236.522)"/></g><g transform="translate(17.547)"><path class="s" d="M310.2,244.862l-5.124-.595s-3.773,1.532-4.163,5.024c-.086,3.182,1.7,4.337,1.7,4.337l4.173.346Z" transform="translate(-300.911 -208.845)"/><g transform="translate(2.829)"><path class="t" d="M347.332,224.019s-5.353.654-9.435,6.837-17.7,27.378-21.032,29.123-43.777-1.368-43.777-1.368-7.985,3.481-6.093,7.94c1.9,4.013,4.545,3.593,4.545,3.593s39.721,6.217,47.628,6.733,11.249-1.674,13.245-2.545,18.254-22.042,21.622-25.565,12.192-15.879,5.686-20.38A22.977,22.977,0,0,0,347.332,224.019Z" transform="translate(-266.705 -224.019)"/><path class="ad" d="M271.531,269.828s-2.648.42-4.545-3.593a3.464,3.464,0,0,1-.039-2.642c4.6.959,11.111,2.229,17.839,3.245,12.5,1.891,28.552,3.9,39.819,1.333s22.851-21.113,27.011-31.291a16.427,16.427,0,0,0,.34-12.438,25.2,25.2,0,0,1,7.754,3.628c6.507,4.5-2.315,16.857-5.686,20.38s-19.624,24.7-21.622,25.565-5.337,3.061-13.245,2.545S271.531,269.828,271.531,269.828Z" transform="translate(-266.696 -223.702)"/></g></g></g></g><g transform="translate(348.887 60.394)"><g transform="translate(21.11)"><path class="s" d="M319.929,212.1l-.8,190.783L157.668,340.128l.8-190.783Z" transform="translate(-157.668 -149.345)"/></g><g transform="translate(0 5.811)"><g transform="translate(161.457 62.756)"><path class="ag" d="M164.449,190.724l5.579-2.183-.8,190.783-5.579,2.183Z" transform="translate(-163.645 -188.541)"/></g><g transform="translate(0.803)"><path class="d" d="M163.645,154.85l5.579-2.183,161.457,62.756-5.579,2.183Z" transform="translate(-163.645 -152.667)"/></g><g transform="translate(0 2.183)"><path class="o" d="M328.053,216.671l-.8,190.783L165.792,344.7l.8-190.783Z" transform="translate(-165.792 -153.915)"/></g></g><g transform="translate(35.141 48.897)"><path class="l" d="M178.548,177.3l-.012,2.745,93.992,36.533.012-2.745Z" transform="translate(-178.537 -177.297)"/><g transform="translate(40.672 26.764)"><path class="l" d="M178.566,192.6l-.011,2.731,53.273,20.706.011-2.73Z" transform="translate(-178.555 -192.596)"/></g><g transform="translate(7.514 67.47)"><path class="l" d="M178.653,215.865l-.012,2.731L264.848,252.1l.012-2.731Z" transform="translate(-178.641 -215.865)"/></g><g transform="translate(40.498 68.182)"><path class="l" d="M178.633,216.272,178.622,219l53.273,20.706.011-2.731Z" transform="translate(-178.622 -216.272)"/></g><g transform="translate(26.329 51.719)"><path class="l" d="M178.615,206.861l-.011,2.731,67.488,26.232.012-2.731Z" transform="translate(-178.604 -206.861)"/></g><g transform="translate(69.433 50.067)"><path class="l" d="M178.586,205.916l-.012,2.731,24.462,9.508.012-2.731Z" transform="translate(-178.574 -205.916)"/></g></g><g transform="translate(65.381 157.35)"><g transform="translate(0)"><path class="ah" d="M221.726,242.751c-14.993-5.827-29.184-4.342-35.046,4.842-7.336,11.479,1.008,30.819,18.668,44.194l4.1-6.422c-11.963-9.4-17.535-22.679-12.46-30.619,4.137-6.473,14.136-7.519,24.7-3.411a45.967,45.967,0,0,1,7.751,3.919l4.1-6.422A65.509,65.509,0,0,0,221.726,242.751Z" transform="translate(-184.018 -239.292)"/></g><g transform="translate(21.329 9.539)"><path class="p" d="M202.34,244.745l-4.093,6.417c.644.406,1.291.829,1.928,1.275,13.6,9.433,20.24,23.923,14.845,32.377-.2.3-.408.593-.634.878-.078.1-.164.2-.249.3-3.934,4.66-11.47,5.8-19.824,3.544a38.271,38.271,0,0,1-3.971-1.307c-.359-.138-.715-.283-1.073-.434-.652-.273-1.151-.5-1.64-.724l-.223-.107c-1.076-.511-2.139-1.064-3.212-1.681-.13-.077-.268-.156-.405-.236-.395-.234-.787-.474-1.182-.721-.148-.089-.294-.18-.439-.276-.515-.327-1.029-.667-1.536-1.016-.824-.572-1.614-1.16-2.385-1.758l-4.1,6.422c.782.59,1.572,1.176,2.385,1.739.73.5,1.46.987,2.2,1.452.205.135.411.268.626.4q.838.525,1.689,1.023c.19.114.379.227.566.334,1.52.869,3.051,1.671,4.571,2.388.12.06.239.112.359.166.7.331,1.393.635,2.079.929l.242.1q.709.3,1.419.572,1.688.656,3.357,1.191c.842.268,1.634.5,2.424.708,12.746,3.4,24.158,1.256,29.259-6.74,7.658-11.988-1.772-32.554-21.053-45.933Q203.308,245.363,202.34,244.745Z" transform="translate(-174.149 -244.745)"/></g></g><g transform="translate(13.747 163.746)"><path class="p" d="M230.867,247.78v1.385c0,.817-1.312,1.328-2.362.92l-9.724-3.77a1.076,1.076,0,0,1-.79-.92V244.01c0-.815,1.312-1.326,2.362-.918l9.724,3.77A1.074,1.074,0,0,1,230.867,247.78Z" transform="translate(-217.991 -242.948)"/><g transform="translate(0.003 6.892)"><path class="p" d="M249.8,263.584l0,1.387c0,.815-1.31,1.326-2.362.92l-40.508-15.632a1.077,1.077,0,0,1-.793-.92V247.95c0-.815,1.31-1.326,2.359-.92l40.508,15.634A1.072,1.072,0,0,1,249.8,263.584Z" transform="translate(-206.142 -246.888)"/></g><g class="ai" transform="translate(0.008 20.686)"><path class="p" d="M239.527,265.023v1.389c0,.815-1.31,1.326-2.359.92l-23.807-9.188a1.077,1.077,0,0,1-.793-.922v-1.387c0-.815,1.31-1.326,2.359-.92l23.807,9.188A1.073,1.073,0,0,1,239.527,265.023Z" transform="translate(-212.568 -254.773)"/></g><g transform="translate(0.005 13.788)"><path class="p" d="M245.938,265.1v1.389c0,.815-1.31,1.326-2.359.92L209.352,254.2a1.077,1.077,0,0,1-.793-.92v-1.389c0-.815,1.31-1.326,2.359-.92l34.227,13.209A1.074,1.074,0,0,1,245.938,265.1Z" transform="translate(-208.559 -250.83)"/></g></g></g></g></g></g></svg>