<svg xmlns="http://www.w3.org/2000/svg" width="24" height="34" viewBox="0 0 24 34"><defs><style>.a{fill:#fff;}</style></defs><g transform="translate(0 -0.129)"><path class="a" d="M20.076,34h-8.97a1.693,1.693,0,0,1-1.681-1.7v-.208a2.848,2.848,0,0,0-.831-2.011,15.927,15.927,0,0,1-3.615-4.937A32.416,32.416,0,0,0,.62,17.4a1.791,1.791,0,0,1-.509-1.975,2.2,2.2,0,0,1,1.977-1.259h.048c1.528,0,3.981,2.747,4.954,4.218a8,8,0,0,0,1.159,1.4.534.534,0,0,0,.372.151.54.54,0,0,0,.132-.017.565.565,0,0,0,.4-.381,6.345,6.345,0,0,0,.267-1.976V8.443a4.484,4.484,0,1,1,4.485,0v.939a2.2,2.2,0,0,1,2.136-.073,2.228,2.228,0,0,1,1.2,1.786,2.207,2.207,0,0,1,2.256-.036,2.259,2.259,0,0,1,1.131,1.974v.881a2.222,2.222,0,0,1,1.135-.313c.05,0,.1,0,.149.005A2.329,2.329,0,0,1,24,15.962v8.971a7.829,7.829,0,0,1-2.093,5.24.522.522,0,0,0-.149.386V32.3A1.693,1.693,0,0,1,20.076,34ZM15.03,30.6a.567.567,0,0,0,0,1.133h3.924a.567.567,0,0,0,0-1.133Zm-2.8,0a.567.567,0,0,0,0,1.133h.561a.567.567,0,0,0,0-1.133ZM21.2,25.508a.566.566,0,0,0-.564.545,1.255,1.255,0,0,1-.4.746.568.568,0,0,0-.122.617.556.556,0,0,0,.914.184,2.3,2.3,0,0,0,.725-1.534.56.56,0,0,0-.547-.559H21.2Zm0-5.674a.565.565,0,0,0-.561.567v3.4a.561.561,0,1,0,1.121,0V20.4A.565.565,0,0,0,21.2,19.833ZM11.667,2.266a2.258,2.258,0,0,1,2.243,2.267V7.071a3.364,3.364,0,1,0-4.485,0V4.533A2.257,2.257,0,0,1,11.667,2.266Z" transform="translate(0 0.129)"/></g></svg>