<svg xmlns="http://www.w3.org/2000/svg" width="17.81" height="21.006" viewBox="0 0 17.81 21.006"><defs><style>.a{fill:#545557;}</style></defs><g transform="translate(0 6.348)"><g transform="translate(14.149)"><path class="a" d="M60.971,39.542H58.019a.333.333,0,0,1-.355-.3V25.187a.333.333,0,0,1,.355-.3h2.951a.333.333,0,0,1,.355.3V39.237A.333.333,0,0,1,60.971,39.542Zm-2.6-.609h2.241V25.492H58.374Z" transform="translate(-57.665 -24.883)"/></g><g transform="translate(9.432 3.484)"><path class="a" d="M45.756,52.694H42.8a.355.355,0,0,1-.355-.355V41.874a.355.355,0,0,1,.355-.355h2.951a.355.355,0,0,1,.355.355V52.339A.355.355,0,0,1,45.756,52.694Zm-2.6-.71H45.4V42.229H43.16Z" transform="translate(-42.45 -41.519)"/></g><g transform="translate(4.716 2.318)"><path class="a" d="M30.542,43.753H27.591a.33.33,0,0,1-.355-.3V31.709a.33.33,0,0,1,.355-.3h2.951a.33.33,0,0,1,.355.3V43.456A.33.33,0,0,1,30.542,43.753Zm-2.6-.593h2.241V32.006H27.946Z" transform="translate(-27.236 -31.412)"/></g><g transform="translate(0 0.733)"><path class="a" d="M15.328,47.7H12.377a.355.355,0,0,1-.355-.355V34.124a.355.355,0,0,1,.355-.355h2.951a.355.355,0,0,1,.355.355V47.34A.355.355,0,0,1,15.328,47.7Zm-2.6-.71h2.241V34.479H12.732Z" transform="translate(-12.022 -33.77)"/></g></g><g transform="translate(0.278)"><g transform="translate(0 3.842)"><path class="a" d="M14.357,20.93a1.552,1.552,0,1,1,1.553-1.552A1.554,1.554,0,0,1,14.357,20.93Zm0-2.4a.843.843,0,1,0,.843.843A.843.843,0,0,0,14.357,18.535Z" transform="translate(-12.805 -17.825)"/></g><g transform="translate(4.137 2.012)"><path class="a" d="M27.7,15.772a1.552,1.552,0,1,1,1.552-1.552A1.554,1.554,0,0,1,27.7,15.772Zm0-2.4a.843.843,0,1,0,.842.843A.844.844,0,0,0,27.7,13.377Z" transform="translate(-26.15 -12.668)"/></g><g transform="translate(9.433 6.438)"><path class="a" d="M44.786,28.241a1.553,1.553,0,1,1,1.553-1.552A1.554,1.554,0,0,1,44.786,28.241Zm0-2.4a.843.843,0,1,0,.843.843A.843.843,0,0,0,44.786,25.846Z" transform="translate(-43.234 -25.136)"/></g><g transform="translate(14.149)"><path class="a" d="M60,10.1a1.552,1.552,0,1,1,1.552-1.552A1.554,1.554,0,0,1,60,10.1Zm0-2.4a.843.843,0,1,0,.842.843A.844.844,0,0,0,60,7.71Z" transform="translate(-58.448 -7)"/></g></g><g transform="translate(6.225 3.393)"><path class="a" d="M36.8,21.662a.352.352,0,0,1-.211-.07l-4.11-3.052a.355.355,0,1,1,.423-.57l4.11,3.052a.355.355,0,0,1-.212.64Z" transform="translate(-32.332 -17.901)"/></g><g transform="translate(2.589 3.187)"><path class="a" d="M19.671,18.82a.355.355,0,0,1-.133-.684l2.488-1a.355.355,0,1,1,.266.658l-2.488,1A.354.354,0,0,1,19.671,18.82Z" transform="translate(-19.316 -17.106)"/></g><g transform="translate(10.985 2.065)"><path class="a" d="M49.107,18.175a.355.355,0,0,1-.274-.58l3.82-4.647a.355.355,0,0,1,.548.451l-3.82,4.647A.354.354,0,0,1,49.107,18.175Z" transform="translate(-48.753 -12.818)"/></g></svg>